<svg width="50" height="50" viewBox="0 0 50 50" version="1.1" xmlns="http://www.w3.org/2000/svg" xmlns:xlink="http://www.w3.org/1999/xlink">
<title>Group 2</title>
<desc>Created using Figma</desc>
<g id="Canvas" transform="translate(9531 -15545)">
<g id="Group 2">
<g id="Ellipse">
<mask id="mask0_outline_ins">
<use xlink:href="#path0_fill" fill="white" transform="translate(-9531 15545)"/>
</mask>
<g mask="url(#mask0_outline_ins)">
<use xlink:href="#path1_stroke_2x" transform="translate(-9531 15545)" fill="#FFFFFF"/>
</g>
</g>
<g id="Group">
<g id="Compound Path">
<use xlink:href="#path2_fill" transform="translate(-9520 15554)" fill="#FFFFFF"/>
</g>
<g id="Compound Path">
<use xlink:href="#path3_fill" transform="translate(-9512.55 15565.7)" fill="#FFFFFF"/>
</g>
<g id="Compound Path">
<use xlink:href="#path4_fill" transform="translate(-9510.14 15568.1)" fill="#FFFFFF"/>
</g>
</g>
</g>
</g>
<defs>
<path id="path0_fill" d="M 50 25C 50 38.8071 38.8071 50 25 50C 11.1929 50 0 38.8071 0 25C 0 11.1929 11.1929 0 25 0C 38.8071 0 50 11.1929 50 25Z"/>
<path id="path1_stroke_2x" d="M 48 25C 48 37.7025 37.7025 48 25 48L 25 52C 39.9117 52 52 39.9117 52 25L 48 25ZM 25 48C 12.2975 48 2 37.7025 2 25L -2 25C -2 39.9117 10.0883 52 25 52L 25 48ZM 2 25C 2 12.2975 12.2975 2 25 2L 25 -2C 10.0883 -2 -2 10.0883 -2 25L 2 25ZM 25 2C 37.7025 2 48 12.2975 48 25L 52 25C 52 10.0883 39.9117 -2 25 -2L 25 2Z"/>
<path id="path2_fill" d="M 22.5132 8.68071L 22.5132 2.73282C 22.5132 2.00803 22.2244 1.31293 21.7104 0.800423C 21.1964 0.287921 20.4992 -5.07829e-08 19.7722 -5.07829e-08C 19.0453 -5.07829e-08 18.3481 0.287921 17.834 0.800423C 17.32 1.31293 17.0312 2.00803 17.0312 2.73282L 17.0312 3.89024L 14.5482 1.73614C 14.4314 1.63652 14.2827 1.58178 14.129 1.58178C 13.9753 1.58178 13.8266 1.63652 13.7098 1.73614L 0.166038 13.3104C 0.0606341 13.4269 0.00159222 13.5778 3.17559e-05 13.7347C -0.00152871 13.8916 0.0545 14.0437 0.157566 14.1622C 0.260632 14.2808 0.403622 14.3577 0.559608 14.3785C 0.715594 14.3992 0.87381 14.3624 1.00446 14.2749L 3.19726 12.4102L 3.19726 25.7849C 3.19726 26.6376 3.537 27.4554 4.14175 28.0583C 4.7465 28.6613 5.56671 29 6.42196 29L 21.6103 29C 22.4655 29 23.2857 28.6613 23.8905 28.0583C 24.4952 27.4554 24.835 26.6376 24.835 25.7849L 24.835 12.378L 26.9955 14.2749C 27.1262 14.3624 27.2844 14.3992 27.4404 14.3785C 27.5964 14.3577 27.7394 14.2808 27.8424 14.1622C 27.9455 14.0437 28.0015 13.8916 28 13.7347C 27.9984 13.5778 27.9394 13.4269 27.834 13.3104L 22.5132 8.68071ZM 18.3211 2.76497C 18.3211 2.38126 18.474 2.01326 18.7461 1.74194C 19.0183 1.47061 19.3874 1.31818 19.7722 1.31818C 20.1571 1.31818 20.5262 1.47061 20.7983 1.74194C 21.0704 2.01326 21.2233 2.38126 21.2233 2.76497L 21.2233 7.55543L 18.3211 5.01552L 18.3211 2.76497ZM 23.5451 25.7849C 23.5451 26.2965 23.3413 26.7872 22.9784 27.149C 22.6156 27.5107 22.1234 27.714 21.6103 27.714L 6.42196 27.714C 5.90881 27.714 5.41668 27.5107 5.05383 27.149C 4.69098 26.7872 4.48714 26.2965 4.48714 25.7849L 4.48714 11.3171L 14.129 3.05432L 23.5451 11.2528L 23.5451 25.7849Z"/>
<path id="path3_fill" d="M 1.35445 0.0965273C 1.02348 0.104679 0.708323 0.2394 0.47422 0.472805C 0.240117 0.706209 0.104992 1.02042 0.0968162 1.35041L 7.54805e-05 6.10872C -0.00180289 6.28212 0.0315095 6.4541 0.0980094 6.61433C 0.164509 6.77456 0.262823 6.91972 0.387039 7.04109L 6.51397 13.214C 6.63399 13.3356 6.77706 13.4321 6.93483 13.4979C 7.09261 13.5638 7.26196 13.5977 7.43301 13.5977C 7.60406 13.5977 7.7734 13.5638 7.93118 13.4979C 8.08896 13.4321 8.23203 13.3356 8.35205 13.214L 13.2536 8.32713C 13.3755 8.20746 13.4723 8.06483 13.5383 7.90752C 13.6044 7.75021 13.6384 7.58137 13.6384 7.41083C 13.6384 7.24029 13.6044 7.07145 13.5383 6.91414C 13.4723 6.75683 13.3755 6.6142 13.2536 6.49453L 7.06217 0.385885C 6.94043 0.262039 6.79483 0.164019 6.63412 0.097717C 6.47341 0.0314155 6.30092 -0.00179751 6.12701 7.52553e-05L 1.35445 0.0965273ZM 12.3184 7.42691L 7.44913 12.3138L 1.25771 6.17302L 1.3867 1.38256L 6.15925 1.28611L 12.3184 7.42691Z"/>
<path id="path4_fill" d="M 2.08013 4.11523C 2.48593 4.11203 2.88178 3.98963 3.21818 3.76332C 3.55457 3.53701 3.81658 3.21684 3.97144 2.84285C 4.1263 2.46887 4.16714 2.05767 4.08884 1.66066C 4.01055 1.26366 3.8166 0.898487 3.53125 0.610801C 3.29177 0.369364 2.99609 0.190768 2.67057 0.0909385C 2.34505 -0.00889143 1.99981 -0.0268526 1.66564 0.0386584C 1.33146 0.104169 1.01874 0.251115 0.755366 0.466392C 0.491988 0.681669 0.28614 0.958584 0.156177 1.27244C 0.0262134 1.58631 -0.0238257 1.92735 0.0105237 2.26518C 0.044873 2.603 0.162543 2.9271 0.353039 3.20857C 0.543534 3.49005 0.800934 3.72014 1.10229 3.87834C 1.40364 4.03654 1.73957 4.11792 2.08013 4.11523ZM 1.53194 1.54317C 1.60384 1.47124 1.68927 1.41416 1.78334 1.37522C 1.87742 1.33627 1.97827 1.31622 2.08013 1.31622C 2.18199 1.31622 2.28285 1.33627 2.37692 1.37522C 2.471 1.41416 2.55643 1.47124 2.62833 1.54317C 2.7363 1.65119 2.80974 1.78869 2.83939 1.93829C 2.86903 2.0879 2.85355 2.24291 2.79489 2.38375C 2.73624 2.52459 2.63704 2.64494 2.50983 2.72961C 2.38261 2.81427 2.23309 2.85946 2.08013 2.85946C 1.92718 2.85946 1.77766 2.81427 1.65044 2.72961C 1.52323 2.64494 1.42403 2.52459 1.36538 2.38375C 1.30672 2.24291 1.29124 2.0879 1.32088 1.93829C 1.35052 1.78869 1.42397 1.65119 1.53194 1.54317Z"/>
</defs>
</svg>
