<svg width="126" height="146" viewBox="0 0 126 146" version="1.1" xmlns="http://www.w3.org/2000/svg" xmlns:xlink="http://www.w3.org/1999/xlink">
<g id="Canvas" fill="none">
<g id="deal">
<g id="Vector">
<path d="M 6.87855 -5.68786e-06C 3.10948 -5.68786e-06 -1.43779e-06 3.07528 -1.43779e-06 6.80288L -1.43779e-06 11.6487L 13.6629 11.6487L 13.6629 6.80288C 13.7571 3.07528 10.6476 -5.68786e-06 6.87855 -5.68786e-06Z" transform="translate(98.7664 3.31055)" fill="#33D6C0"/>
</g>
<g id="Vector_2">
<path d="M 0 0.186386L 0.0942254 -5.68786e-06L 0.188451 -5.68786e-06L 0 0.186386Z" transform="translate(62.3943 138.9)" fill="#FABF62"/>
</g>
<g id="Vector_3">
<path d="M 21.201 -1.13757e-05C 24.3105 3.07526 22.5202 8.48029 18.0915 9.03943C 16.4897 9.22581 15.359 10.4373 15.1705 11.9283C 14.8878 14.3513 13.0033 16.2151 10.5534 16.4946C 8.95154 16.681 7.82082 17.8925 7.63237 19.3835C 7.34969 21.8065 5.37093 23.6702 3.01526 23.9498C 1.50763 24.1362 0.282682 25.0681 1.43779e-06 27.0251L 0.753812 33.0824L 0.942269 33.2688C 5.84206 28.4229 11.7783 33.0824 10.4592 37.9283L 11.6841 36.1577L 12.1553 35.8781C 12.4379 36.1577 15.0763 38.767 15.359 39.0466C 20.1645 43.5197 27.0431 37.5556 23.6509 32.4301C 29.0219 35.8781 34.5812 28.8889 30.5295 24.4158L 30.8122 24.2294L 32.9794 26.3728C 36.56 29.7276 42.1194 27.2115 42.1194 22.6452C 42.2136 19.2903 41.7425 20.2222 21.201 -1.13757e-05Z" transform="translate(53.8198 98.2715)" fill="#FCC65D"/>
</g>
<g id="Vector_4">
<path d="M 18.8454 7.36201C 13.7571 12.3943 6.21897 13.5126 -1.43779e-06 10.7169L 22.3318 32.3369C 32.6967 23.9498 31.6602 16.3083 37.5965 12.1147L 26.2893 5.68786e-06L 18.8454 7.36201Z" transform="translate(73.3247 85.0371)" fill="#33D6C0"/>
</g>
<g id="Vector_5">
<path d="M 48.3383 10.4373L 48.4326 1.13757e-05L 0.0942282 1.13757e-05L 2.87557e-06 10.4373L 48.3383 10.4373Z" transform="translate(68.3308 26.8867)" fill="#FCC65D"/>
</g>
<g id="Group 2">
<g id="Vector_6">
<path d="M 0 52.0932L 0 8.66666C 0 3.91397 3.95753 5.68786e-06 8.76309 5.68786e-06L 85.9348 5.68786e-06C 86.9713 5.68786e-06 87.8194 0.838715 87.8194 1.8638C 87.8194 2.98208 87.0656 3.63442 86.2175 3.8208C 83.7676 4.19356 81.9773 6.24372 81.9773 8.66666L 81.9773 26.2796C 81.9773 28.7025 78.2082 28.7025 78.2082 26.2796C 78.2082 7.2688 77.7371 6.61649 79.8101 3.7276L 8.76309 3.7276C 6.03051 3.7276 3.76907 5.96415 3.76907 8.66666L 3.76907 52.0932C 3.76907 54.6093 0 54.6093 0 52.0932Z" transform="translate(18.1079 0.234375)" fill="#276591"/>
</g>
<g id="Vector_7">
<path d="M 0 15.9821L 0 1.8172C 0 -0.605735 3.76907 -0.605735 3.76907 1.8172L 3.76907 15.9821C 3.76907 18.4982 0 18.4982 0 15.9821Z" transform="translate(96.3162 36.3457)" fill="#276591"/>
</g>
<g id="Vector_8">
<path d="M 0 15.8423L 0 8.66666C 0 3.91397 3.95753 5.68786e-06 8.76309 5.68786e-06C 13.5687 5.68786e-06 17.5262 3.91397 17.5262 8.66666L 17.5262 14.724C 17.5262 15.7491 16.6781 16.5878 15.6417 16.5878L 3.76907 16.5878C 2.8268 18.4516 0 17.8925 0 15.8423ZM 3.76907 12.8602L 13.6629 12.8602L 13.6629 8.66666C 13.6629 5.96415 11.4014 3.7276 8.66886 3.7276C 5.93629 3.7276 3.67485 5.96415 3.67485 8.66666L 3.67485 12.8602L 3.76907 12.8602Z" transform="translate(96.3162 0.234375)" fill="#276591"/>
</g>
<g id="Vector_9">
<path d="M 0.731434 20.6758C 6.19659 16.2959 8.26958 12.1023 10.1541 8.46793C 11.6617 5.39267 13.1694 2.5038 16.1846 0.360427C 17.0327 -0.291903 18.2576 -0.0123333 18.823 0.826376C 19.4826 1.66509 19.1999 2.87654 18.3518 3.43568C 12.9809 7.25647 13.7347 15.0844 3.18133 23.6579C 1.20257 25.149 -1.24733 22.2601 0.731434 20.6758Z" transform="translate(93.2288 95.9531)" fill="#276591"/>
</g>
<g id="Vector_10">
<path d="M 2.1201 17.5663C -0.706702 14.7706 -0.706702 10.2043 2.1201 7.4086L 7.49103 2.09676C 10.3178 -0.698936 14.935 -0.698936 17.7618 2.09676C 20.5886 4.89246 20.5886 9.45879 17.7618 12.2545L 12.3908 17.5663C 9.56402 20.4552 4.94691 20.4552 2.1201 17.5663ZM 10.1294 4.79929L 4.75845 10.1111C 1.55474 13.2796 6.45454 18.2186 9.65825 14.957L 15.0292 9.64516C 16.3484 8.3405 16.3484 6.10395 15.0292 4.79929C 13.71 3.49464 11.4486 3.49464 10.1294 4.79929Z" transform="translate(28.0486 115.744)" fill="#276591"/>
</g>
<g id="Vector_11">
<path d="M 2.1201 13.0932C -0.706702 10.2975 -0.706702 5.73118 2.1201 2.93548L 2.96814 2.09678C 5.79495 -0.698919 10.4121 -0.698919 13.2389 2.09678C 16.0657 4.89248 16.0657 9.45878 13.2389 12.2545L 12.3908 13.0932C 9.56402 15.8889 4.94691 15.8889 2.1201 13.0932ZM 5.70072 4.70609L 4.85268 5.54479C 1.64897 8.71325 6.54876 13.6523 9.75247 10.3907L 10.6005 9.55198C 11.9197 8.24732 11.9197 6.01075 10.6005 4.70609C 9.18711 3.40143 7.01989 3.40143 5.70072 4.70609Z" transform="translate(20.5107 112.76)" fill="#276591"/>
</g>
<g id="Vector_12">
<path d="M 2.13424 5.31183C 5.33795 2.14337 6.84558 -1.13757e-05 10.5204 -1.13757e-05C 16.9279 -1.13757e-05 20.32 7.73477 15.7029 12.3011C 12.7819 15.19 12.3107 15.7491 11.4627 16.3082C 4.30146 21.0609 -3.9905 11.7419 2.13424 5.31183ZM 7.97631 4.75268C 7.69363 5.03225 4.67837 7.92116 4.48991 8.29392C 2.3227 11.7419 5.99754 15.0968 9.29548 13.0466C 9.67239 12.8602 12.5934 9.87814 12.8761 9.59857C 14.2895 7.92115 14.2895 5.77777 12.3107 4.28673C 10.9916 3.44802 9.20126 3.6344 7.97631 4.75268Z" transform="translate(48.5762 127.625)" fill="#276591"/>
</g>
<g id="Vector_13">
<path d="M 5.396 4.62963C 7.65744 1.46117 2.75766 -1.89367 0.59044 1.27479C -1.671 4.44325 3.13455 7.79809 5.396 4.62963Z" transform="translate(110.425 84.041)" fill="#276591"/>
</g>
<g id="Vector_14">
<path d="M 26.019 53.2732C 24.8882 53.18 26.4901 54.6711 0.483499 25.1298C -0.176089 24.3843 -0.176083 23.1729 0.577731 22.5205L 24.3229 0.527698C 26.2074 -1.14972 28.7515 1.55279 26.9612 3.3234L 4.53525 24.1048L 26.3017 48.8001L 28.94 46.4704C 30.8245 44.7929 33.3687 47.6818 31.4841 49.2661L 27.3381 52.8073C 26.9612 53.18 26.4901 53.3664 26.019 53.2732Z" transform="translate(86.1272 46.582)" fill="#276591"/>
</g>
<g id="Vector_15">
<path d="M 14.7936 23.1111C 12.1553 20.9677 12.061 20.7813 10.9303 19.6631C 6.78433 15.5627 4.52289 10.9964 2.63835 7.08242C 0.848041 3.35483 0.0942275 2.32976 0.0942275 2.32976L 3.59447e-07 2.23656L 3.01526 1.13757e-05C 5.93629 3.8208 7.53814 11.0896 13.4744 16.9606C 14.5109 17.9857 14.6052 18.0788 17.1493 20.2222C 17.9031 20.8745 17.9973 22.086 17.3377 22.9247C 16.7724 23.6702 15.5474 23.7634 14.7936 23.1111Z" transform="translate(6.42358 94.9141)" fill="#276591"/>
</g>
<g id="Vector_16">
<path d="M 30.1439 6.59936C 26.1863 3.71047 20.8154 2.96493 15.8214 4.45597C 15.4445 4.54916 15.1618 4.64237 14.7849 4.73556C 11.11 5.76065 5.07953 7.15848 1.40468 5.94702C 0.179736 5.57426 -0.291397 4.2696 0.179737 3.24451C 0.556644 2.4058 1.59314 1.93986 2.62963 2.40581C 2.81809 2.499 2.81809 2.40579 3.00654 2.49898C 6.11602 3.2445 11.5812 1.84666 14.6907 0.914764C 20.8154 -0.949035 27.4113 0.0760489 32.3111 3.61727C 33.1591 4.2696 33.3476 5.38786 32.7822 6.22657C 32.1226 7.06528 30.9919 7.25169 30.1439 6.59936Z" transform="translate(27.0681 67.8145)" fill="#276591"/>
</g>
<g id="Vector_17">
<path d="M 5.95496 20.6134L 0.584025 15.3016C -1.20628 13.531 1.52629 10.8285 3.3166 12.5991L 8.68753 17.9109C 10.7605 19.9611 14.6238 18.6564 14.6238 15.488C 14.6238 13.6242 14.4354 13.8106 3.69351 3.2801C 1.9032 1.50949 4.63578 -1.19302 6.42609 0.577594C 16.8853 10.9217 18.4871 11.6672 18.4871 15.488C 18.4871 17.445 17.7333 19.2156 16.3199 20.6134C 13.3989 23.4091 8.78176 23.4091 5.95496 20.6134Z" transform="translate(69.4426 110.365)" fill="#276591"/>
</g>
<g id="Vector_18">
<path d="M 13.022 15.6871L 0.584029 3.19967C -1.20628 1.42906 1.52629 -1.18025 3.3166 0.590362L 15.7545 12.9846C 17.0737 14.2893 19.3352 14.2893 20.6543 12.9846C 21.9735 11.68 21.9735 9.44341 20.6543 8.13875L 19.8063 7.30005C 18.016 5.52944 20.7486 2.82691 22.5389 4.59752L 23.3869 5.43625C 26.2137 8.23195 26.2137 12.7983 23.3869 15.5939C 20.4659 18.4828 15.8488 18.4828 13.022 15.6871Z" transform="translate(72.4585 110.447)" fill="#276591"/>
</g>
<g id="Vector_19">
<path d="M 6.52031 20.7066L 0.584023 14.8357C -1.20629 13.0651 1.52629 10.3626 3.3166 12.1332L 9.25289 18.0041C 12.4566 21.1726 17.4506 16.3267 14.1527 13.1583L 4.16464 3.28011C 2.37434 1.5095 5.10691 -1.193 6.89722 0.577611L 16.8853 10.4557C 19.7121 13.2514 19.7121 17.8178 16.8853 20.6135C 13.9642 23.5023 9.34712 23.5023 6.52031 20.7066Z" transform="translate(61.0564 117.635)" fill="#276591"/>
</g>
<g id="Vector_20">
<path d="M 0.58281 4.62964C -1.67863 1.46118 3.22116 -1.89366 5.38838 1.27479C 7.64982 4.35006 2.75003 7.7981 0.58281 4.62964Z" transform="translate(1.97754 84.1348)" fill="#276591"/>
</g>
<g id="Vector_21">
<path d="M 4.82184 53.5423L 0.675858 50.0011C -1.20868 48.3237 1.24122 45.528 3.21998 47.2054L 5.95256 49.5351L 27.7189 24.8398L 4.53916 3.31294C 2.74885 1.63552 5.29297 -1.16018 7.17751 0.517242L 31.6765 23.2556C 32.4303 23.9079 32.5245 25.1194 31.7707 25.8649L 7.55441 53.3559C 6.89483 54.1946 5.66988 54.1947 4.82184 53.5423Z" transform="translate(0 45.9395)" fill="#276591"/>
</g>
<g id="Vector_22">
<path d="M 53.414 50.0281L 24.6748 21.6052C 23.921 20.8597 22.696 20.8597 21.9422 21.512C 19.3039 24.0281 12.1426 30.7378 12.1426 30.7378C 9.12739 33.6267 4.13337 33.2539 1.30656 29.0604C -0.672198 26.3579 -0.389518 22.6303 2.06038 20.3005L 17.6078 5.66971C 23.4499 0.171499 30.988 -1.13317 37.7723 0.917013C 43.4259 2.59443 47.6661 3.15358 49.9276 2.40806C 50.9641 2.0353 52.0006 2.59443 52.3775 3.61952C 52.7544 4.64461 52.189 5.6697 51.1525 6.04246C 48.1373 7.06755 43.2375 6.6016 36.6416 4.64461C 31.0822 2.96719 24.9575 3.99229 20.1519 8.5586L 4.6045 23.1894C 3.56801 24.2145 3.28533 25.8919 4.6045 27.383C 7.71399 30.5514 9.12739 28.5012 11.3888 26.3579C 13.4618 24.4009 16.854 21.2324 19.2097 18.9959C 21.4711 16.8525 25.0517 16.9457 27.3132 19.0891L 56.0523 47.512C 56.8061 48.2575 56.8061 49.469 56.0523 50.2145C 55.3927 50.7736 54.1678 50.7737 53.414 50.0281Z" transform="translate(38.8501 67.7207)" fill="#276591"/>
</g>
<g id="Vector_23">
<path d="M 2.1201 18.9641C -0.706701 16.1684 -0.706701 11.6021 2.1201 8.80644L 8.90443 2.09679C 11.7312 -0.698913 16.3483 -0.698913 19.1752 2.09679C 22.002 4.89248 22.002 9.45879 19.1752 12.2545L 12.3908 18.9641C 9.56402 21.7598 4.94691 21.7598 2.1201 18.9641ZM 11.5428 4.79929L 4.75845 11.5089C 1.55474 14.6774 6.45454 19.6165 9.65825 16.3548L 16.4426 9.64515C 17.7617 8.34049 17.7617 6.10395 16.4426 4.79929C 15.1234 3.49463 12.9562 3.49463 11.5428 4.79929Z" transform="translate(35.7754 121.707)" fill="#276591"/>
</g>
<g id="Vector_24">
<path d="M 50.27 14.2385C -1.36628 14.2385 1.46052 14.6113 0.612476 13.6794C -0.329792 12.7475 0.0471134 12.0951 0.235567 1.93742C 0.235567 0.912335 1.08361 0.0736259 2.1201 0.0736259C 53.7564 0.0736259 50.9296 -0.299128 51.7776 0.632771C 52.7199 1.56467 52.343 2.21701 52.1545 12.3747C 52.1545 13.493 51.3065 14.2385 50.27 14.2385ZM 3.81619 10.5109L 48.3855 10.5109L 48.4797 3.80122L 3.91041 3.80122L 3.81619 10.5109Z" transform="translate(66.3992 24.6699)" fill="#276591"/>
</g>
<g id="Vector_25">
<path d="M 0.612471 13.6077C -0.329797 12.6758 0.0471163 11.9303 0.23557 1.86575C 0.23557 0.840658 1.08361 0.00194851 2.12011 0.00194851L 4.00464 0.00194851C 8.05639 -0.0912414 11.3543 3.17042 11.2601 7.17759C 11.1659 10.9984 8.15062 14.0736 4.19309 14.1668L 2.02587 14.1668C 1.55474 14.1668 0.989378 13.9804 0.612471 13.6077ZM 3.91041 3.63635L 3.81619 10.346C 8.81021 10.2528 8.24484 3.54316 3.91041 3.63635Z" transform="translate(114.738 24.834)" fill="#276591"/>
</g>
<g id="Vector_26">
<path d="M 13.3802 13.9215C 0.56536 8.23694 2.87557e-06 8.5165 2.87557e-06 6.83909C 2.87557e-06 5.16167 0.471131 5.44125 13.5687 0.129427C 14.7936 -0.336523 16.207 0.502181 16.207 1.90003C 16.0186 12.9896 16.3012 13.176 15.1705 13.8283C 14.6052 14.1079 13.9456 14.1079 13.3802 13.9215ZM 6.6901 6.83909L 12.2495 9.26203L 12.3437 4.50934L 6.6901 6.83909Z" transform="translate(54.1973 24.8926)" fill="#276591"/>
</g>
<g id="Vector_27">
<path d="M 1.86163 0.0948673L 6.47875 0.0016717C 8.92864 -0.0915183 9.1171 3.72927 6.57297 3.72927L 1.95586 3.82247C -0.588265 3.91566 -0.68249 0.0948673 1.86163 0.0948673Z" transform="translate(51.1099 29.8672)" fill="#276591"/>
</g>
<g id="Vector_28">
<path d="M 23.9778 9.78495C 21.5279 9.78495 20.6798 7.36201 20.0202 5.5914C 19.926 5.31183 19.7375 4.84587 19.5491 4.47311C 18.7011 6.33691 18.0415 9.69175 15.1204 9.69175C 12.2936 9.69175 11.5398 6.33691 10.6918 4.47311C 10.5033 4.84587 10.4091 5.21864 10.2206 5.5914C 9.56105 7.36201 8.71301 9.78495 6.26312 9.78495C 3.81322 9.78495 2.96518 7.36201 2.30559 5.5914C 2.11713 5.03226 1.74023 4.19355 1.55178 3.82079C -0.709666 3.44803 -0.426984 0.0931957 1.92869 0.0931957C 4.75549 0.0931957 5.5093 3.44804 6.35734 5.31184C 6.5458 4.93908 6.64002 4.56631 6.82848 4.19355C 7.48806 2.42294 8.3361 0 10.786 0C 13.2359 0 14.0839 2.42294 14.7435 4.19355C 14.8378 4.47312 15.0262 4.93908 15.2147 5.31184C 16.0627 3.44804 16.7223 0.0931957 19.6433 0.0931957C 22.9413 0.0931957 23.4124 4.6595 24.3547 6.05735C 25.2027 6.24373 25.8623 6.98925 25.8623 7.92115C 25.8623 8.94624 25.0142 9.78495 23.9778 9.78495Z" transform="translate(49.9126 48.1348)" fill="#276591"/>
</g>
<g id="Vector_29">
<path d="M 0.905678 28.6186C -1.16731 23.5864 0.0576359 16.6903 7.3131 10.633C 8.16114 9.88744 9.00918 9.23511 9.95145 8.67597C 9.48031 6.90536 8.63227 4.10967 6.84196 3.64372C 4.48629 2.8982 5.61702 -0.643038 7.97269 0.102482C 10.9879 1.03438 12.4956 4.01645 13.3436 6.99853C 13.4378 6.99853 13.5321 6.90536 13.6263 6.90536C 17.8665 5.50752 21.0702 7.09173 22.6721 10.3534C 24.6508 14.2674 24.3681 22.6545 19.4684 29.271C 17.9607 31.2279 14.9455 28.9914 16.4531 27.0344C 21.1644 20.6975 22.0125 8.02363 14.8512 10.4466C 14.6628 10.5398 14.4743 10.633 14.1917 10.633C 15.6051 19.2064 13.2494 27.0344 10.5168 30.3892C 9.38609 31.7871 7.97269 32.6258 6.55929 32.719C 4.01516 32.9985 1.84795 31.0415 0.905678 28.6186ZM 10.611 12.7763C 8.16114 14.6401 5.80547 17.0631 4.67475 19.952C 2.50753 25.0774 4.76897 29.2709 6.18238 29.1778C 7.50155 29.0846 9.00918 25.9161 9.57454 23.9591C 10.7053 20.2315 11.0822 16.4107 10.611 12.7763Z" transform="translate(30.1113 28.8359)" fill="#276591"/>
</g>
<g id="Vector_30">
<path d="M 20.8712 3.72761L 1.83742 3.72761C -0.612476 3.72761 -0.612476 1.13757e-05 1.83742 1.13757e-05L 20.8712 1.13757e-05C 21.9077 1.13757e-05 22.7558 0.838721 22.7558 1.86381C 22.7558 2.8889 21.9077 3.72761 20.8712 3.72761Z" transform="translate(31.4407 13.8418)" fill="#276591"/>
</g>
<g id="Vector_31">
<path d="M 9.28134 3.72761L 1.83742 3.72761C -0.612473 3.72761 -0.612473 1.13757e-05 1.83742 1.13757e-05L 9.28134 1.13757e-05C 10.3178 1.13757e-05 11.1659 0.838721 11.1659 1.86381C 11.1659 2.8889 10.3178 3.72761 9.28134 3.72761Z" transform="translate(59.0491 13.8418)" fill="#276591"/>
</g>
</g>
</g>
</g>
</svg>

