<svg width="18" height="23" viewBox="0 0 18 23" version="1.1" xmlns="http://www.w3.org/2000/svg" xmlns:xlink="http://www.w3.org/1999/xlink">
<title>location</title>
<desc>Created using Figma</desc>
<g id="Canvas" transform="translate(10303 -15946)">
<g id="location">
<g id="Vector">
<mask id="mask0_outline_ins">
<use xlink:href="#path0_fill" fill="white" transform="translate(-10303 15946)"/>
</mask>
<g mask="url(#mask0_outline_ins)">
<use xlink:href="#path1_stroke_2x" transform="translate(-10303 15946)" fill="#FFFFFF"/>
</g>
</g>
<g id="Ellipse">
<mask id="mask1_outline_ins">
<use xlink:href="#path2_fill" fill="white" transform="translate(-10297.9 15951.1)"/>
</mask>
<g mask="url(#mask1_outline_ins)">
<use xlink:href="#path3_stroke_2x" transform="translate(-10297.9 15951.1)" fill="#FFFFFF"/>
</g>
</g>
</g>
</g>
<defs>
<path id="path0_fill" d="M 9 0C 4.05 0 0 4.17833 0 9.27667C 0 11.1167 0.45 12.995 1.3875 14.8733C 2.1 16.33 3.1125 17.7867 4.3875 19.1667C 6.525 21.505 8.6625 22.885 8.7375 22.9233C 8.8125 22.9617 8.8875 23 8.9625 23C 9.0375 23 9.1125 22.9617 9.1875 22.9233C 9.2625 22.885 11.4 21.505 13.5375 19.1667C 14.8125 17.7867 15.825 16.33 16.5375 14.8733C 17.55 13.0333 18 11.155 18 9.27667C 18 4.17833 13.95 0 9 0Z"/>
<path id="path1_stroke_2x" d="M 1.3875 14.8733L 2.28583 14.4339L 2.28224 14.4268L 1.3875 14.8733ZM 4.3875 19.1667L 5.1256 18.492L 5.122 18.4881L 4.3875 19.1667ZM 13.5375 19.1667L 12.803 18.488L 12.7994 18.492L 13.5375 19.1667ZM 16.5375 14.8733L 15.6614 14.3912L 15.6498 14.4123L 15.6392 14.4339L 16.5375 14.8733ZM 9 -1C 3.46913 -1 -1 3.65508 -1 9.27667L 1 9.27667C 1 4.70159 4.63087 1 9 1L 9 -1ZM -1 9.27667C -1 11.2845 -0.507992 13.3149 0.492756 15.3199L 2.28224 14.4268C 1.40799 12.6751 1 10.9488 1 9.27667L -1 9.27667ZM 0.489202 15.3127C 1.24949 16.8671 2.32043 18.403 3.653 19.8453L 5.122 18.4881C 3.90457 17.1704 2.95052 15.7929 2.2858 14.4339L 0.489202 15.3127ZM 3.64941 19.8414C 4.76247 21.059 5.873 22.0247 6.71518 22.6915C 7.13693 23.0254 7.49361 23.2862 7.75269 23.4678C 7.88217 23.5586 7.9882 23.6303 8.0667 23.682C 8.11634 23.7147 8.21218 23.7779 8.28239 23.8138L 9.19261 22.0329C 9.24407 22.0592 9.25671 22.0709 9.16675 22.0117C 9.10565 21.9714 9.01568 21.9107 8.90082 21.8302C 8.67123 21.6692 8.34588 21.4316 7.95669 21.1235C 7.177 20.5062 6.15003 19.6127 5.12559 18.492L 3.64941 19.8414ZM 8.28239 23.8138C 8.29755 23.8215 8.59967 24 8.9625 24L 8.9625 22C 9.09246 22 9.18264 22.0326 9.20793 22.0423C 9.22272 22.048 9.23007 22.0517 9.22587 22.0497C 9.22065 22.0472 9.21337 22.0435 9.19261 22.0329L 8.28239 23.8138ZM 8.9625 24C 9.32533 24 9.62746 23.8215 9.64261 23.8138L 8.73239 22.0329C 8.71163 22.0435 8.70435 22.0472 8.69913 22.0497C 8.69493 22.0517 8.70228 22.048 8.71707 22.0423C 8.74236 22.0326 8.83254 22 8.9625 22L 8.9625 24ZM 9.64261 23.8138C 9.71282 23.7779 9.80866 23.7147 9.8583 23.682C 9.9368 23.6303 10.0428 23.5586 10.1723 23.4678C 10.4314 23.2862 10.7881 23.0254 11.2098 22.6915C 12.052 22.0247 13.1625 21.059 14.2756 19.8414L 12.7994 18.492C 11.775 19.6127 10.748 20.5062 9.9683 21.1235C 9.57912 21.4316 9.25377 21.6692 9.02418 21.8302C 8.90932 21.9107 8.81935 21.9714 8.75825 22.0117C 8.66829 22.0709 8.68093 22.0592 8.73239 22.0329L 9.64261 23.8138ZM 14.272 19.8453C 15.6046 18.403 16.6755 16.8671 17.4358 15.3127L 15.6392 14.4339C 14.9745 15.7929 14.0204 17.1704 12.803 18.4881L 14.272 19.8453ZM 17.4136 15.3554C 18.5081 13.3665 19 11.3221 19 9.27667L 17 9.27667C 17 10.9879 16.5919 12.7002 15.6614 14.3912L 17.4136 15.3554ZM 19 9.27667C 19 3.65508 14.5309 -1 9 -1L 9 1C 13.3691 1 17 4.70159 17 9.27667L 19 9.27667Z"/>
<path id="path2_fill" d="M 7.71429 3.83333C 7.71429 5.95042 5.98738 7.66667 3.85714 7.66667C 1.7269 7.66667 0 5.95042 0 3.83333C 0 1.71624 1.7269 0 3.85714 0C 5.98738 0 7.71429 1.71624 7.71429 3.83333Z"/>
<path id="path3_stroke_2x" d="M 6.71429 3.83333C 6.71429 5.39231 5.44095 6.66667 3.85714 6.66667L 3.85714 8.66667C 6.53382 8.66667 8.71429 6.50854 8.71429 3.83333L 6.71429 3.83333ZM 3.85714 6.66667C 2.27334 6.66667 1 5.39231 1 3.83333L -1 3.83333C -1 6.50854 1.18046 8.66667 3.85714 8.66667L 3.85714 6.66667ZM 1 3.83333C 1 2.27436 2.27334 1 3.85714 1L 3.85714 -1C 1.18046 -1 -1 1.15813 -1 3.83333L 1 3.83333ZM 3.85714 1C 5.44095 1 6.71429 2.27436 6.71429 3.83333L 8.71429 3.83333C 8.71429 1.15813 6.53382 -1 3.85714 -1L 3.85714 1Z"/>
</defs>
</svg>
