<svg width="110" height="110" viewBox="0 0 110 110" version="1.1" xmlns="http://www.w3.org/2000/svg" xmlns:xlink="http://www.w3.org/1999/xlink">
<g id="Canvas" fill="none">
<g id="MAP">
<g id="Ellipse" filter="url(#filter0_d)">
<circle cx="45" cy="45" r="45" transform="translate(10 8)" fill="white"/>
<circle cx="45" cy="45" r="43.5" stroke-width="3" transform="translate(10 8)" stroke="url(#paint0_linear)"/>
</g>
<g id="Group">
<g id="Vector">
<path d="M 5.37716 10.5585C 8.33218 10.5585 10.7543 8.18049 10.7543 5.27927C 10.7543 2.37805 8.33218 0 5.37716 0C 2.42215 0 7.3918e-07 2.37805 7.3918e-07 5.27927C 7.3918e-07 8.22805 2.42215 10.5585 5.37716 10.5585ZM 5.37716 2.1878C 7.12111 2.1878 8.57439 3.61463 8.57439 5.32683C 8.57439 7.03902 7.12111 8.46585 5.37716 8.46585C 3.63322 8.46585 2.17993 7.03902 2.17993 5.32683C 2.17993 3.56707 3.58478 2.1878 5.37716 2.1878Z" transform="translate(49.647 38.3711)" fill="#0899E8"/>
</g>
<g id="Vector_2">
<path d="M 25.1419 39L 40.9343 39C 41.5156 39 42 38.5244 42 37.9537C 42 37.7159 41.9031 37.4781 41.7578 37.2878L 35.3633 25.8732C 35.1696 25.5402 34.8305 25.35 34.3945 25.35L 27.564 25.35C 30.5675 21.0219 33.5709 15.7902 33.5709 12.3659C 33.5709 5.56463 27.9516 0 20.9758 0C 14 0 8.42907 5.56463 8.42907 12.3659C 8.42907 15.7427 11.481 21.0219 14.436 25.35L 7.60554 25.35C 7.21799 25.35 6.87889 25.5402 6.68512 25.8732L 0.145329 37.4305C -0.0484429 37.7634 -0.0484429 38.1439 0.145329 38.4768C 0.387543 38.8098 0.726644 39 1.11419 39L 25.1419 39ZM 26.8858 36.8598L 28.8235 33.1976L 37.0588 33.1976L 39.0934 36.8598L 26.8858 36.8598ZM 10.609 12.3659C 10.609 6.75366 15.2595 2.14024 21.0242 2.14024C 26.7405 2.14024 31.4394 6.7061 31.4394 12.3659C 31.4394 15.4098 28.1453 20.8317 24.9481 25.35C 24.4152 26.0634 23.8824 26.7768 23.3979 27.4902C 22.526 28.6317 21.7024 29.678 21.0242 30.5341C 20.346 29.678 19.5225 28.6793 18.6505 27.4902C 18.263 26.9671 17.8754 26.4915 17.4879 25.9207L 17.4394 25.8256C 17.3426 25.6829 17.2457 25.5402 17.1003 25.3976C 13.9031 20.8317 10.609 15.4098 10.609 12.3659ZM 8.23529 27.4427L 14.5813 27.4427L 8.62284 36.8598L 2.95502 36.8598L 8.23529 27.4427ZM 16.6159 28.2988C 18.5052 30.8195 20.0554 32.6268 20.2007 32.8646C 20.3945 33.1024 20.6851 33.2451 21.0242 33.2451C 21.3633 33.2451 21.654 33.1024 21.8478 32.8646C 22.0415 32.6268 23.8824 30.439 26.0623 27.4902L 33.8132 27.4902L 35.8478 31.1524L 28.1938 31.1524C 27.8062 31.1524 27.4187 31.3902 27.2249 31.7232L 24.4637 36.9073L 11.1419 36.9073L 16.6159 28.2988Z" transform="translate(34 31)" fill="#0899E8"/>
</g>
</g>
</g>
</g>
<defs>
<filter id="filter0_d" x="0" y="0" width="110" height="110" filterUnits="userSpaceOnUse" color-interpolation-filters="sRGB">
<feFlood flood-opacity="0" result="BackgroundImageFix"/>
<feColorMatrix in="SourceAlpha" type="matrix" values="0 0 0 0 0 0 0 0 0 0 0 0 0 0 0 0 0 0 255 0"/>
<feOffset dy="2"/>
<feGaussianBlur stdDeviation="5"/>
<feColorMatrix type="matrix" values="0 0 0 0 0 0 0 0 0 0 0 0 0 0 0 0 0 0 0.2 0"/>
<feBlend mode="normal" in2="BackgroundImageFix" result="effect1_dropShadow"/>
<feBlend mode="normal" in="SourceGraphic" in2="effect1_dropShadow" result="shape"/>
</filter>

<linearGradient id="paint0_linear" x2="1" gradientUnits="userSpaceOnUse" gradientTransform="matrix(90 -4.17468e-07 -9.24642e-07 1367.47 4.62321e-07 -637.815)">
<stop stop-color="#089AE8"/>
<stop offset="1" stop-color="#2DD4C4"/>
</linearGradient>

</defs>
</svg>

