<svg width="14" height="19" viewBox="0 0 14 19" version="1.1" xmlns="http://www.w3.org/2000/svg" xmlns:xlink="http://www.w3.org/1999/xlink">
<title>point</title>
<desc>Created using Figma</desc>
<g id="Canvas" transform="translate(9465 -14093)">
<g id="point">
<use xlink:href="#path0_fill" transform="translate(-9465 14093)" fill="#FCC65D"/>
</g>
</g>
<defs>
<path id="path0_fill" fill-rule="evenodd" d="M 0 7.25977C 0 3.26953 3.15039 0 7 0C 10.8496 0 14 3.26953 14 7.25977C 14 8.73047 13.6504 10.2002 12.8623 11.6396C 12.3086 12.7803 11.5205 13.9199 10.5293 15C 9.41113 16.2305 8.29395 17.5732 7.66406 18.3311C 7.35645 18.7002 7.16504 18.9307 7.14551 18.9404C 7.08789 18.9697 7.0293 19 6.9707 19C 6.91504 19 6.85938 18.9727 6.80371 18.9443L 6.7959 18.9404C 6.77637 18.9307 6.58496 18.7002 6.27734 18.3311C 5.64746 17.5732 4.53027 16.2305 3.41211 15C 2.4209 13.9199 1.63379 12.7803 1.0791 11.6396C 0.349609 10.1699 0 8.7002 0 7.25977ZM 7 10C 8.65723 10 10 8.65723 10 7C 10 5.34277 8.65723 4 7 4C 5.34277 4 4 5.34277 4 7C 4 8.65723 5.34277 10 7 10Z"/>
</defs>
</svg>
