<svg width="36" height="36" viewBox="0 0 36 36" version="1.1" xmlns="http://www.w3.org/2000/svg" xmlns:xlink="http://www.w3.org/1999/xlink">
<g id="Canvas" fill="none">
<g id="icons8-&#209;&#130;&#208;&#181;&#208;&#187;&#208;&#181;&#208;&#179;&#209;&#128;&#208;&#176;&#208;&#188;&#208;&#188;&#208;&#176;-app">
<g id="Vector">
<path d="M 18 36C 27.9411 36 36 27.9411 36 18C 36 8.05887 27.9411 0 18 0C 8.05887 0 0 8.05887 0 18C 0 27.9411 8.05887 36 18 36Z" fill="url(#paint0_linear)"/>
</g>
<g id="Vector_2">
<path d="M 21.7219 0.673718L 18.2866 18.2165C 18.2866 18.2165 17.806 19.4333 16.4848 18.8492L 8.55675 12.6932L 5.67405 11.282L 0.821247 9.62782C 0.821247 9.62782 0.0760469 9.36052 0.00404689 8.77642C -0.0679531 8.19232 0.844647 7.87642 0.844647 7.87642L 20.137 0.212019C 20.1361 0.211119 21.7219 -0.494482 21.7219 0.673718Z" transform="translate(5.43555 9.05664)" fill="white"/>
</g>
<g id="Vector_3">
<path d="M 2.2743 14.4157C 2.2743 14.4157 2.043 14.3941 1.7541 13.4689C 1.4661 12.5446 3.70789e-07 7.6783 3.70789e-07 7.6783L 11.6523 0.184C 11.6523 0.184 12.3246 -0.23 12.3012 0.184C 12.3012 0.184 12.4209 0.2569 12.0609 0.598C 11.7009 0.9391 2.907 8.9437 2.907 8.9437" transform="translate(11.1084 12.6582)" fill="#D2E5F1"/>
</g>
<g id="Vector_4">
<path d="M 3.6486 2.4129L 0.513 5.3082C 0.513 5.3082 0.2682 5.4963 2.60925e-07 5.3784L 0.6003 3.15857e-07" transform="translate(13.3838 21.6973)" fill="#B5CFE4"/>
</g>
</g>
</g>
<defs>

<linearGradient id="paint0_linear" x2="1" gradientUnits="userSpaceOnUse" gradientTransform="matrix(0 35.8686 35.8686 0 0.0657 0)">
<stop stop-color="#42BCE8"/>
<stop offset="1" stop-color="#23A7DC"/>
</linearGradient>

</defs>
</svg>

