<svg width="42" height="42" viewBox="0 0 42 42" version="1.1" xmlns="http://www.w3.org/2000/svg" xmlns:xlink="http://www.w3.org/1999/xlink">
<g id="Canvas" fill="none">
<g id="icons8-whatsapp">
<g id="surface1">
<g id="Vector">
<path fill-rule="evenodd" clip-rule="evenodd" d="M -0.533802 39.5091C -0.722064 39.3184 -0.794232 39.0417 -0.723109 38.7833L 1.94947 29.0734C 0.283901 26.0963 -0.586288 22.7443 -0.586288 19.3162L -0.586288 19.316C -0.582138 8.24882 8.46138 -0.75 19.5736 -0.75L 19.5742 -0.75C 24.9626 -0.745873 30.0243 1.34379 33.8307 5.13338L 33.8309 5.13366C 37.6332 8.92325 39.7337 13.9683 39.7295 19.3287L 38.9795 19.3282L 39.7295 19.3284C 39.7295 19.3285 39.7295 19.3286 39.7295 19.3287C 39.7252 30.3998 30.6777 39.3944 19.5736 39.3944C 19.9878 39.3944 20.3236 39.0586 20.3236 38.6444C 20.3236 38.6396 20.3236 38.6349 20.3235 38.6302C 30.671 38.2365 38.9756 29.732 38.9795 19.3282M 19.5718 38.6444L 19.5656 38.6444C 16.3153 38.6444 13.1249 37.8334 10.2899 36.295L 0.838139 38.7634L 0.723109 39.1813L 0 38.9823L -0.189515 38.2566L 0.22988 38.1471L 2.75516 28.9724C 1.05415 26.0425 0.163712 22.7191 0.163712 19.3162C 0.167705 8.66627 8.87242 0 19.5736 0C 24.7645 0.0039751 29.6359 2.0155 33.3015 5.66488M 10.1958 37.0947C 10.1076 37.0485 10.0198 37.0017 9.9322 36.9542L 10.2899 36.295L 10.4794 37.0206L 10.1958 37.0947ZM 10.1958 37.0947C 13.0744 38.6017 16.291 39.3944 19.5656 39.3944L 19.5718 39.3944M 10.1958 37.0947L 0.189515 39.708C -0.0697967 39.7757 -0.345539 39.6999 -0.533802 39.5091" transform="translate(1.50879 1.50977)" fill="white"/>
<path fill-rule="evenodd" clip-rule="evenodd" d="M -0.533802 39.5091C -0.722064 39.3184 -0.794232 39.0417 -0.723109 38.7833L 1.94947 29.0734C 0.283901 26.0963 -0.586288 22.7443 -0.586288 19.3162L -0.586288 19.316C -0.582138 8.24882 8.46138 -0.75 19.5736 -0.75L 19.5742 -0.75C 24.9626 -0.745873 30.0243 1.34379 33.8307 5.13338L 33.8309 5.13366C 37.6332 8.92325 39.7337 13.9683 39.7295 19.3287L 38.9795 19.3282L 39.7295 19.3284C 39.7295 19.3285 39.7295 19.3286 39.7295 19.3287C 39.7252 30.3998 30.6777 39.3944 19.5736 39.3944C 19.9878 39.3944 20.3236 39.0586 20.3236 38.6444C 20.3236 38.6396 20.3236 38.6349 20.3235 38.6302C 30.671 38.2365 38.9756 29.732 38.9795 19.3282M 19.5718 38.6444L 19.5656 38.6444C 16.3153 38.6444 13.1249 37.8334 10.2899 36.295L 0.838139 38.7634L 0.723109 39.1813L 0 38.9823L -0.189515 38.2566L 0.22988 38.1471L 2.75516 28.9724C 1.05415 26.0425 0.163712 22.7191 0.163712 19.3162C 0.167705 8.66627 8.87242 0 19.5736 0C 24.7645 0.0039751 29.6359 2.0155 33.3015 5.66488M 10.1958 37.0947C 10.1076 37.0485 10.0198 37.0017 9.9322 36.9542L 10.2899 36.295L 10.4794 37.0206L 10.1958 37.0947ZM 10.1958 37.0947C 13.0744 38.6017 16.291 39.3944 19.5656 39.3944L 19.5718 39.3944M 10.1958 37.0947L 0.189515 39.708C -0.0697967 39.7757 -0.345539 39.6999 -0.533802 39.5091" stroke-width="1.5" stroke-miterlimit="8" stroke-linejoin="round" transform="translate(1.50879 1.50977)" stroke="#E8E8E8"/>
</g>
<g id="Vector_2">
<path d="M 0.509364 40C 0.373602 40 0.245826 39.9443 0.146002 39.8489C 0.0182264 39.7178 -0.0296895 39.5309 0.0182264 39.356L 2.71349 29.5488C 1.04442 26.5911 0.161974 23.232 0.161974 19.8251C 0.165967 8.89286 9.10227 0 20.083 0C 25.4056 0.0039751 30.4088 2.06718 34.1702 5.81594C 37.9316 9.56072 40.004 14.5418 40 19.837C 39.996 30.7692 31.0597 39.6621 20.083 39.6621C 16.8207 39.6621 13.5984 38.863 10.7354 37.3445L 0.641132 39.9801C 0.597209 39.9921 0.553286 40 0.509364 40Z" transform="translate(1 1)" fill="white"/>
</g>
<g id="Vector_3">
<path d="M 27.5436 4.70682C 24.497 1.67362 20.4481 2.54423e-07 16.1397 2.54423e-07C 7.24328 2.54423e-07 0.00399248 7.19936 -2.55551e-07 16.0525C -2.55551e-07 19.0857 0.854499 22.0394 2.46767 24.5955L 2.85099 25.2037L 1.22185 31.127L 7.32713 29.5329L 7.91809 29.8827C 10.3937 31.3457 13.2328 32.1209 16.1277 32.1209L 16.1357 32.1209C 25.024 32.1209 32.2593 24.9175 32.2633 16.0644C 32.2673 11.775 30.5903 7.74001 27.5436 4.70682Z" transform="translate(4.94727 4.77148)" fill="#40C351"/>
</g>
<g id="Vector_4">
<path fill-rule="evenodd" clip-rule="evenodd" d="M 5.01519 0.84675C 4.65183 0.039753 4.2685 0.0238521 3.92111 0.0119268C 3.63761 4.62525e-07 3.31418 -2.54423e-07 2.99075 -2.54423e-07C 2.67131 -2.54423e-07 2.14423 0.11926 1.70101 0.604253C 1.2538 1.08527 2.55551e-07 2.25402 2.55551e-07 4.63129C 2.55551e-07 7.00457 1.74094 9.30233 1.98052 9.62433C 2.22409 9.94236 5.33862 14.9752 10.266 16.9111C 14.3628 18.5172 15.1973 18.1992 16.0837 18.1197C 16.9742 18.0362 18.9547 16.9509 19.358 15.8219C 19.7613 14.6969 19.7613 13.7309 19.6415 13.5281C 19.5217 13.3254 19.1983 13.2061 18.7111 12.9636C 18.228 12.7211 15.8442 11.5564 15.397 11.3934C 14.9537 11.2343 14.6303 11.1548 14.3069 11.6359C 13.9834 12.1169 13.0531 13.2061 12.7696 13.5281C 12.4861 13.8501 12.2066 13.8899 11.7194 13.6514C 11.2363 13.4089 9.67501 12.9 7.82226 11.2542C 6.38079 9.97416 5.4065 8.39594 5.123 7.91095C 4.8395 7.42993 5.09106 7.16756 5.33463 6.92506C 5.55424 6.7104 5.82177 6.36056 6.06535 6.07831C 6.30493 5.79606 6.38479 5.5973 6.5485 5.27529C 6.70822 4.95329 6.62836 4.67104 6.50857 4.42854C 6.38878 4.18605 5.44643 1.80083 5.01519 0.84675Z" transform="translate(11.2158 11.9043)" fill="white"/>
</g>
</g>
</g>
</g>
</svg>

