<svg width="50" height="50" viewBox="0 0 50 50" version="1.1" xmlns="http://www.w3.org/2000/svg" xmlns:xlink="http://www.w3.org/1999/xlink">
<title>Group 2</title>
<desc>Created using Figma</desc>
<g id="Canvas" transform="translate(11463 -15673)">
<g id="Group 2">
<g id="Ellipse">
<mask id="mask0_outline_ins">
<use xlink:href="#path0_fill" fill="white" transform="translate(-11463 15673)"/>
</mask>
<g mask="url(#mask0_outline_ins)">
<use xlink:href="#path1_stroke_2x" transform="translate(-11463 15673)" fill="#FFFFFF"/>
</g>
</g>
<g id="Group">
<g id="Compound Path">
<use xlink:href="#path2_fill" transform="translate(-11448 15682)" fill="#FFFFFF"/>
<use xlink:href="#path3_stroke" transform="translate(-11448 15682)" fill="#FFFFFF"/>
</g>
<g id="Path">
<use xlink:href="#path4_fill" transform="translate(-11438.7 15700.4)" fill="#FFFFFF"/>
<use xlink:href="#path5_stroke" transform="translate(-11438.7 15700.4)" fill="#FFFFFF"/>
</g>
</g>
</g>
</g>
<defs>
<path id="path0_fill" d="M 50 25C 50 38.8071 38.8071 50 25 50C 11.1929 50 0 38.8071 0 25C 0 11.1929 11.1929 0 25 0C 38.8071 0 50 11.1929 50 25Z"/>
<path id="path1_stroke_2x" d="M 48 25C 48 37.7025 37.7025 48 25 48L 25 52C 39.9117 52 52 39.9117 52 25L 48 25ZM 25 48C 12.2975 48 2 37.7025 2 25L -2 25C -2 39.9117 10.0883 52 25 52L 25 48ZM 2 25C 2 12.2975 12.2975 2 25 2L 25 -2C 10.0883 -2 -2 10.0883 -2 25L 2 25ZM 25 2C 37.7025 2 48 12.2975 48 25L 52 25C 52 10.0883 39.9117 -2 25 -2L 25 2Z"/>
<path id="path2_fill" d="M 10 0C 9.0898 0.00466769 8.18941 0.194547 7.35022 0.558796C 6.51104 0.923045 5.74951 1.45453 5.1091 2.12291C 4.4687 2.79128 3.96196 3.58346 3.61783 4.4542C 3.2737 5.32495 3.09892 6.25721 3.10346 7.19775L 3.10346 11.2242L 0.689671 11.2242C 0.506763 11.2242 0.331347 11.2993 0.202012 11.4329C 0.0726766 11.5666 1.67062e-05 11.7479 1.67062e-05 11.9369L 1.67062e-05 26.1898C -0.000877768 26.3227 0.0341628 26.4531 0.101185 26.5664C 0.168207 26.6797 0.264544 26.7715 0.379327 26.8312L 7.62069 30.4301C 8.36748 30.8051 9.18694 31 10.0172 31C 10.8475 31 11.667 30.8051 12.4138 30.4301L 19.6207 26.8312C 19.7355 26.7715 19.8318 26.6797 19.8988 26.5664C 19.9658 26.4531 20.0009 26.3227 20 26.1898L 20 11.9369C 20 11.7479 19.9273 11.5666 19.798 11.4329C 19.6687 11.2993 19.4932 11.2242 19.3103 11.2242L 16.8965 11.2242L 16.8965 7.19775C 16.9011 6.25721 16.7263 5.32495 16.3822 4.4542C 16.038 3.58346 15.5313 2.79128 14.8909 2.12291C 14.2505 1.45453 13.489 0.923045 12.6498 0.558796C 11.8106 0.194547 10.9102 0.00466769 10 0ZM 4.48277 7.19775C 4.48277 5.6857 5.06405 4.23558 6.09873 3.1664C 7.13341 2.09722 8.53674 1.49656 10 1.49656C 11.4633 1.49656 12.8666 2.09722 13.9013 3.1664C 14.936 4.23558 15.5172 5.6857 15.5172 7.19775L 15.5172 11.2242L 4.48277 11.2242L 4.48277 7.19775ZM 18.6207 25.7266L 11.7931 29.1473C 11.2343 29.4278 10.6212 29.5736 10 29.5736C 9.37878 29.5736 8.76567 29.4278 8.2069 29.1473L 1.37932 25.7623L 1.37932 12.6495L 18.6207 12.6495L 18.6207 25.7266Z"/>
<path id="path3_stroke" d="M 3.10346 7.19775L 3.35346 7.19775L 3.35346 7.19655L 3.10346 7.19775ZM 3.10346 11.2242L 3.10346 11.4742L 3.35346 11.4742L 3.35346 11.2242L 3.10346 11.2242ZM 0.202012 11.4329L 0.0223605 11.2591L 0.202012 11.4329ZM 1.67062e-05 26.1898L 0.250017 26.1915L 0.250017 26.1898L 1.67062e-05 26.1898ZM 0.379327 26.8312L 0.263851 27.053L 0.268063 27.0551L 0.379327 26.8312ZM 7.62069 30.4301L 7.73289 30.2067L 7.73196 30.2062L 7.62069 30.4301ZM 10.0172 31L 10.0172 30.75L 10.0172 31ZM 12.4138 30.4301L 12.3021 30.2064L 12.3016 30.2067L 12.4138 30.4301ZM 19.6207 26.8312L 19.7324 27.0549L 19.7361 27.053L 19.6207 26.8312ZM 20 26.1898L 19.75 26.1898L 19.75 26.1915L 20 26.1898ZM 16.8965 11.2242L 16.6465 11.2242L 16.6465 11.4742L 16.8965 11.4742L 16.8965 11.2242ZM 16.8965 7.19775L 16.6465 7.19655L 16.6465 7.19775L 16.8965 7.19775ZM 10 1.49656L 10 1.24656L 10 1.49656ZM 13.9013 3.1664L 13.7216 3.34026L 13.9013 3.1664ZM 15.5172 11.2242L 15.5172 11.4742L 15.7672 11.4742L 15.7672 11.2242L 15.5172 11.2242ZM 4.48277 11.2242L 4.23277 11.2242L 4.23277 11.4742L 4.48277 11.4742L 4.48277 11.2242ZM 18.6207 25.7266L 18.7327 25.9501L 18.8707 25.881L 18.8707 25.7266L 18.6207 25.7266ZM 11.7931 29.1473L 11.6811 28.9238L 11.6809 28.9239L 11.7931 29.1473ZM 8.2069 29.1473L 8.31906 28.9239L 8.31795 28.9233L 8.2069 29.1473ZM 1.37932 25.7623L 1.12932 25.7623L 1.12932 25.9173L 1.26828 25.9862L 1.37932 25.7623ZM 1.37932 12.6495L 1.37932 12.3995L 1.12932 12.3995L 1.12932 12.6495L 1.37932 12.6495ZM 18.6207 12.6495L 18.8707 12.6495L 18.8707 12.3995L 18.6207 12.3995L 18.6207 12.6495ZM 9.99872 -0.249997C 9.05453 -0.245155 8.12072 -0.0481751 7.25068 0.329467L 7.44976 0.788125C 8.25809 0.437269 9.12507 0.25449 10.0013 0.249997L 9.99872 -0.249997ZM 7.25068 0.329467C 6.38066 0.707101 5.59169 1.25788 4.92859 1.94995L 5.28961 2.29587C 5.90732 1.65118 6.64142 1.13899 7.44976 0.788125L 7.25068 0.329467ZM 4.92859 1.94995C 4.2655 2.642 3.74123 3.46179 3.38533 4.36231L 3.85033 4.54609C 4.18269 3.70513 4.67189 2.94057 5.28961 2.29587L 4.92859 1.94995ZM 3.38533 4.36231C 3.02944 5.26283 2.84877 6.2267 2.85346 7.19896L 3.35346 7.19655C 3.34907 6.28771 3.51797 5.38706 3.85033 4.54609L 3.38533 4.36231ZM 2.85346 7.19775L 2.85346 11.2242L 3.35346 11.2242L 3.35346 7.19775L 2.85346 7.19775ZM 3.10346 10.9742L 0.689671 10.9742L 0.689671 11.4742L 3.10346 11.4742L 3.10346 10.9742ZM 0.689671 10.9742C 0.437764 10.9742 0.197901 11.0777 0.0223605 11.2591L 0.381663 11.6068C 0.464793 11.5209 0.575762 11.4742 0.689671 11.4742L 0.689671 10.9742ZM 0.0223605 11.2591C -0.15291 11.4402 -0.249983 11.6842 -0.249983 11.9369L 0.250017 11.9369C 0.250017 11.8116 0.298263 11.693 0.381663 11.6068L 0.0223605 11.2591ZM -0.249983 11.9369L -0.249983 26.1898L 0.250017 26.1898L 0.250017 11.9369L -0.249983 11.9369ZM -0.249978 26.1882C -0.251175 26.3659 -0.204316 26.541 -0.114001 26.6937L 0.316371 26.4391C 0.272642 26.3652 0.249419 26.2794 0.250011 26.1915L -0.249978 26.1882ZM -0.114001 26.6937C -0.0236493 26.8464 0.106917 26.9712 0.263872 27.053L 0.494782 26.6095C 0.422171 26.5717 0.360063 26.513 0.316371 26.4391L -0.114001 26.6937ZM 0.268063 27.0551L 7.50943 30.654L 7.73196 30.2062L 0.49059 26.6073L 0.268063 27.0551ZM 7.5085 30.6535C 8.28986 31.0459 9.14772 31.25 10.0172 31.25L 10.0172 30.75C 9.22616 30.75 8.44509 30.5644 7.73289 30.2067L 7.5085 30.6535ZM 10.0172 31.25C 10.8868 31.25 11.7446 31.0459 12.526 30.6535L 12.3016 30.2067C 11.5894 30.5644 10.8083 30.75 10.0172 30.75L 10.0172 31.25ZM 12.5255 30.6538L 19.7324 27.0549L 19.509 26.6076L 12.3021 30.2064L 12.5255 30.6538ZM 19.7361 27.053C 19.8931 26.9712 20.0237 26.8464 20.114 26.6937L 19.6836 26.4391C 19.6399 26.513 19.5778 26.5717 19.5052 26.6095L 19.7361 27.053ZM 20.114 26.6937C 20.2043 26.541 20.2512 26.3659 20.25 26.1882L 19.75 26.1915C 19.7506 26.2794 19.7274 26.3652 19.6836 26.4391L 20.114 26.6937ZM 20.25 26.1898L 20.25 11.9369L 19.75 11.9369L 19.75 26.1898L 20.25 26.1898ZM 20.25 11.9369C 20.25 11.6842 20.1529 11.4402 19.9776 11.2591L 19.6183 11.6068C 19.7017 11.693 19.75 11.8116 19.75 11.9369L 20.25 11.9369ZM 19.9776 11.2591C 19.8021 11.0777 19.5622 10.9742 19.3103 10.9742L 19.3103 11.4742C 19.4242 11.4742 19.5352 11.5209 19.6183 11.6068L 19.9776 11.2591ZM 19.3103 10.9742L 16.8965 10.9742L 16.8965 11.4742L 19.3103 11.4742L 19.3103 10.9742ZM 17.1465 11.2242L 17.1465 7.19775L 16.6465 7.19775L 16.6465 11.2242L 17.1465 11.2242ZM 17.1465 7.19896C 17.1512 6.2267 16.9706 5.26283 16.6147 4.36231L 16.1497 4.54609C 16.482 5.38706 16.6509 6.28771 16.6465 7.19655L 17.1465 7.19896ZM 16.6147 4.36231C 16.2588 3.46179 15.7345 2.642 15.0714 1.94995L 14.7104 2.29587C 15.3281 2.94057 15.8173 3.70513 16.1497 4.54609L 16.6147 4.36231ZM 15.0714 1.94995C 14.4083 1.25788 13.6193 0.707101 12.7493 0.329467L 12.5502 0.788125C 13.3586 1.13899 14.0927 1.65118 14.7104 2.29587L 15.0714 1.94995ZM 12.7493 0.329467C 11.8793 -0.0481751 10.9455 -0.245155 10.0013 -0.249997L 9.99872 0.249997C 10.8749 0.25449 11.7419 0.437269 12.5502 0.788125L 12.7493 0.329467ZM 4.73277 7.19775C 4.73277 5.74941 5.28963 4.36197 6.27838 3.34026L 5.91908 2.99255C 4.83846 4.10919 4.23277 5.622 4.23277 7.19775L 4.73277 7.19775ZM 6.27838 3.34026C 7.26686 2.31882 8.60574 1.74656 10 1.74656L 10 1.24656C 8.46774 1.24656 6.99996 1.87562 5.91908 2.99255L 6.27838 3.34026ZM 10 1.74656C 11.3943 1.74656 12.7331 2.31882 13.7216 3.34026L 14.0809 2.99255C 13 1.87562 11.5323 1.24656 10 1.24656L 10 1.74656ZM 13.7216 3.34026C 14.7104 4.36197 15.2672 5.74941 15.2672 7.19775L 15.7672 7.19775C 15.7672 5.622 15.1615 4.10919 14.0809 2.99255L 13.7216 3.34026ZM 15.2672 7.19775L 15.2672 11.2242L 15.7672 11.2242L 15.7672 7.19775L 15.2672 7.19775ZM 15.5172 10.9742L 4.48277 10.9742L 4.48277 11.4742L 15.5172 11.4742L 15.5172 10.9742ZM 4.73277 11.2242L 4.73277 7.19775L 4.23277 7.19775L 4.23277 11.2242L 4.73277 11.2242ZM 18.5087 25.5031L 11.6811 28.9238L 11.9051 29.3708L 18.7327 25.9501L 18.5087 25.5031ZM 11.6809 28.9239C 11.1567 29.1871 10.582 29.3236 10 29.3236L 10 29.8236C 10.6604 29.8236 11.3119 29.6686 11.9053 29.3708L 11.6809 28.9239ZM 10 29.3236C 9.41799 29.3236 8.84326 29.1871 8.31906 28.9239L 8.09474 29.3708C 8.68808 29.6686 9.33957 29.8236 10 29.8236L 10 29.3236ZM 8.31795 28.9233L 1.49037 25.5383L 1.26828 25.9862L 8.09585 29.3713L 8.31795 28.9233ZM 1.62932 25.7623L 1.62932 12.6495L 1.12932 12.6495L 1.12932 25.7623L 1.62932 25.7623ZM 1.37932 12.8995L 18.6207 12.8995L 18.6207 12.3995L 1.37932 12.3995L 1.37932 12.8995ZM 18.3707 12.6495L 18.3707 25.7266L 18.8707 25.7266L 18.8707 12.6495L 18.3707 12.6495Z"/>
<path id="path4_fill" d="M 0.689654 4.27589C 0.872562 4.27589 1.04798 4.20081 1.17731 4.06716C 1.30665 3.93352 1.37931 3.75225 1.37931 3.56324L 1.37931 0.712649C 1.37931 0.523643 1.30665 0.342377 1.17731 0.208729C 1.04798 0.0750819 0.872562 0 0.689654 0C 0.506746 0 0.33133 0.0750819 0.201994 0.208729C 0.0726592 0.342377 0 0.523643 0 0.712649L 0 3.56324C 0 3.75225 0.0726592 3.93352 0.201994 4.06716C 0.33133 4.20081 0.506746 4.27589 0.689654 4.27589Z"/>
<path id="path5_stroke" d="M 1.17731 4.06716L 0.997662 3.89331L 1.17731 4.06716ZM 0.201994 4.06716L 0.381646 3.89331L 0.201994 4.06716ZM 0.689654 4.52589C 0.94156 4.52589 1.18142 4.42241 1.35696 4.24102L 0.997662 3.89331C 0.914532 3.97921 0.803563 4.02589 0.689654 4.02589L 0.689654 4.52589ZM 1.35696 4.24102C 1.53224 4.0599 1.62931 3.81596 1.62931 3.56324L 1.12931 3.56324C 1.12931 3.68854 1.08106 3.80713 0.997662 3.89331L 1.35696 4.24102ZM 1.62931 3.56324L 1.62931 0.712649L 1.12931 0.712649L 1.12931 3.56324L 1.62931 3.56324ZM 1.62931 0.712649C 1.62931 0.459937 1.53224 0.215989 1.35696 0.0348749L 0.997662 0.382584C 1.08106 0.468765 1.12931 0.587348 1.12931 0.712649L 1.62931 0.712649ZM 1.35696 0.0348749C 1.18142 -0.146518 0.94156 -0.25 0.689654 -0.25L 0.689654 0.25C 0.803563 0.25 0.914532 0.296682 0.997662 0.382584L 1.35696 0.0348749ZM 0.689654 -0.25C 0.437748 -0.25 0.197884 -0.146518 0.0223432 0.0348749L 0.381646 0.382584C 0.464776 0.296682 0.575745 0.25 0.689654 0.25L 0.689654 -0.25ZM 0.0223432 0.0348749C -0.152927 0.215989 -0.25 0.459937 -0.25 0.712649L 0.25 0.712649C 0.25 0.587348 0.298246 0.468765 0.381646 0.382584L 0.0223432 0.0348749ZM -0.25 0.712649L -0.25 3.56324L 0.25 3.56324L 0.25 0.712649L -0.25 0.712649ZM -0.25 3.56324C -0.25 3.81596 -0.152927 4.0599 0.0223432 4.24102L 0.381646 3.89331C 0.298246 3.80713 0.25 3.68854 0.25 3.56324L -0.25 3.56324ZM 0.0223432 4.24102C 0.197884 4.42241 0.437748 4.52589 0.689654 4.52589L 0.689654 4.02589C 0.575745 4.02589 0.464776 3.97921 0.381646 3.89331L 0.0223432 4.24102Z"/>
</defs>
</svg>
