<svg width="50" height="50" viewBox="0 0 50 50" version="1.1" xmlns="http://www.w3.org/2000/svg" xmlns:xlink="http://www.w3.org/1999/xlink">
<title>Group 7</title>
<desc>Created using Figma</desc>
<g id="Canvas" transform="translate(9882 -15545)">
<g id="Group 7">
<g id="Ellipse">
<mask id="mask0_outline_ins">
<use xlink:href="#path0_fill" fill="white" transform="translate(-9882 15545)"/>
</mask>
<g mask="url(#mask0_outline_ins)">
<use xlink:href="#path1_stroke_2x" transform="translate(-9882 15545)" fill="#FFFFFF"/>
</g>
</g>
<g id="Vector">
<use xlink:href="#path2_fill" transform="translate(-9872 15554)" fill="#FFFFFF"/>
<use xlink:href="#path3_stroke" transform="translate(-9872 15554)" fill="#FFFFFF"/>
</g>
</g>
</g>
<defs>
<path id="path0_fill" d="M 50 25C 50 38.8071 38.8071 50 25 50C 11.1929 50 0 38.8071 0 25C 0 11.1929 11.1929 0 25 0C 38.8071 0 50 11.1929 50 25Z"/>
<path id="path1_stroke_2x" d="M 48 25C 48 37.7025 37.7025 48 25 48L 25 52C 39.9117 52 52 39.9117 52 25L 48 25ZM 25 48C 12.2975 48 2 37.7025 2 25L -2 25C -2 39.9117 10.0883 52 25 52L 25 48ZM 2 25C 2 12.2975 12.2975 2 25 2L 25 -2C 10.0883 -2 -2 10.0883 -2 25L 2 25ZM 25 2C 37.7025 2 48 12.2975 48 25L 52 25C 52 10.0883 39.9117 -2 25 -2L 25 2Z"/>
<path id="path2_fill" d="M 8.42932 21.2706L 9.42342 20.1324L 4.71357 15.8491L -1.13623e-07 20.14L 0.994094 21.2782L 3.97265 18.5693L 3.97265 20.2728C 3.97265 21.6815 4.24495 23.0764 4.774 24.3779C 5.30305 25.6794 6.07849 26.862 7.05604 27.8581C 8.0336 28.8542 9.19412 29.6443 10.4714 30.1834C 11.7486 30.7225 13.1175 31 14.5 31C 15.8825 31 17.2514 30.7225 18.5286 30.1834C 19.8059 29.6443 20.9664 28.8542 21.944 27.8581C 22.9215 26.862 23.697 25.6794 24.226 24.3779C 24.755 23.0764 25.0273 21.6815 25.0273 20.2728L 25.0273 18.5655L 28.0059 21.2744L 29 20.1362L 24.2753 15.8491L 19.5654 20.14L 20.5595 21.2782L 23.5381 18.5693L 23.5381 20.2728C 23.5337 22.5828 22.6785 24.8069 21.1416 26.5051C 19.6047 28.2032 17.4983 29.2515 15.2391 29.4426L 15.2391 12.4953L 21.6318 12.4953L 21.6318 10.9778L 15.2391 10.9778L 15.2391 7.41911C 16.131 7.23124 16.9228 6.71286 17.4613 5.96431C 17.9997 5.21576 18.2465 4.29027 18.1538 3.36699C 18.0612 2.44371 17.6357 1.58829 16.9597 0.9663C 16.2836 0.344315 15.4052 8.17261e-08 14.4944 8.17261e-08C 13.5836 8.17261e-08 12.7052 0.344315 12.0292 0.9663C 11.3532 1.58829 10.9277 2.44371 10.835 3.36699C 10.7423 4.29027 10.9891 5.21576 11.5275 5.96431C 12.066 6.71286 12.8578 7.23124 13.7498 7.41911L 13.7498 10.9778L 7.35704 10.9778L 7.35704 12.4953L 13.7498 12.4953L 13.7498 29.4426C 11.4913 29.2497 9.38609 28.2 7.85068 26.5013C 6.31527 24.8025 5.46148 22.5784 5.45821 20.269L 5.45821 18.5655L 8.42932 21.2706ZM 12.3052 3.73525C 12.3074 3.29453 12.4376 2.86435 12.6795 2.499C 12.9214 2.13365 13.2641 1.84949 13.6643 1.68239C 14.0646 1.51529 14.5044 1.47273 14.9283 1.56009C 15.3523 1.64745 15.7413 1.8608 16.0463 2.17323C 16.3514 2.48567 16.5588 2.88317 16.6424 3.31559C 16.7259 3.74801 16.6819 4.19597 16.5159 4.60293C 16.3499 5.0099 16.0693 5.35763 15.7095 5.60225C 15.3498 5.84688 14.9269 5.97743 14.4944 5.97744C 14.2061 5.97694 13.9207 5.91852 13.6546 5.80553C 13.3885 5.69253 13.1469 5.52717 12.9435 5.31891C 12.7402 5.11066 12.5791 4.86359 12.4696 4.59185C 12.3601 4.32011 12.3042 4.02902 12.3052 3.73525Z"/>
<path id="path3_stroke" d="M 8.42932 21.2706L 8.26102 21.4554L 8.44973 21.6273L 8.61761 21.435L 8.42932 21.2706ZM 9.42342 20.1324L 9.61171 20.2969L 9.7729 20.1123L 9.59162 19.9475L 9.42342 20.1324ZM 4.71357 15.8491L 4.88177 15.6642L 4.71349 15.5111L 4.54528 15.6643L 4.71357 15.8491ZM -1.13623e-07 20.14L -0.168293 19.9551L -0.349403 20.12L -0.188292 20.3045L -1.13623e-07 20.14ZM 0.994094 21.2782L 0.805803 21.4426L 0.973595 21.6347L 1.1623 21.4631L 0.994094 21.2782ZM 3.97265 18.5693L 4.22265 18.5693L 4.22265 18.0041L 3.80445 18.3844L 3.97265 18.5693ZM 3.97265 20.2728L 4.22265 20.2728L 3.97265 20.2728ZM 14.5 31L 14.5 30.75L 14.5 31ZM 25.0273 20.2728L 24.7773 20.2728L 25.0273 20.2728ZM 25.0273 18.5655L 25.1956 18.3806L 24.7773 18.0003L 24.7773 18.5655L 25.0273 18.5655ZM 28.0059 21.2744L 27.8377 21.4593L 28.0264 21.6309L 28.1942 21.4388L 28.0059 21.2744ZM 29 20.1362L 29.1883 20.3007L 29.3497 20.1159L 29.168 19.9511L 29 20.1362ZM 24.2753 15.8491L 24.4433 15.664L 24.2749 15.5112L 24.1069 15.6643L 24.2753 15.8491ZM 19.5654 20.14L 19.397 19.9552L 19.2161 20.1201L 19.3771 20.3045L 19.5654 20.14ZM 20.5595 21.2782L 20.3712 21.4426L 20.539 21.6347L 20.7277 21.4631L 20.5595 21.2782ZM 23.5381 18.5693L 23.7881 18.5693L 23.7881 18.0041L 23.3699 18.3844L 23.5381 18.5693ZM 23.5381 20.2728L 23.7881 20.2733L 23.7881 20.2728L 23.5381 20.2728ZM 15.2391 29.4426L 14.9891 29.4426L 14.9891 29.7146L 15.2601 29.6917L 15.2391 29.4426ZM 15.2391 12.4953L 15.2391 12.2453L 14.9891 12.2453L 14.9891 12.4953L 15.2391 12.4953ZM 21.6318 12.4953L 21.6318 12.7453L 21.8818 12.7453L 21.8818 12.4953L 21.6318 12.4953ZM 21.6318 10.9778L 21.8818 10.9778L 21.8818 10.7278L 21.6318 10.7278L 21.6318 10.9778ZM 15.2391 10.9778L 14.9891 10.9778L 14.9891 11.2278L 15.2391 11.2278L 15.2391 10.9778ZM 15.2391 7.41911L 15.1875 7.17448L 14.9891 7.21628L 14.9891 7.41911L 15.2391 7.41911ZM 14.4944 8.17261e-08L 14.4944 -0.25L 14.4944 8.17261e-08ZM 13.7498 7.41911L 13.9998 7.41911L 13.9998 7.21628L 13.8013 7.17448L 13.7498 7.41911ZM 13.7498 10.9778L 13.7498 11.2278L 13.9998 11.2278L 13.9998 10.9778L 13.7498 10.9778ZM 7.35704 10.9778L 7.35704 10.7278L 7.10704 10.7278L 7.10704 10.9778L 7.35704 10.9778ZM 7.35704 12.4953L 7.10704 12.4953L 7.10704 12.7453L 7.35704 12.7453L 7.35704 12.4953ZM 13.7498 12.4953L 13.9998 12.4953L 13.9998 12.2453L 13.7498 12.2453L 13.7498 12.4953ZM 13.7498 29.4426L 13.7285 29.6917L 13.9998 29.7149L 13.9998 29.4426L 13.7498 29.4426ZM 5.45821 20.269L 5.20821 20.269L 5.20821 20.2694L 5.45821 20.269ZM 5.45821 18.5655L 5.62652 18.3807L 5.20821 17.9998L 5.20821 18.5655L 5.45821 18.5655ZM 15.7095 5.60225L 15.569 5.39552L 15.7095 5.60225ZM 14.4944 5.97744L 14.494 6.22744L 14.4944 6.22744L 14.4944 5.97744ZM 8.61761 21.435L 9.61171 20.2969L 9.23513 19.968L 8.24103 21.1061L 8.61761 21.435ZM 9.59162 19.9475L 4.88177 15.6642L 4.54537 16.0341L 9.25522 20.3174L 9.59162 19.9475ZM 4.54528 15.6643L -0.168293 19.9551L 0.168293 20.3249L 4.88186 16.034L 4.54528 15.6643ZM -0.188292 20.3045L 0.805803 21.4426L 1.18239 21.1137L 0.188291 19.9755L -0.188292 20.3045ZM 1.1623 21.4631L 4.14086 18.7543L 3.80445 18.3844L 0.82589 21.0932L 1.1623 21.4631ZM 3.72265 18.5693L 3.72265 20.2728L 4.22265 20.2728L 4.22265 18.5693L 3.72265 18.5693ZM 3.72265 20.2728C 3.72265 21.7137 4.00117 23.1406 4.5424 24.4721L 5.0056 24.2838C 4.48874 23.0123 4.22265 21.6493 4.22265 20.2728L 3.72265 20.2728ZM 4.5424 24.4721C 5.08364 25.8035 5.87707 27.0136 6.87761 28.0332L 7.23447 27.683C 6.2799 26.7103 5.52245 25.5553 5.0056 24.2838L 4.5424 24.4721ZM 6.87761 28.0332C 7.87816 29.0527 9.06624 29.8617 10.3741 30.4138L 10.5686 29.9531C 9.322 29.427 8.18903 28.6556 7.23447 27.683L 6.87761 28.0332ZM 10.3741 30.4138C 11.6821 30.9658 13.084 31.25 14.5 31.25L 14.5 30.75C 13.151 30.75 11.8151 30.4793 10.5686 29.9531L 10.3741 30.4138ZM 14.5 31.25C 15.916 31.25 17.3179 30.9658 18.6259 30.4138L 18.4314 29.9531C 17.1849 30.4793 15.849 30.75 14.5 30.75L 14.5 31.25ZM 18.6259 30.4138C 19.9338 29.8617 21.1218 29.0527 22.1224 28.0332L 21.7655 27.683C 20.811 28.6556 19.678 29.427 18.4314 29.9531L 18.6259 30.4138ZM 22.1224 28.0332C 23.1229 27.0136 23.9164 25.8035 24.4576 24.4721L 23.9944 24.2838C 23.4775 25.5553 22.7201 26.7103 21.7655 27.683L 22.1224 28.0332ZM 24.4576 24.4721C 24.9988 23.1406 25.2773 21.7137 25.2773 20.2728L 24.7773 20.2728C 24.7773 21.6493 24.5113 23.0123 23.9944 24.2838L 24.4576 24.4721ZM 25.2773 20.2728L 25.2773 18.5655L 24.7773 18.5655L 24.7773 20.2728L 25.2773 20.2728ZM 24.8591 18.7505L 27.8377 21.4593L 28.1741 21.0894L 25.1956 18.3806L 24.8591 18.7505ZM 28.1942 21.4388L 29.1883 20.3007L 28.8117 19.9718L 27.8176 21.1099L 28.1942 21.4388ZM 29.168 19.9511L 24.4433 15.664L 24.1073 16.0343L 28.832 20.3214L 29.168 19.9511ZM 24.1069 15.6643L 19.397 19.9552L 19.7338 20.3248L 24.4436 16.0339L 24.1069 15.6643ZM 19.3771 20.3045L 20.3712 21.4426L 20.7478 21.1137L 19.7537 19.9755L 19.3771 20.3045ZM 20.7277 21.4631L 23.7063 18.7543L 23.3699 18.3844L 20.3913 21.0932L 20.7277 21.4631ZM 23.2881 18.5693L 23.2881 20.2728L 23.7881 20.2728L 23.7881 18.5693L 23.2881 18.5693ZM 23.2881 20.2723C 23.2838 22.5211 22.4512 24.6855 20.9562 26.3373L 21.327 26.6728C 22.9057 24.9284 23.7836 22.6445 23.7881 20.2733L 23.2881 20.2723ZM 20.9562 26.3373C 19.4614 27.989 17.4134 29.0078 15.218 29.1935L 15.2601 29.6917C 17.5831 29.4953 19.7481 28.4174 21.327 26.6728L 20.9562 26.3373ZM 15.4891 29.4426L 15.4891 12.4953L 14.9891 12.4953L 14.9891 29.4426L 15.4891 29.4426ZM 15.2391 12.7453L 21.6318 12.7453L 21.6318 12.2453L 15.2391 12.2453L 15.2391 12.7453ZM 21.8818 12.4953L 21.8818 10.9778L 21.3818 10.9778L 21.3818 12.4953L 21.8818 12.4953ZM 21.6318 10.7278L 15.2391 10.7278L 15.2391 11.2278L 21.6318 11.2278L 21.6318 10.7278ZM 15.4891 10.9778L 15.4891 7.41911L 14.9891 7.41911L 14.9891 10.9778L 15.4891 10.9778ZM 15.2906 7.66374C 16.2443 7.46286 17.0898 6.90881 17.6642 6.11029L 17.2583 5.81832C 16.7558 6.51691 16.0177 6.99962 15.1875 7.17448L 15.2906 7.66374ZM 17.6642 6.11029C 18.2385 5.31191 18.5013 4.32555 18.4026 3.34202L 17.9051 3.39196C 17.9917 4.255 17.7609 5.11961 17.2583 5.81832L 17.6642 6.11029ZM 18.4026 3.34202C 18.3039 2.35847 17.8505 1.44625 17.1289 0.782325L 16.7904 1.15028C 17.4208 1.73032 17.8185 2.52894 17.9051 3.39196L 18.4026 3.34202ZM 17.1289 0.782325C 16.4072 0.118285 15.4685 -0.25 14.4944 -0.25L 14.4944 0.25C 15.3419 0.25 16.1601 0.570345 16.7904 1.15028L 17.1289 0.782325ZM 14.4944 -0.25C 13.5203 -0.25 12.5816 0.118285 11.8599 0.782325L 12.1985 1.15028C 12.8288 0.570345 13.6469 0.25 14.4944 0.25L 14.4944 -0.25ZM 11.8599 0.782325C 11.1383 1.44625 10.6849 2.35847 10.5862 3.34202L 11.0837 3.39196C 11.1704 2.52894 11.568 1.73032 12.1985 1.15028L 11.8599 0.782325ZM 10.5862 3.34202C 10.4875 4.32555 10.7503 5.31191 11.3246 6.11029L 11.7305 5.81832C 11.2279 5.11961 10.9971 4.255 11.0837 3.39196L 10.5862 3.34202ZM 11.3246 6.11029C 11.899 6.90881 12.7445 7.46286 13.6982 7.66374L 13.8013 7.17448C 12.9711 6.99962 12.233 6.51691 11.7305 5.81832L 11.3246 6.11029ZM 13.4998 7.41911L 13.4998 10.9778L 13.9998 10.9778L 13.9998 7.41911L 13.4998 7.41911ZM 13.7498 10.7278L 7.35704 10.7278L 7.35704 11.2278L 13.7498 11.2278L 13.7498 10.7278ZM 7.10704 10.9778L 7.10704 12.4953L 7.60704 12.4953L 7.60704 10.9778L 7.10704 10.9778ZM 7.35704 12.7453L 13.7498 12.7453L 13.7498 12.2453L 7.35704 12.2453L 7.35704 12.7453ZM 13.4998 12.4953L 13.4998 29.4426L 13.9998 29.4426L 13.9998 12.4953L 13.4998 12.4953ZM 13.7711 29.1935C 11.5763 29.006 9.52959 27.986 8.03615 26.3336L 7.66521 26.6689C 9.24258 28.4141 11.4062 29.4933 13.7285 29.6917L 13.7711 29.1935ZM 8.03615 26.3336C 6.54259 24.6812 5.71139 22.5169 5.70821 20.2686L 5.20821 20.2694C 5.21157 22.64 6.08796 24.9239 7.66521 26.6689L 8.03615 26.3336ZM 5.70821 20.269L 5.70821 18.5655L 5.20821 18.5655L 5.20821 20.269L 5.70821 20.269ZM 5.28991 18.7504L 8.26102 21.4554L 8.59763 21.0857L 5.62652 18.3807L 5.28991 18.7504ZM 12.5552 3.7365C 12.5571 3.34414 12.6731 2.96154 12.888 2.63701L 12.4711 2.36099C 12.2022 2.76716 12.0576 3.24492 12.0552 3.734L 12.5552 3.7365ZM 12.888 2.63701C 13.1028 2.31253 13.4067 2.06088 13.7607 1.91309L 13.568 1.45169C 13.1216 1.6381 12.74 1.95476 12.4711 2.36099L 12.888 2.63701ZM 13.7607 1.91309C 14.1146 1.76532 14.5033 1.72776 14.8779 1.80495L 14.9788 1.31523C 14.5055 1.21771 14.0145 1.26526 13.568 1.45169L 13.7607 1.91309ZM 14.8779 1.80495C 15.2525 1.88214 15.5969 2.07081 15.8675 2.34789L 16.2252 1.99858C 15.8857 1.6508 15.452 1.41275 14.9788 1.31523L 14.8779 1.80495ZM 15.8675 2.34789C 16.1381 2.62502 16.3225 2.97817 16.3969 3.36303L 16.8878 3.26816C 16.7951 2.78817 16.5647 2.34632 16.2252 1.99858L 15.8675 2.34789ZM 16.3969 3.36303C 16.4713 3.74791 16.4321 4.14656 16.2844 4.5085L 16.7474 4.69736C 16.9318 4.24537 16.9806 3.74812 16.8878 3.26816L 16.3969 3.36303ZM 16.2844 4.5085C 16.1368 4.87039 15.8876 5.17886 15.569 5.39552L 15.8501 5.80899C 16.251 5.5364 16.563 5.1494 16.7474 4.69736L 16.2844 4.5085ZM 15.569 5.39552C 15.2504 5.61213 14.8765 5.72743 14.4944 5.72744L 14.4944 6.22744C 14.9774 6.22743 15.4491 6.08163 15.8501 5.80899L 15.569 5.39552ZM 14.4948 5.72744C 14.2401 5.727 13.9878 5.67538 13.7523 5.57541L 13.5569 6.03564C 13.8537 6.16166 14.1722 6.22688 14.494 6.22744L 14.4948 5.72744ZM 13.7523 5.57541C 13.5169 5.47544 13.3028 5.32901 13.1224 5.14426L 12.7646 5.49357C 12.9909 5.72534 13.2601 5.90962 13.5569 6.03564L 13.7523 5.57541ZM 13.1224 5.14426C 12.942 4.95951 12.7989 4.74007 12.7015 4.49838L 12.2377 4.68531C 12.3594 4.98711 12.5384 5.26181 12.7646 5.49357L 13.1224 5.14426ZM 12.7015 4.49838C 12.6041 4.25669 12.5543 3.99764 12.5552 3.73608L 12.0552 3.73442C 12.0541 4.06041 12.1161 4.38352 12.2377 4.68531L 12.7015 4.49838Z"/>
</defs>
</svg>
