<svg width="50" height="50" viewBox="0 0 50 50" version="1.1" xmlns="http://www.w3.org/2000/svg" xmlns:xlink="http://www.w3.org/1999/xlink">
<title>Group</title>
<desc>Created using Figma</desc>
<g id="Canvas" transform="translate(10204 -15673)">
<g id="Group">
<g id="Ellipse">
<mask id="mask0_outline_ins">
<use xlink:href="#path0_fill" fill="white" transform="translate(-10204 15673)"/>
</mask>
<g mask="url(#mask0_outline_ins)">
<use xlink:href="#path1_stroke_2x" transform="translate(-10204 15673)" fill="#FFFFFF"/>
</g>
</g>
<g id="home">
<g id="Group">
<g id="Vector">
<use xlink:href="#path2_fill" transform="translate(-10191 15683)" fill="#FFFFFF"/>
</g>
<g id="Vector">
<use xlink:href="#path3_fill" transform="translate(-10191 15686.1)" fill="#FFFFFF"/>
</g>
</g>
</g>
</g>
</g>
<defs>
<path id="path0_fill" d="M 50 25C 50 38.8071 38.8071 50 25 50C 11.1929 50 0 38.8071 0 25C 0 11.1929 11.1929 0 25 0C 38.8071 0 50 11.1929 50 25Z"/>
<path id="path1_stroke_2x" d="M 48 25C 48 37.7025 37.7025 48 25 48L 25 52C 39.9117 52 52 39.9117 52 25L 48 25ZM 25 48C 12.2975 48 2 37.7025 2 25L -2 25C -2 39.9117 10.0883 52 25 52L 25 48ZM 2 25C 2 12.2975 12.2975 2 25 2L 25 -2C 10.0883 -2 -2 10.0883 -2 25L 2 25ZM 25 2C 37.7025 2 48 12.2975 48 25L 52 25C 52 10.0883 39.9117 -2 25 -2L 25 2Z"/>
<path id="path2_fill" d="M 1.15305 8.71196L 10.3553 1.65004L 19.5575 8.71196C 19.6873 8.81158 19.8393 8.85971 19.9903 8.85971C 20.2085 8.85971 20.424 8.75915 20.5655 8.56818C 20.8048 8.24515 20.7415 7.78588 20.4241 7.54228L 10.7886 0.147701C 10.5321 -0.0492337 10.1783 -0.0492337 9.92188 0.147701L 0.28646 7.54228C -0.0309534 7.78588 -0.0941894 8.24515 0.145079 8.56818C 0.384348 8.8911 0.835637 8.95546 1.15305 8.71196Z"/>
<path id="path3_fill" d="M 24.1755 16.4739C 25.0569 15.3642 25.247 13.8606 24.6715 12.5499C 24.1036 11.2563 22.9437 10.4417 21.5689 10.3707C 21.4987 10.3671 21.428 10.3652 21.3568 10.3652C 21.1368 10.3652 20.9214 10.3848 20.7107 10.4187L 20.7107 8.12712C 20.7107 7.89722 20.6047 7.68072 20.4242 7.54228L 10.7887 0.147701C 10.5322 -0.0492337 10.1784 -0.0492337 9.92198 0.147701L 0.286464 7.54228C 0.106113 7.68072 -1.6474e-08 7.89722 -1.6474e-08 8.12712L -1.6474e-08 20.577C -1.6474e-08 20.9816 0.322247 21.3095 0.719759 21.3095L 15.5626 21.3095L 17.3889 23.6088C 17.5255 23.7808 17.7313 23.8809 17.9486 23.8809C 18.166 23.8809 18.3718 23.7808 18.5084 23.6088L 20.5461 21.0432C 20.5464 21.043 20.5465 21.0428 20.5467 21.0426L 24.1755 16.4739ZM 1.43962 8.49231L 10.3554 1.65014L 19.2711 8.49231L 19.2711 10.9441C 18.7452 11.2589 18.2924 11.6875 17.9486 12.1985C 17.2043 11.0924 15.9543 10.3653 14.5404 10.3653C 14.4692 10.3653 14.3986 10.3672 14.3285 10.3707C 12.9535 10.4417 11.7936 11.2563 11.2257 12.5499C 10.6503 13.8605 10.8403 15.3642 11.7218 16.4739L 14.3991 19.8446L 1.43962 19.8446L 1.43962 8.49231ZM 12.8413 15.553C 12.3021 14.8741 12.1867 13.9524 12.5401 13.1475C 12.8826 12.3674 13.5785 11.8763 14.4017 11.8338C 14.4476 11.8315 14.4939 11.8303 14.5405 11.8303C 16.0229 11.8303 17.229 13.0576 17.229 14.5663C 17.229 14.9709 17.5512 15.2988 17.9487 15.2988C 18.3463 15.2988 18.6685 14.9709 18.6685 14.5663C 18.6685 13.0577 19.8745 11.8303 21.3569 11.8303C 21.4035 11.8303 21.4498 11.8315 21.4959 11.8339C 22.319 11.8764 23.0148 12.3675 23.3573 13.1476C 23.7107 13.9525 23.5953 14.8742 23.056 15.5531L 17.9487 21.9833L 12.8413 15.553Z"/>
</defs>
</svg>
