<svg width="50" height="50" viewBox="0 0 50 50" version="1.1" xmlns="http://www.w3.org/2000/svg" xmlns:xlink="http://www.w3.org/1999/xlink">
<title>Group 6</title>
<desc>Created using Figma</desc>
<g id="Canvas" transform="translate(10204 -15545)">
<g id="Group 6">
<g id="Ellipse">
<mask id="mask0_outline_ins">
<use xlink:href="#path0_fill" fill="white" transform="translate(-10204 15545)"/>
</mask>
<g mask="url(#mask0_outline_ins)">
<use xlink:href="#path1_stroke_2x" transform="translate(-10204 15545)" fill="#FFFFFF"/>
</g>
</g>
<g id="handshake">
<g id="Group">
<g id="Group">
<g id="Vector">
<use xlink:href="#path2_fill" transform="translate(-10194 15561)" fill="#FFFFFF"/>
<use xlink:href="#path3_stroke" transform="translate(-10194 15561)" fill="#FFFFFF"/>
</g>
</g>
</g>
</g>
</g>
</g>
<defs>
<path id="path0_fill" d="M 50 25C 50 38.8071 38.8071 50 25 50C 11.1929 50 0 38.8071 0 25C 0 11.1929 11.1929 0 25 0C 38.8071 0 50 11.1929 50 25Z"/>
<path id="path1_stroke_2x" d="M 48 25C 48 37.7025 37.7025 48 25 48L 25 52C 39.9117 52 52 39.9117 52 25L 48 25ZM 25 48C 12.2975 48 2 37.7025 2 25L -2 25C -2 39.9117 10.0883 52 25 52L 25 48ZM 2 25C 2 12.2975 12.2975 2 25 2L 25 -2C 10.0883 -2 -2 10.0883 -2 25L 2 25ZM 25 2C 37.7025 2 48 12.2975 48 25L 52 25C 52 10.0883 39.9117 -2 25 -2L 25 2Z"/>
<path id="path2_fill" d="M 30 5.16209C 29.9993 4.70142 29.8654 4.23422 29.5692 3.84911L 27.1921 0.772713C 26.794 0.261364 26.1882 0.00100733 25.5828 -1.98953e-07C 25.2225 -1.98953e-07 24.8556 0.0934035 24.5315 0.297872L 22.2138 1.75642C 21.97 1.91365 21.5521 2.02157 21.1485 2.01879C 20.8349 2.02015 20.5318 1.95668 20.3317 1.85669L 18.062 0.744681C 17.696 0.566408 17.2879 0.493332 16.8775 0.492621C 16.2881 0.495407 15.6912 0.641913 15.2115 0.978131L 14.9467 1.16606C 14.735 1.05921 14.4115 0.896402 14.045 0.711966C 13.6056 0.494043 13.0888 0.406152 12.5669 0.404433C 12.0954 0.405796 11.624 0.479286 11.2101 0.656137L 9.66416 1.32336C 9.41256 1.43371 9.01236 1.50578 8.61486 1.504C 8.21736 1.50572 7.81787 1.43365 7.56627 1.32336L 6.01893 0.655781C 5.73668 0.534048 5.43498 0.482013 5.13598 0.481657C 4.79168 0.482013 4.44944 0.550643 4.13133 0.68097C 3.81363 0.812007 3.51873 1.00545 3.28389 1.27091L 0.466701 4.46216C 0.154455 4.81485 -0.000642531 5.25899 2.00051e-06 5.6962C -0.000642531 6.21757 0.219904 6.74059 0.645295 7.10715L 3.27322 9.37492L 2.02658 10.6903C 1.68293 11.0531 1.51184 11.5234 1.51184 11.9885C 1.51119 12.4833 1.70549 12.9829 2.09033 13.3508L 2.34322 13.5938C 2.58153 13.8225 2.86787 13.9679 3.16752 14.0455C 3.01723 14.3251 2.93508 14.6317 2.93572 14.9389C 2.93508 15.4341 3.12938 15.9333 3.51352 16.3016L 3.51287 16.3012L 3.76652 16.5454C 4.12758 16.8915 4.59563 17.0639 5.05676 17.0636C 5.30461 17.064 5.55276 17.0136 5.78596 16.915C 5.86781 17.2509 6.03686 17.5701 6.30275 17.8253L 6.55641 18.0694C 6.91746 18.4156 7.38475 18.588 7.84664 18.5877C 8.2077 18.588 8.57039 18.4804 8.88264 18.2715C 8.97398 18.5687 9.13049 18.8504 9.36873 19.0794L 9.62238 19.3235C 9.98268 19.6696 10.4507 19.8421 10.912 19.8418C 11.4032 19.8421 11.8992 19.6469 12.2656 19.2601L 13.3674 18.0963L 14.8643 19.4976C 15.2226 19.8338 15.6825 20.001 16.1365 20C 16.6352 20.0011 17.1384 19.799 17.5055 19.4014L 17.7445 19.1425C 17.9507 18.9184 18.0854 18.6532 18.1635 18.3763L 18.7433 18.9177C 19.1023 19.2525 19.5615 19.419 20.0149 19.4187C 20.5143 19.419 21.0188 19.2169 21.3863 18.8191L 21.6239 18.5604C 21.8983 18.2639 22.0528 17.8966 22.1004 17.5215C 22.2535 17.5612 22.4086 17.5881 22.565 17.5881C 23.0644 17.5881 23.5676 17.3864 23.9354 16.9889L 24.1737 16.7302C 24.5068 16.3692 24.6725 15.9061 24.6718 15.4496C 24.6718 15.3079 24.6517 15.1669 24.6206 15.0276C 25.0348 14.972 25.4364 14.7852 25.7418 14.4534L 25.9808 14.1945C 26.3138 13.8335 26.4788 13.3704 26.4788 12.9135C 26.4795 12.4108 26.2791 11.9036 25.8836 11.534L 25.4367 11.1165L 29.4702 6.6057C 29.8323 6.19961 29.9994 5.67688 30 5.16209ZM 3.63363 13.0857C 3.41994 13.085 3.21094 13.0078 3.04764 12.8512L 2.79434 12.6082C 2.61908 12.4406 2.53254 12.2176 2.53184 11.9886C 2.53254 11.7738 2.60854 11.5641 2.76504 11.3989L 5.31832 8.7039C 5.48467 8.52836 5.70662 8.44046 5.93432 8.44017C 6.14736 8.44052 6.35567 8.5181 6.52031 8.67498L 6.77256 8.91839C 6.77256 8.91839 7.03371 9.30901 7.03436 9.53831C 7.03371 9.71001 6.98256 9.87726 6.88336 10.0221C 6.87486 10.0307 4.12758 12.9267 4.12758 12.9267C 3.98168 13.0312 3.80918 13.0849 3.63363 13.0857ZM 5.67281 15.7738C 5.50682 15.9487 5.28522 16.0362 5.05752 16.0369C 4.84383 16.0366 4.63547 15.959 4.47152 15.8025L 4.21787 15.5586L 4.21723 15.5583C 4.04338 15.3914 3.95608 15.1677 3.95608 14.9387C 3.95608 14.7239 4.03277 14.5142 4.18852 14.349C 4.18852 14.349 7.59199 10.7655 7.62065 10.7309C 7.7833 10.5727 7.99289 10.491 8.20934 10.4906C 8.42303 10.491 8.63139 10.5682 8.79533 10.7251L 9.04899 10.9692C 9.22348 11.1361 9.31014 11.3595 9.31078 11.5888C 9.31008 11.8036 9.23344 12.0136 9.07758 12.1787L 5.67281 15.7738ZM 8.46229 17.2975C 8.29664 17.4727 8.0751 17.5604 7.84734 17.561C 7.63365 17.5607 7.42529 17.4831 7.26135 17.3262L 7.00699 17.0824C 6.8325 16.9151 6.7452 16.6918 6.7452 16.4627C 6.7452 16.2711 6.80965 16.0852 6.93299 15.9304L 9.30322 13.4281C 9.46313 13.2822 9.66352 13.2054 9.87117 13.2054C 10.0849 13.2057 10.2932 13.2829 10.4572 13.4398L 10.7115 13.6839C 10.8854 13.8508 10.9727 14.0743 10.9733 14.3032C 10.9726 14.5184 10.8953 14.7284 10.7401 14.8931L 8.46229 17.2975ZM 12.9659 17.0334L 11.5277 18.5516C 11.362 18.7268 11.1401 18.8144 10.9124 18.8151C 10.6987 18.8147 10.4903 18.7372 10.3264 18.5803L 10.0727 18.3365C 9.89889 18.1696 9.81158 17.9458 9.81094 17.7168C 9.81158 17.5016 9.88828 17.2916 10.0441 17.1272L 11.4817 15.609C 11.6481 15.4338 11.87 15.3459 12.0977 15.3455C 12.3108 15.3459 12.5198 15.4231 12.6837 15.5803L 12.9381 15.8242C 13.1119 15.991 13.1985 16.2145 13.1992 16.4434C 13.1984 16.6586 13.1217 16.8685 12.9659 17.0334ZM 25.4603 12.9149C 25.46 13.1258 25.3853 13.3323 25.234 13.4964L 24.9957 13.755C 24.8293 13.935 24.6036 14.0261 24.3725 14.0264C 24.1629 14.0261 23.9576 13.9516 23.7947 13.7993L 19.779 10.0429L 19.0846 10.7949L 23.3829 14.8226C 23.562 14.9902 23.6519 15.2178 23.6532 15.4502C 23.6519 15.6619 23.5779 15.8681 23.4269 16.0322L 23.1893 16.2909C 23.0229 16.4709 22.7972 16.5615 22.5662 16.5623C 22.3565 16.5616 22.1506 16.4868 21.989 16.3354L 17.9722 12.5791L 17.2785 13.3311L 20.8433 16.6654C 21.0151 16.832 21.1031 17.0537 21.1031 17.2812C 21.1031 17.4923 21.0291 17.6987 20.8781 17.8626L 20.6398 18.1212C 20.4741 18.3012 20.2477 18.3922 20.016 18.3929C 19.8056 18.3922 19.6004 18.3174 19.4382 18.166L 15.8806 14.8438L 15.88 14.8438L 15.8793 14.8431L 15.187 15.5965L 15.1877 15.5972L 15.201 15.6099L 16.9828 17.2733C 17.1407 17.4374 17.2225 17.6477 17.2231 17.8653C 17.2225 18.0753 17.1491 18.2807 16.9981 18.4446L 16.7598 18.7035C 16.5935 18.8835 16.3685 18.9739 16.138 18.9746C 15.9284 18.9739 15.7231 18.8994 15.5609 18.7474L 14.0095 17.2944C 14.1445 17.0265 14.2198 16.7358 14.2198 16.4441C 14.2205 15.9493 14.0262 15.4504 13.642 15.0818L 13.3877 14.8377C 13.0274 14.4918 12.56 14.3191 12.0988 14.3197C 12.063 14.3197 12.0269 14.328 11.9918 14.3301C 11.9918 14.3215 11.9938 14.3125 11.9938 14.3039C 11.9944 13.8091 11.416 12.9409 11.416 12.9409L 11.1623 12.6975C 10.8927 12.4389 10.5637 12.2775 10.2215 12.2127C 10.2921 12.0107 10.332 11.8003 10.332 11.5896C 10.332 11.0948 10.1383 10.5955 9.75416 10.2273L 9.50051 9.98322C 9.13945 9.63705 8.67217 9.46429 8.21092 9.46464C 8.15707 9.46464 8.10393 9.47567 8.05037 9.48053C 8.03572 9.00539 7.84652 8.53061 7.47838 8.17685L 7.47838 8.17649L 7.22543 7.93344C 6.86438 7.58691 6.39709 7.41415 5.93584 7.41451C 5.44389 7.41415 4.9486 7.60931 4.58221 7.9962L 3.97951 8.63237L 1.30963 6.32904C 1.11774 6.16286 1.02194 5.93321 1.02123 5.69738C 1.02188 5.49979 1.08838 5.30635 1.23018 5.14573L 4.04731 1.95454C 4.1591 1.82765 4.32445 1.71285 4.51811 1.63314C 4.71176 1.55349 4.9316 1.50975 5.13715 1.51005C 5.31615 1.51005 5.48414 1.54282 5.6185 1.60143L 7.16514 2.26895C 7.60113 2.45481 8.10732 2.53103 8.61604 2.53268C 9.12533 2.53097 9.63088 2.45475 10.0669 2.26895L 11.6129 1.60173C 11.8512 1.49659 12.2108 1.4314 12.5684 1.43276C 12.9638 1.43033 13.3599 1.51313 13.5896 1.63172C 13.7355 1.70515 13.8739 1.77485 14.0024 1.83998L 12.4258 2.961C 11.9192 3.32134 11.6462 3.89439 11.6469 4.47265C 11.6462 4.85539 11.7662 5.24501 12.0103 5.57565L 12.0096 5.57494L 12.2179 5.858C 12.6133 6.38973 13.2299 6.66313 13.8463 6.66449C 14.1943 6.66449 14.5489 6.57553 14.8649 6.38381L 15.8078 5.81106C 16.0001 5.69211 16.2905 5.61696 16.5908 5.61832C 16.9436 5.61625 17.2992 5.7218 17.5129 5.8807L 20.1214 7.7723C 20.702 8.19297 21.6476 8.97327 22.1716 9.46429L 25.1909 12.2879C 25.3696 12.4556 25.4596 12.6822 25.4603 12.9149ZM 28.7132 5.91928L 24.6909 10.4179L 22.8647 8.71048C 22.2928 8.17637 21.3495 7.3975 20.7168 6.93783L 18.109 5.04623C 17.6668 4.72939 17.1255 4.59242 16.5903 4.59041C 16.1348 4.59177 15.676 4.69217 15.2799 4.93072L 14.3377 5.50347C 14.1932 5.59136 14.0228 5.63622 13.8458 5.63658C 13.5294 5.63765 13.2127 5.48829 13.0362 5.24518L 12.8286 4.96248L 12.8279 4.96177C 12.7174 4.81112 12.666 4.64215 12.6652 4.47111C 12.6666 4.21247 12.7845 3.96148 13.013 3.79838L 15.8008 1.8171C 16.0419 1.64061 16.4707 1.5168 16.878 1.51988C 17.161 1.51852 17.4313 1.57607 17.6164 1.66852L 19.886 2.78054C 20.273 2.96847 20.7097 3.04534 21.149 3.0464C 21.7135 3.04362 22.2841 2.91952 22.7543 2.62745L 25.0727 1.16861C 25.2207 1.07521 25.3983 1.02691 25.5834 1.02691C 25.8964 1.02625 26.21 1.16968 26.3876 1.40378L 28.7646 4.48017C 28.9017 4.65637 28.9811 4.90494 28.9811 5.16257C 28.9815 5.45066 28.8809 5.73413 28.7132 5.91928Z"/>
<path id="path3_stroke" d="M 30 5.16209L 30.125 5.16225L 30.125 5.1619L 30 5.16209ZM 29.5692 3.84911L 29.6682 3.7729L 29.6681 3.77268L 29.5692 3.84911ZM 27.1921 0.772713L 27.291 0.696286L 27.2908 0.695919L 27.1921 0.772713ZM 25.5828 -1.98953e-07L 25.583 -0.125L 25.5828 -0.125L 25.5828 -1.98953e-07ZM 24.5315 0.297872L 24.5981 0.403667L 24.5982 0.403595L 24.5315 0.297872ZM 22.2138 1.75642L 22.1472 1.65061L 22.146 1.65137L 22.2138 1.75642ZM 21.1485 2.01879L 21.1493 1.89378L 21.1479 1.89379L 21.1485 2.01879ZM 20.3317 1.85669L 20.3876 1.74487L 20.3867 1.74444L 20.3317 1.85669ZM 18.062 0.744681L 18.117 0.632429L 18.1168 0.632297L 18.062 0.744681ZM 16.8775 0.492621L 16.8777 0.367619L 16.8769 0.367623L 16.8775 0.492621ZM 15.2115 0.978131L 15.1398 0.875771L 15.1392 0.876189L 15.2115 0.978131ZM 14.9467 1.16606L 14.8904 1.27765L 14.9576 1.31159L 15.019 1.26801L 14.9467 1.16606ZM 14.045 0.711966L 14.1012 0.600308L 14.1006 0.599979L 14.045 0.711966ZM 12.5669 0.404433L 12.5673 0.279431L 12.5665 0.279434L 12.5669 0.404433ZM 11.2101 0.656137L 11.161 0.541189L 11.1606 0.54137L 11.2101 0.656137ZM 9.66416 1.32336L 9.61463 1.20859L 9.61395 1.20888L 9.66416 1.32336ZM 8.61486 1.504L 8.61542 1.379L 8.61432 1.379L 8.61486 1.504ZM 7.56627 1.32336L 7.61646 1.20887L 7.61579 1.20858L 7.56627 1.32336ZM 6.01893 0.655781L 6.06844 0.541007L 6.06843 0.541002L 6.01893 0.655781ZM 5.13598 0.481657L 5.13613 0.356657L 5.13585 0.356657L 5.13598 0.481657ZM 4.13133 0.68097L 4.08394 0.5653L 4.08367 0.565413L 4.13133 0.68097ZM 3.28389 1.27091L 3.19027 1.18808L 3.19018 1.18818L 3.28389 1.27091ZM 0.466701 4.46216L 0.560293 4.54502L 0.560411 4.54488L 0.466701 4.46216ZM 2.00051e-06 5.6962L 0.125002 5.69635L 0.125002 5.69602L 2.00051e-06 5.6962ZM 0.645295 7.10715L 0.72696 7.01252L 0.726893 7.01246L 0.645295 7.10715ZM 3.27322 9.37492L 3.36395 9.4609L 3.45404 9.36584L 3.35489 9.28028L 3.27322 9.37492ZM 2.02658 10.6903L 1.93586 10.6043L 1.93584 10.6044L 2.02658 10.6903ZM 1.51184 11.9885L 1.63684 11.9887L 1.63684 11.9885L 1.51184 11.9885ZM 2.09033 13.3508L 2.17695 13.2607L 2.17671 13.2604L 2.09033 13.3508ZM 2.34322 13.5938L 2.25661 13.684L 2.25668 13.684L 2.34322 13.5938ZM 3.16752 14.0455L 3.27762 14.1047L 3.35302 13.9644L 3.19885 13.9245L 3.16752 14.0455ZM 2.93572 14.9389L 3.06072 14.9391L 3.06072 14.9386L 2.93572 14.9389ZM 3.51352 16.3016L 3.45328 16.4111L 3.60002 16.2114L 3.51352 16.3016ZM 3.51287 16.3012L 3.57311 16.1917L 3.42619 16.3913L 3.51287 16.3012ZM 3.76652 16.5454L 3.67985 16.6354L 3.68002 16.6356L 3.76652 16.5454ZM 5.05676 17.0636L 5.05694 16.9386L 5.05668 16.9386L 5.05676 17.0636ZM 5.78596 16.915L 5.9074 16.8854L 5.87261 16.7426L 5.73727 16.7999L 5.78596 16.915ZM 6.30275 17.8253L 6.38943 17.7352L 6.3893 17.7351L 6.30275 17.8253ZM 6.55641 18.0694L 6.46973 18.1595L 6.4699 18.1596L 6.55641 18.0694ZM 7.84664 18.5877L 7.84676 18.4627L 7.84656 18.4627L 7.84664 18.5877ZM 8.88264 18.2715L 9.00212 18.2348L 8.95276 18.0742L 8.81313 18.1676L 8.88264 18.2715ZM 9.36873 19.0794L 9.45541 18.9893L 9.45534 18.9892L 9.36873 19.0794ZM 9.62238 19.3235L 9.5357 19.4135L 9.53578 19.4136L 9.62238 19.3235ZM 10.912 19.8418L 10.9121 19.7168L 10.9119 19.7168L 10.912 19.8418ZM 12.2656 19.2601L 12.3564 19.346L 12.3564 19.346L 12.2656 19.2601ZM 13.3674 18.0963L 13.4528 18.0051L 13.3621 17.9201L 13.2766 18.0104L 13.3674 18.0963ZM 14.8643 19.4976L 14.9498 19.4064L 14.9497 19.4063L 14.8643 19.4976ZM 16.1365 20L 16.1368 19.875L 16.1362 19.875L 16.1365 20ZM 17.5055 19.4014L 17.5974 19.4862L 17.5974 19.4862L 17.5055 19.4014ZM 17.7445 19.1425L 17.8363 19.2272L 17.8364 19.2271L 17.7445 19.1425ZM 18.1635 18.3763L 18.2488 18.285L 18.0989 18.145L 18.0432 18.3424L 18.1635 18.3763ZM 18.7433 18.9177L 18.658 19.009L 18.6581 19.0091L 18.7433 18.9177ZM 20.0149 19.4187L 20.015 19.2937L 20.0148 19.2937L 20.0149 19.4187ZM 21.3863 18.8191L 21.4781 18.9039L 21.4784 18.9036L 21.3863 18.8191ZM 21.6239 18.5604L 21.5322 18.4755L 21.5319 18.4759L 21.6239 18.5604ZM 22.1004 17.5215L 22.1318 17.4005L 21.9944 17.3649L 21.9764 17.5058L 22.1004 17.5215ZM 23.9354 16.9889L 24.0272 17.0738L 24.0274 17.0736L 23.9354 16.9889ZM 24.1737 16.7302L 24.0819 16.6455L 24.0818 16.6455L 24.1737 16.7302ZM 24.6718 15.4496L 24.5468 15.4496L 24.5468 15.4498L 24.6718 15.4496ZM 24.6206 15.0276L 24.604 14.9037L 24.469 14.9218L 24.4986 15.0547L 24.6206 15.0276ZM 25.7418 14.4534L 25.65 14.3687L 25.6499 14.3688L 25.7418 14.4534ZM 25.9808 14.1945L 26.0726 14.2793L 26.0726 14.2793L 25.9808 14.1945ZM 26.4788 12.9135L 26.3538 12.9134L 26.3538 12.9135L 26.4788 12.9135ZM 25.8836 11.534L 25.969 11.4427L 25.9689 11.4426L 25.8836 11.534ZM 25.4367 11.1165L 25.3435 11.0331L 25.262 11.1243L 25.3514 11.2078L 25.4367 11.1165ZM 29.4702 6.6057L 29.5634 6.68902L 29.5635 6.68889L 29.4702 6.6057ZM 3.63363 13.0857L 3.63325 13.2107L 3.63418 13.2107L 3.63363 13.0857ZM 3.04764 12.8512L 2.96109 12.9414L 2.96114 12.9415L 3.04764 12.8512ZM 2.79434 12.6082L 2.88088 12.518L 2.88073 12.5178L 2.79434 12.6082ZM 2.53184 11.9886L 2.40684 11.9881L 2.40684 11.9889L 2.53184 11.9886ZM 2.76504 11.3989L 2.85578 11.4849L 2.85578 11.4849L 2.76504 11.3989ZM 5.31832 8.7039L 5.22759 8.61792L 5.22758 8.61793L 5.31832 8.7039ZM 5.93432 8.44017L 5.93453 8.31517L 5.93415 8.31517L 5.93432 8.44017ZM 6.52031 8.67498L 6.60711 8.58503L 6.60654 8.58448L 6.52031 8.67498ZM 6.77256 8.91839L 6.87648 8.84892L 6.86902 8.83776L 6.85936 8.82844L 6.77256 8.91839ZM 7.03436 9.53831L 7.15936 9.53878L 7.15936 9.53796L 7.03436 9.53831ZM 6.88336 10.0221L 6.97225 10.11L 6.98015 10.102L 6.98649 10.0927L 6.88336 10.0221ZM 4.12758 12.9267L 4.20033 13.0284L 4.21005 13.0214L 4.21827 13.0128L 4.12758 12.9267ZM 5.67281 15.7738L 5.76346 15.8599L 5.76357 15.8598L 5.67281 15.7738ZM 5.05752 16.0369L 5.05731 16.1619L 5.05791 16.1619L 5.05752 16.0369ZM 4.47152 15.8025L 4.3849 15.8926L 4.38521 15.8929L 4.47152 15.8025ZM 4.21787 15.5586L 4.3045 15.4685L 4.29258 15.4571L 4.27811 15.4491L 4.21787 15.5586ZM 4.21723 15.5583L 4.13066 15.6485L 4.14255 15.6599L 4.15699 15.6678L 4.21723 15.5583ZM 4.18852 14.349L 4.09788 14.2629L 4.09757 14.2633L 4.18852 14.349ZM 7.62065 10.7309L 7.53298 10.6408L 7.52443 10.6511L 7.62065 10.7309ZM 8.20934 10.4906L 8.20955 10.3656L 8.20913 10.3656L 8.20934 10.4906ZM 8.79533 10.7251L 8.88201 10.635L 8.88175 10.6347L 8.79533 10.7251ZM 9.04899 10.9692L 8.96231 11.0592L 8.96259 11.0595L 9.04899 10.9692ZM 9.31078 11.5888L 9.43578 11.5892L 9.43578 11.5885L 9.31078 11.5888ZM 9.07758 12.1787L 9.16834 12.2647L 9.16849 12.2645L 9.07758 12.1787ZM 8.46229 17.2975L 8.37154 17.2115L 8.37144 17.2116L 8.46229 17.2975ZM 7.84734 17.561L 7.84714 17.686L 7.8477 17.686L 7.84734 17.561ZM 7.26135 17.3262L 7.17485 17.4164L 7.17493 17.4165L 7.26135 17.3262ZM 7.00699 17.0824L 7.09349 16.9921L 7.09349 16.9921L 7.00699 17.0824ZM 6.93299 15.9304L 6.84191 15.8441L 6.83523 15.8525L 6.93299 15.9304ZM 9.30322 13.4281L 9.21876 13.3355L 9.21247 13.3421L 9.30322 13.4281ZM 9.87117 13.2054L 9.87138 13.0804L 9.87117 13.0804L 9.87117 13.2054ZM 10.4572 13.4398L 10.5437 13.3496L 10.5436 13.3495L 10.4572 13.4398ZM 10.7115 13.6839L 10.7981 13.5938L 10.7981 13.5937L 10.7115 13.6839ZM 10.9733 14.3032L 11.0983 14.3036L 11.0983 14.3029L 10.9733 14.3032ZM 10.7401 14.8931L 10.8309 14.9791L 10.8311 14.9788L 10.7401 14.8931ZM 12.9659 17.0334L 13.0567 17.1193L 13.0568 17.1192L 12.9659 17.0334ZM 11.5277 18.5516L 11.4369 18.4657L 11.4369 18.4657L 11.5277 18.5516ZM 10.9124 18.8151L 10.9122 18.9401L 10.9127 18.9401L 10.9124 18.8151ZM 10.3264 18.5803L 10.2398 18.6704L 10.24 18.6706L 10.3264 18.5803ZM 10.0727 18.3365L 10.1594 18.2463L 10.1593 18.2463L 10.0727 18.3365ZM 9.81094 17.7168L 9.68594 17.7164L 9.68594 17.7172L 9.81094 17.7168ZM 10.0441 17.1272L 10.1349 17.2132L 10.1349 17.2131L 10.0441 17.1272ZM 11.4817 15.609L 11.3911 15.5229L 11.391 15.523L 11.4817 15.609ZM 12.0977 15.3455L 12.0979 15.2205L 12.0975 15.2205L 12.0977 15.3455ZM 12.6837 15.5803L 12.5972 15.6705L 12.5972 15.6706L 12.6837 15.5803ZM 12.9381 15.8242L 13.0247 15.734L 13.0246 15.7339L 12.9381 15.8242ZM 13.1992 16.4434L 13.3242 16.4439L 13.3242 16.443L 13.1992 16.4434ZM 25.4603 12.9149L 25.5853 12.9151L 25.5853 12.9145L 25.4603 12.9149ZM 25.234 13.4964L 25.1421 13.4117L 25.1421 13.4117L 25.234 13.4964ZM 24.9957 13.755L 25.0875 13.8399L 25.0876 13.8397L 24.9957 13.755ZM 24.3725 14.0264L 24.3723 14.1514L 24.3727 14.1514L 24.3725 14.0264ZM 23.7947 13.7993L 23.7094 13.8905L 23.7094 13.8906L 23.7947 13.7993ZM 19.779 10.0429L 19.8644 9.95162L 19.7725 9.86567L 19.6872 9.95811L 19.779 10.0429ZM 19.0846 10.7949L 18.9928 10.7101L 18.9086 10.8013L 18.9992 10.8861L 19.0846 10.7949ZM 23.3829 14.8226L 23.2975 14.9138L 23.2975 14.9139L 23.3829 14.8226ZM 23.6532 15.4502L 23.7782 15.451L 23.7782 15.4495L 23.6532 15.4502ZM 23.4269 16.0322L 23.3349 15.9476L 23.3348 15.9477L 23.4269 16.0322ZM 23.1893 16.2909L 23.2811 16.3757L 23.2813 16.3754L 23.1893 16.2909ZM 22.5662 16.5623L 22.5658 16.6873L 22.5665 16.6873L 22.5662 16.5623ZM 21.989 16.3354L 22.0745 16.2442L 22.0744 16.2441L 21.989 16.3354ZM 17.9722 12.5791L 18.0576 12.4878L 17.9657 12.4018L 17.8803 12.4943L 17.9722 12.5791ZM 17.2785 13.3311L 17.1867 13.2464L 17.1025 13.3376L 17.1931 13.4224L 17.2785 13.3311ZM 20.8433 16.6654L 20.9303 16.5757L 20.9286 16.5742L 20.8433 16.6654ZM 20.8781 17.8626L 20.7862 17.7778L 20.7861 17.7779L 20.8781 17.8626ZM 20.6398 18.1212L 20.5478 18.0365L 20.5478 18.0365L 20.6398 18.1212ZM 20.016 18.3929L 20.0156 18.5179L 20.0163 18.5179L 20.016 18.3929ZM 19.4382 18.166L 19.3529 18.2574L 19.3529 18.2574L 19.4382 18.166ZM 15.8806 14.8438L 15.9659 14.7524L 15.9299 14.7188L 15.8806 14.7188L 15.8806 14.8438ZM 15.88 14.8438L 15.7911 14.9317L 15.8278 14.9688L 15.88 14.9688L 15.88 14.8438ZM 15.8793 14.8431L 15.9682 14.7552L 15.876 14.662L 15.7873 14.7585L 15.8793 14.8431ZM 15.187 15.5965L 15.0949 15.5119L 15.0108 15.6035L 15.1019 15.6881L 15.187 15.5965ZM 15.1877 15.5972L 15.2742 15.5069L 15.2728 15.5056L 15.1877 15.5972ZM 15.201 15.6099L 15.1145 15.7002L 15.1157 15.7013L 15.201 15.6099ZM 16.9828 17.2733L 17.073 17.1865L 17.0681 17.1819L 16.9828 17.2733ZM 17.2231 17.8653L 17.3481 17.8657L 17.3481 17.8649L 17.2231 17.8653ZM 16.9981 18.4446L 16.9062 18.3599L 16.9061 18.36L 16.9981 18.4446ZM 16.7598 18.7035L 16.8516 18.7884L 16.8518 18.7882L 16.7598 18.7035ZM 16.138 18.9746L 16.1376 19.0996L 16.1384 19.0996L 16.138 18.9746ZM 15.5609 18.7474L 15.6463 18.6562L 15.6463 18.6562L 15.5609 18.7474ZM 14.0095 17.2944L 13.8978 17.2381L 13.8557 17.3217L 13.924 17.3856L 14.0095 17.2944ZM 14.2198 16.4441L 14.0948 16.4439L 14.0948 16.4441L 14.2198 16.4441ZM 13.642 15.0818L 13.5555 15.172L 13.5555 15.172L 13.642 15.0818ZM 13.3877 14.8377L 13.3011 14.9278L 13.3011 14.9279L 13.3877 14.8377ZM 12.0988 14.3197L 12.0988 14.4447L 12.099 14.4447L 12.0988 14.3197ZM 11.9918 14.3301L 11.8668 14.3301L 11.8668 14.4627L 11.9992 14.4549L 11.9918 14.3301ZM 11.9938 14.3039L 11.8688 14.3038L 11.8688 14.3039L 11.9938 14.3039ZM 11.416 12.9409L 11.52 12.8716L 11.5124 12.8602L 11.5025 12.8507L 11.416 12.9409ZM 11.1623 12.6975L 11.2489 12.6073L 11.2489 12.6073L 11.1623 12.6975ZM 10.2215 12.2127L 10.1035 12.1715L 10.0557 12.3085L 10.1982 12.3355L 10.2215 12.2127ZM 9.75416 10.2273L 9.66748 10.3174L 9.66767 10.3176L 9.75416 10.2273ZM 9.50051 9.98322L 9.58719 9.89316L 9.58702 9.893L 9.50051 9.98322ZM 8.21092 9.46464L 8.21092 9.58964L 8.21101 9.58964L 8.21092 9.46464ZM 8.05037 9.48053L 7.92543 9.48438L 7.92952 9.61701L 8.06167 9.60502L 8.05037 9.48053ZM 7.47838 8.17685L 7.35338 8.17685L 7.35338 8.23009L 7.39177 8.26698L 7.47838 8.17685ZM 7.47838 8.17649L 7.60338 8.17649L 7.60338 8.12325L 7.56499 8.08636L 7.47838 8.17649ZM 7.22543 7.93344L 7.31204 7.84331L 7.31199 7.84326L 7.22543 7.93344ZM 5.93584 7.41451L 5.93575 7.53951L 5.93594 7.53951L 5.93584 7.41451ZM 4.58221 7.9962L 4.67295 8.08217L 4.67297 8.08216L 4.58221 7.9962ZM 3.97951 8.63237L 3.89786 8.72702L 3.9882 8.80495L 4.07026 8.71834L 3.97951 8.63237ZM 1.30963 6.32904L 1.2278 6.42354L 1.22798 6.42369L 1.30963 6.32904ZM 1.02123 5.69738L 0.896231 5.69698L 0.896233 5.69776L 1.02123 5.69738ZM 1.23018 5.14573L 1.32388 5.22846L 1.32389 5.22846L 1.23018 5.14573ZM 4.04731 1.95454L 4.14102 2.03727L 4.1411 2.03718L 4.04731 1.95454ZM 4.51811 1.63314L 4.47056 1.51754L 4.47053 1.51755L 4.51811 1.63314ZM 5.13715 1.51005L 5.13697 1.63505L 5.13715 1.63505L 5.13715 1.51005ZM 5.6185 1.60143L 5.56851 1.71601L 5.56896 1.7162L 5.6185 1.60143ZM 7.16514 2.26895L 7.1156 2.38372L 7.11612 2.38394L 7.16514 2.26895ZM 8.61604 2.53268L 8.61563 2.65769L 8.61646 2.65768L 8.61604 2.53268ZM 10.0669 2.26895L 10.1159 2.38395L 10.1165 2.38372L 10.0669 2.26895ZM 11.6129 1.60173L 11.6624 1.7165L 11.6633 1.71609L 11.6129 1.60173ZM 12.5684 1.43276L 12.5679 1.55777L 12.5691 1.55776L 12.5684 1.43276ZM 13.5896 1.63172L 13.5323 1.7428L 13.5335 1.74337L 13.5896 1.63172ZM 14.0024 1.83998L 14.0749 1.94185L 14.2434 1.822L 14.059 1.72849L 14.0024 1.83998ZM 12.4258 2.961L 12.3534 2.85913L 12.3533 2.85914L 12.4258 2.961ZM 11.6469 4.47265L 11.7719 4.47286L 11.7719 4.4725L 11.6469 4.47265ZM 12.0103 5.57565L 11.9176 5.65957L 12.1108 5.50141L 12.0103 5.57565ZM 12.0096 5.57494L 12.1023 5.49103L 11.9089 5.64902L 12.0096 5.57494ZM 12.2179 5.858L 12.1172 5.93207L 12.1175 5.93259L 12.2179 5.858ZM 13.8463 6.66449L 13.846 6.78949L 13.8463 6.78949L 13.8463 6.66449ZM 14.8649 6.38381L 14.9297 6.49067L 14.9298 6.49064L 14.8649 6.38381ZM 15.8078 5.81106L 15.8727 5.9179L 15.8735 5.91737L 15.8078 5.81106ZM 16.5908 5.61832L 16.5902 5.74333L 16.5915 5.74332L 16.5908 5.61832ZM 17.5129 5.8807L 17.4383 5.98102L 17.4395 5.98189L 17.5129 5.8807ZM 20.1214 7.7723L 20.0481 7.87349L 20.0481 7.87352L 20.1214 7.7723ZM 22.1716 9.46429L 22.0861 9.5555L 22.0862 9.55559L 22.1716 9.46429ZM 25.1909 12.2879L 25.2764 12.1967L 25.2762 12.1966L 25.1909 12.2879ZM 28.7132 5.91928L 28.6205 5.83536L 28.62 5.83596L 28.7132 5.91928ZM 24.6909 10.4179L 24.6056 10.5092L 24.6989 10.5965L 24.7841 10.5013L 24.6909 10.4179ZM 22.8647 8.71048L 22.9501 8.61917L 22.9501 8.61912L 22.8647 8.71048ZM 20.7168 6.93783L 20.7903 6.8367L 20.7902 6.83664L 20.7168 6.93783ZM 18.109 5.04623L 18.1824 4.94504L 18.1818 4.94462L 18.109 5.04623ZM 16.5903 4.59041L 16.5908 4.46541L 16.5899 4.46541L 16.5903 4.59041ZM 15.2799 4.93072L 15.2154 4.82364L 15.215 4.8239L 15.2799 4.93072ZM 14.3377 5.50347L 14.2728 5.39665L 14.2728 5.39666L 14.3377 5.50347ZM 13.8458 5.63658L 13.8455 5.51158L 13.8453 5.51158L 13.8458 5.63658ZM 13.0362 5.24518L 13.1373 5.17173L 13.1369 5.1712L 13.0362 5.24518ZM 12.8286 4.96248L 12.9293 4.8885L 12.9239 4.88111L 12.9175 4.8746L 12.8286 4.96248ZM 12.8279 4.96177L 12.7271 5.03568L 12.7325 5.04311L 12.739 5.04965L 12.8279 4.96177ZM 12.6652 4.47111L 12.5402 4.47046L 12.5402 4.47166L 12.6652 4.47111ZM 13.013 3.79838L 12.9406 3.69649L 12.9403 3.69664L 13.013 3.79838ZM 15.8008 1.8171L 15.8732 1.919L 15.8746 1.91796L 15.8008 1.8171ZM 16.878 1.51988L 16.8771 1.64489L 16.8786 1.64488L 16.878 1.51988ZM 17.6164 1.66852L 17.5605 1.78035L 17.5614 1.78077L 17.6164 1.66852ZM 19.886 2.78054L 19.831 2.89279L 19.8314 2.89298L 19.886 2.78054ZM 21.149 3.0464L 21.1487 3.17141L 21.1496 3.1714L 21.149 3.0464ZM 22.7543 2.62745L 22.8203 2.73363L 22.8209 2.73325L 22.7543 2.62745ZM 25.0727 1.16861L 25.1393 1.27441L 25.1395 1.27431L 25.0727 1.16861ZM 25.5834 1.02691L 25.5834 1.15191L 25.5837 1.15191L 25.5834 1.02691ZM 26.3876 1.40378L 26.288 1.47933L 26.2887 1.48021L 26.3876 1.40378ZM 28.7646 4.48017L 28.6657 4.5566L 28.6659 4.55692L 28.7646 4.48017ZM 28.9811 5.16257L 28.8561 5.16257L 28.8561 5.16274L 28.9811 5.16257ZM 30.125 5.1619C 30.1243 4.6776 29.9834 4.1827 29.6682 3.7729L 29.4701 3.92531C 29.7473 4.28574 29.8743 4.72523 29.875 5.16228L 30.125 5.1619ZM 29.6681 3.77268L 27.291 0.696286L 27.0932 0.849141L 29.4702 3.92553L 29.6681 3.77268ZM 27.2908 0.695919C 26.8668 0.151475 26.2233 -0.123934 25.583 -0.125L 25.5826 0.125C 26.1531 0.125949 26.7211 0.371253 27.0935 0.849508L 27.2908 0.695919ZM 25.5828 -0.125C 25.2011 -0.125 24.8107 -0.026016 24.4648 0.192149L 24.5982 0.403595C 24.9006 0.212823 25.2439 0.125 25.5828 0.125L 25.5828 -0.125ZM 24.4649 0.192077L 22.1472 1.65062L 22.2803 1.86221L 24.5981 0.403667L 24.4649 0.192077ZM 22.146 1.65137C 21.9279 1.79204 21.5358 1.89646 21.1493 1.89379L 21.1476 2.14378C 21.5685 2.14669 22.0121 2.03526 22.2815 1.86146L 22.146 1.65137ZM 21.1479 1.89379C 20.8483 1.89509 20.5658 1.8339 20.3876 1.74488L 20.2759 1.96851C 20.4979 2.07945 20.8215 2.14521 21.149 2.14379L 21.1479 1.89379ZM 20.3867 1.74444L 18.117 0.632429L 18.0071 0.856932L 20.2767 1.96895L 20.3867 1.74444ZM 18.1168 0.632297C 17.7299 0.443913 17.3022 0.368357 16.8777 0.367621L 16.8772 0.617621C 17.2735 0.618308 17.662 0.688902 18.0073 0.857064L 18.1168 0.632297ZM 16.8769 0.367623C 16.2686 0.370497 15.6451 0.521562 15.1398 0.875773L 15.2833 1.08049C 15.7373 0.762264 16.3075 0.620316 16.8781 0.61762L 16.8769 0.367623ZM 15.1392 0.876189L 14.8743 1.06412L 15.019 1.26801L 15.2839 1.08007L 15.1392 0.876189ZM 15.003 1.05447C 14.7912 0.947575 14.4676 0.784729 14.1012 0.60031L 13.9888 0.823621C 14.3553 1.00808 14.6787 1.17084 14.8904 1.27765L 15.003 1.05447ZM 14.1006 0.599979C 13.6389 0.371025 13.1017 0.281194 12.5673 0.279434L 12.5665 0.529432C 13.076 0.53111 13.5723 0.617061 13.9895 0.823952L 14.1006 0.599979ZM 12.5665 0.279434C 12.0832 0.280831 11.5943 0.356052 11.161 0.54119L 11.2592 0.771084C 11.6537 0.602521 12.1076 0.530762 12.5673 0.529433L 12.5665 0.279434ZM 11.1606 0.54137L 9.61463 1.20859L 9.71369 1.43812L 11.2596 0.770904L 11.1606 0.54137ZM 9.61395 1.20888C 9.38294 1.31021 9.00128 1.38073 8.61542 1.379L 8.6143 1.629C 9.02345 1.63083 9.44217 1.55722 9.71437 1.43783L 9.61395 1.20888ZM 8.61432 1.379C 8.22849 1.38067 7.8475 1.31016 7.61646 1.20887L 7.51608 1.43784C 7.78824 1.55714 8.20624 1.63077 8.6154 1.629L 8.61432 1.379ZM 7.61579 1.20858L 6.06844 0.541007L 5.96941 0.770555L 7.51675 1.43813L 7.61579 1.20858ZM 6.06843 0.541002C 5.76826 0.411538 5.44936 0.35703 5.13613 0.356657L 5.13583 0.606657C 5.4206 0.606996 5.7051 0.656559 5.96942 0.770561L 6.06843 0.541002ZM 5.13585 0.356657C 4.7751 0.35703 4.41682 0.428922 4.08394 0.565301L 4.17872 0.796638C 4.48205 0.672364 4.80826 0.606996 5.13611 0.606657L 5.13585 0.356657ZM 4.08367 0.565413C 3.75127 0.702514 3.43967 0.90617 3.19027 1.18808L 3.37751 1.35373C 3.59779 1.10473 3.876 0.9215 4.17899 0.796526L 4.08367 0.565413ZM 3.19018 1.18818L 0.372992 4.37943L 0.560411 4.54488L 3.3776 1.35363L 3.19018 1.18818ZM 0.373109 4.3793C 0.0397943 4.75579 -0.125686 5.2298 -0.124998 5.69638L 0.125002 5.69602C 0.124401 5.28819 0.269116 4.87391 0.560293 4.54502L 0.373109 4.3793ZM -0.124998 5.69605C -0.125686 6.25232 0.109578 6.81053 0.563697 7.20184L 0.726893 7.01246C 0.330231 6.67065 0.124401 6.18281 0.125002 5.69635L -0.124998 5.69605ZM 0.56363 7.20179L 3.19156 9.46955L 3.35489 9.28028L 0.72696 7.01252L 0.56363 7.20179ZM 3.1825 9.28893L 1.93586 10.6043L 2.11731 10.7763L 3.36395 9.4609L 3.1825 9.28893ZM 1.93584 10.6044C 1.56907 10.9915 1.38684 11.4931 1.38684 11.9885L 1.63684 11.9885C 1.63684 11.5537 1.7968 11.1147 2.11733 10.7763L 1.93584 10.6044ZM 1.38684 11.9883C 1.38615 12.5155 1.59312 13.0484 2.00396 13.4412L 2.17671 13.2604C 1.81786 12.9174 1.63624 12.4511 1.63684 11.9887L 1.38684 11.9883ZM 2.00372 13.4409L 2.25661 13.684L 2.42984 13.5037L 2.17695 13.2607L 2.00372 13.4409ZM 2.25668 13.684C 2.51234 13.9293 2.81851 14.0843 3.13619 14.1665L 3.19885 13.9245C 2.91724 13.8516 2.65071 13.7156 2.42977 13.5036L 2.25668 13.684ZM 3.05742 13.9863C 2.89816 14.2826 2.81003 14.6095 2.81072 14.9392L 3.06072 14.9386C 3.06013 14.6539 3.13629 14.3676 3.27762 14.1047L 3.05742 13.9863ZM 2.81072 14.9387C 2.81004 15.4663 3.01701 15.9988 3.42701 16.3918L 3.60002 16.2114C 3.24174 15.8679 3.06012 15.4018 3.06072 14.9391L 2.81072 14.9387ZM 3.57375 16.1921L 3.57311 16.1917L 3.45264 16.4108L 3.45328 16.4111L 3.57375 16.1921ZM 3.42619 16.3913L 3.67985 16.6354L 3.8532 16.4553L 3.59955 16.2112L 3.42619 16.3913ZM 3.68002 16.6356C 4.06533 17.005 4.56481 17.189 5.05684 17.1886L 5.05668 16.9386C 4.62645 16.9389 4.18983 16.778 3.85303 16.4551L 3.68002 16.6356ZM 5.05658 17.1886C 5.32148 17.189 5.58623 17.1352 5.83464 17.0301L 5.73727 16.7999C 5.51928 16.8921 5.28774 16.939 5.05694 16.9386L 5.05658 17.1886ZM 5.66451 16.9446C 5.75142 17.3012 5.93147 17.6423 6.21621 17.9155L 6.3893 17.7351C 6.14224 17.498 5.98421 17.2005 5.9074 16.8854L 5.66451 16.9446ZM 6.21608 17.9153L 6.46973 18.1595L 6.64309 17.9793L 6.38943 17.7352L 6.21608 17.9153ZM 6.4699 18.1596C 6.8552 18.529 7.3539 18.713 7.84672 18.7127L 7.84656 18.4627C 7.41559 18.463 6.97973 18.3021 6.64292 17.9792L 6.4699 18.1596ZM 7.84652 18.7127C 8.23234 18.7131 8.61928 18.5981 8.95215 18.3754L 8.81313 18.1676C 8.5215 18.3627 8.18305 18.463 7.84676 18.4627L 7.84652 18.7127ZM 8.76315 18.3082C 8.85975 18.6225 9.0263 18.9237 9.28212 19.1695L 9.45534 18.9892C 9.23468 18.7772 9.08822 18.5149 9.00212 18.2348L 8.76315 18.3082ZM 9.28205 19.1694L 9.5357 19.4135L 9.70906 19.2334L 9.45541 18.9893L 9.28205 19.1694ZM 9.53578 19.4136C 9.92039 19.7832 10.4199 19.9671 10.9121 19.9668L 10.9119 19.7168C 10.4815 19.717 10.045 19.5561 9.70899 19.2333L 9.53578 19.4136ZM 10.9119 19.9668C 11.4359 19.9671 11.9653 19.7589 12.3564 19.346L 12.1748 19.1741C 11.8331 19.535 11.3704 19.7171 10.9121 19.7168L 10.9119 19.9668ZM 12.3564 19.346L 13.4582 18.1822L 13.2766 18.0104L 12.1748 19.1741L 12.3564 19.346ZM 13.282 18.1876L 14.7789 19.5889L 14.9497 19.4063L 13.4528 18.0051L 13.282 18.1876ZM 14.7788 19.5888C 15.1612 19.9475 15.6521 20.1261 16.1368 20.125L 16.1362 19.875C 15.7129 19.8759 15.284 19.72 14.9498 19.4064L 14.7788 19.5888ZM 16.1362 20.125C 16.6686 20.1261 17.2056 19.9104 17.5974 19.4862L 17.4137 19.3166C 17.0712 19.6875 16.6019 19.876 16.1368 19.875L 16.1362 20.125ZM 17.5974 19.4862L 17.8363 19.2272L 17.6526 19.0577L 17.4137 19.3166L 17.5974 19.4862ZM 17.8364 19.2271C 18.0579 18.9865 18.2012 18.7031 18.2838 18.4103L 18.0432 18.3424C 17.9696 18.6032 17.8436 18.8502 17.6525 19.0578L 17.8364 19.2271ZM 18.0782 18.4677L 18.658 19.009L 18.8286 18.8263L 18.2488 18.285L 18.0782 18.4677ZM 18.6581 19.0091C 19.0411 19.3663 19.5312 19.544 20.015 19.5437L 20.0148 19.2937C 19.5919 19.294 19.1635 19.1386 18.8286 18.8263L 18.6581 19.0091ZM 20.0148 19.5437C 20.5475 19.544 21.0859 19.3285 21.4781 18.9039L 21.2945 18.7342C 20.9517 19.1054 20.481 19.294 20.015 19.2937L 20.0148 19.5437ZM 21.4784 18.9036L 21.716 18.645L 21.5319 18.4759L 21.2943 18.7345L 21.4784 18.9036ZM 21.7156 18.6453C 22.0095 18.3278 22.1738 17.9356 22.2244 17.5373L 21.9764 17.5058C 21.9317 17.8577 21.7871 18.2 21.5322 18.4755L 21.7156 18.6453ZM 22.0691 17.6425C 22.2283 17.6838 22.3945 17.7131 22.565 17.7131L 22.565 17.4631C 22.4227 17.4631 22.2787 17.4386 22.1318 17.4005L 22.0691 17.6425ZM 22.565 17.7131C 23.0978 17.7131 23.6347 17.4979 24.0272 17.0738L 23.8437 16.904C 23.5005 17.2748 23.0311 17.4631 22.565 17.4631L 22.565 17.7131ZM 24.0274 17.0736L 24.2657 16.8149L 24.0818 16.6455L 23.8435 16.9042L 24.0274 17.0736ZM 24.2656 16.815C 24.621 16.4297 24.7975 15.9359 24.7968 15.4494L 24.5468 15.4498C 24.5474 15.8763 24.3926 16.3086 24.0819 16.6455L 24.2656 16.815ZM 24.7968 15.4496C 24.7968 15.2962 24.775 15.1458 24.7426 15.0004L 24.4986 15.0547C 24.5283 15.188 24.5468 15.3196 24.5468 15.4496L 24.7968 15.4496ZM 24.6372 15.1514C 25.0774 15.0924 25.5067 14.8934 25.8338 14.5381L 25.6499 14.3688C 25.3662 14.6769 24.9923 14.8516 24.604 14.9037L 24.6372 15.1514ZM 25.8337 14.5382L 26.0726 14.2793L 25.8889 14.1097L 25.65 14.3687L 25.8337 14.5382ZM 26.0726 14.2793C 26.4281 13.8939 26.6038 13.4001 26.6038 12.9135L 26.3538 12.9135C 26.3538 13.3407 26.1995 13.773 25.8889 14.1098L 26.0726 14.2793ZM 26.6038 12.9137C 26.6045 12.3781 26.391 11.8371 25.969 11.4427L 25.7983 11.6253C 26.1671 11.97 26.3544 12.4435 26.3538 12.9134L 26.6038 12.9137ZM 25.9689 11.4426L 25.5221 11.0251L 25.3514 11.2078L 25.7983 11.6253L 25.9689 11.4426ZM 25.5299 11.1998L 29.5634 6.68902L 29.377 6.52238L 25.3435 11.0331L 25.5299 11.1998ZM 29.5635 6.68889C 29.9488 6.25683 30.1243 5.70322 30.125 5.16225L 29.875 5.16194C 29.8744 5.65054 29.7158 6.14239 29.3769 6.52251L 29.5635 6.68889ZM 3.63402 12.9607C 3.45062 12.9601 3.27299 12.8941 3.13413 12.761L 2.96114 12.9415C 3.14889 13.1214 3.38926 13.21 3.63325 13.2107L 3.63402 12.9607ZM 3.13418 12.761L 2.88088 12.518L 2.70779 12.6984L 2.96109 12.9414L 3.13418 12.761ZM 2.88073 12.5178C 2.73168 12.3753 2.65744 12.1855 2.65684 11.9882L 2.40684 11.9889C 2.40764 12.2496 2.50649 12.5059 2.70794 12.6985L 2.88073 12.5178ZM 2.65684 11.989C 2.65744 11.8039 2.72261 11.6254 2.85578 11.4849L 2.6743 11.3129C 2.49447 11.5027 2.40764 11.7437 2.40684 11.9881L 2.65684 11.989ZM 2.85578 11.4849L 5.40906 8.78987L 5.22758 8.61793L 2.6743 11.3129L 2.85578 11.4849ZM 5.40906 8.78988C 5.55067 8.64044 5.73931 8.56542 5.93448 8.56517L 5.93415 8.31517C 5.67394 8.31551 5.41867 8.41627 5.22759 8.61792L 5.40906 8.78988ZM 5.93411 8.56517C 6.11634 8.56547 6.2935 8.63153 6.43409 8.76548L 6.60654 8.58448C 6.41783 8.40468 6.17839 8.31558 5.93453 8.31517L 5.93411 8.56517ZM 6.43352 8.76493L 6.68576 9.00834L 6.85936 8.82844L 6.60711 8.58503L 6.43352 8.76493ZM 6.77256 8.91839C 6.66864 8.98786 6.66864 8.98785 6.66863 8.98784C 6.66863 8.98784 6.66862 8.98783 6.66862 8.98782C 6.66861 8.98782 6.66861 8.98782 6.66862 8.98782C 6.66862 8.98783 6.66865 8.98787 6.66868 8.98792C 6.66876 8.98804 6.6689 8.98824 6.66909 8.98854C 6.66949 8.98913 6.67011 8.99008 6.67096 8.99138C 6.67266 8.99397 6.67525 8.99793 6.67858 9.00313C 6.68526 9.01354 6.69494 9.02886 6.70662 9.04804C 6.73006 9.08651 6.7612 9.1399 6.7922 9.19981C 6.82336 9.26003 6.8534 9.32495 6.87545 9.38672C 6.89811 9.45022 6.90925 9.50208 6.90936 9.53866L 7.15936 9.53796C 7.15914 9.45989 7.1374 9.37694 7.11091 9.3027C 7.08381 9.22675 7.04844 9.15102 7.01423 9.08491C 6.97987 9.01851 6.94568 8.95991 6.92012 8.91797C 6.90731 8.89694 6.89659 8.87996 6.88898 8.86811C 6.88518 8.86218 6.88215 8.85753 6.88002 8.85428C 6.87896 8.85266 6.87812 8.85139 6.87752 8.85049C 6.87723 8.85004 6.87699 8.84968 6.87681 8.84942C 6.87673 8.84929 6.87665 8.84918 6.8766 8.8491C 6.87657 8.84905 6.87654 8.84902 6.87652 8.84899C 6.87651 8.84897 6.8765 8.84895 6.8765 8.84895C 6.87649 8.84893 6.87648 8.84892 6.77256 8.91839ZM 6.90936 9.53784C 6.90881 9.68467 6.86517 9.82745 6.78023 9.95147L 6.98649 10.0927C 7.09995 9.92707 7.15862 9.73534 7.15936 9.53878L 6.90936 9.53784ZM 6.79447 9.93422C 6.78901 9.93974 6.09831 10.6678 5.4116 11.3916C 5.06766 11.7542 4.72398 12.1164 4.46629 12.3881C 4.33744 12.5239 4.23009 12.6371 4.15496 12.7163C 4.11739 12.7559 4.08787 12.787 4.06775 12.8082C 4.05769 12.8188 4.04997 12.8269 4.04477 12.8324C 4.04217 12.8351 4.0402 12.8372 4.03888 12.8386C 4.03822 12.8393 4.03773 12.8398 4.03739 12.8402C 4.03723 12.8404 4.0371 12.8405 4.03702 12.8406C 4.03698 12.8406 4.03694 12.8407 4.03692 12.8407C 4.0369 12.8407 4.03689 12.8407 4.12758 12.9267C 4.21827 13.0128 4.21828 13.0128 4.2183 13.0127C 4.21832 13.0127 4.21835 13.0127 4.21839 13.0126C 4.21848 13.0126 4.2186 13.0124 4.21877 13.0122C 4.2191 13.0119 4.2196 13.0114 4.22026 13.0107C 4.22158 13.0093 4.22355 13.0072 4.22615 13.0045C 4.23135 12.999 4.23906 12.9909 4.24912 12.9802C 4.26925 12.959 4.29876 12.9279 4.33633 12.8883C 4.41147 12.8091 4.51882 12.696 4.64766 12.5601C 4.90535 12.2885 5.24903 11.9262 5.59297 11.5637C 5.93691 11.2011 6.28111 10.8383 6.53986 10.5656C 6.66924 10.4293 6.77725 10.3154 6.85318 10.2354C 6.93023 10.1542 6.97239 10.1098 6.97225 10.11L 6.79447 9.93422ZM 4.05483 12.8251C 3.93054 12.9141 3.7834 12.96 3.63309 12.9607L 3.63418 13.2107C 3.83496 13.2098 4.03282 13.1483 4.20033 13.0284L 4.05483 12.8251ZM 5.58216 15.6878C 5.44097 15.8365 5.25261 15.9113 5.05713 15.9119L 5.05791 16.1619C 5.31782 16.1611 5.57267 16.0609 5.76346 15.8599L 5.58216 15.6878ZM 5.05773 15.9119C 4.87473 15.9116 4.6976 15.8455 4.55784 15.7121L 4.38521 15.8929C 4.57334 16.0725 4.81293 16.1615 5.05731 16.1619L 5.05773 15.9119ZM 4.55815 15.7123L 4.3045 15.4685L 4.13125 15.6488L 4.3849 15.8926L 4.55815 15.7123ZM 4.27811 15.4491L 4.27746 15.4488L 4.15699 15.6678L 4.15764 15.6682L 4.27811 15.4491ZM 4.30379 15.4681C 4.15593 15.3262 4.08108 15.1357 4.08108 14.9387L 3.83108 14.9387C 3.83108 15.1997 3.93083 15.4566 4.13066 15.6485L 4.30379 15.4681ZM 4.08108 14.9387C 4.08108 14.7541 4.14668 14.5756 4.27946 14.4348L 4.09757 14.2633C 3.91887 14.4528 3.83108 14.6936 3.83108 14.9387L 4.08108 14.9387ZM 4.18852 14.349C 4.27915 14.4351 4.27917 14.4351 4.27919 14.4351C 4.27922 14.435 4.27926 14.435 4.27931 14.4349C 4.27941 14.4348 4.27957 14.4347 4.27977 14.4344C 4.28019 14.434 4.2808 14.4334 4.28162 14.4325C 4.28326 14.4308 4.2857 14.4282 4.28892 14.4248C 4.29536 14.418 4.30492 14.408 4.31738 14.3948C 4.34232 14.3686 4.3789 14.3301 4.42546 14.281C 4.51858 14.183 4.65164 14.0429 4.8114 13.8746C 5.13093 13.5381 5.55727 13.0891 5.9845 12.639C 6.41173 12.1889 6.83987 11.7377 7.163 11.3968C 7.32456 11.2264 7.4599 11.0836 7.55576 10.9822C 7.64833 10.8843 7.70982 10.8192 7.71687 10.8107L 7.52443 10.6511C 7.52596 10.6493 7.51559 10.6605 7.48637 10.6916C 7.45997 10.7196 7.42202 10.7598 7.37413 10.8104C 7.27838 10.9117 7.14312 11.0544 6.98157 11.2248C 6.6585 11.5656 6.2304 12.0168 5.80317 12.4669C 5.37596 12.917 4.94963 13.366 4.63011 13.7025C 4.47035 13.8707 4.33729 14.0108 4.24418 14.1089C 4.19762 14.1579 4.16104 14.1964 4.13611 14.2227C 4.12364 14.2358 4.11408 14.2459 4.10764 14.2527C 4.10442 14.256 4.10198 14.2586 4.10035 14.2603C 4.09953 14.2612 4.09891 14.2618 4.0985 14.2623C 4.09829 14.2625 4.09814 14.2627 4.09804 14.2628C 4.09798 14.2628 4.09795 14.2629 4.09792 14.2629C 4.09789 14.2629 4.09788 14.2629 4.18852 14.349ZM 7.70781 10.8205C 7.84677 10.6853 8.02501 10.6159 8.20954 10.6156L 8.20913 10.3656C 7.96077 10.366 7.71983 10.46 7.53348 10.6413L 7.70781 10.8205ZM 8.20913 10.6156C 8.39225 10.6159 8.56928 10.6818 8.70891 10.8154L 8.88175 10.6347C 8.69349 10.4546 8.4538 10.366 8.20955 10.3656L 8.20913 10.6156ZM 8.70865 10.8151L 8.96231 11.0592L 9.13566 10.8791L 8.88201 10.635L 8.70865 10.8151ZM 8.96259 11.0595C 9.1108 11.2013 9.18523 11.3914 9.18578 11.5892L 9.43578 11.5885C 9.43505 11.3276 9.33616 11.0709 9.13538 10.8788L 8.96259 11.0595ZM 9.18578 11.5884C 9.18518 11.7733 9.11948 11.9522 8.98666 12.093L 9.16849 12.2645C 9.34739 12.0749 9.43498 11.8339 9.43578 11.5892L 9.18578 11.5884ZM 8.98682 12.0928L 5.58206 15.6879L 5.76357 15.8598L 9.16834 12.2647L 8.98682 12.0928ZM 8.37144 17.2116C 8.23064 17.3606 8.04246 17.4355 7.84699 17.436L 7.8477 17.686C 8.10774 17.6853 8.36264 17.5849 8.55313 17.3833L 8.37144 17.2116ZM 7.84755 17.436C 7.66457 17.4357 7.4875 17.3696 7.34777 17.2359L 7.17493 17.4165C 7.36309 17.5966 7.60274 17.6856 7.84714 17.686L 7.84755 17.436ZM 7.34785 17.236L 7.09349 16.9921L 6.92049 17.1726L 7.17485 17.4164L 7.34785 17.236ZM 7.09349 16.9921C 6.94497 16.8498 6.8702 16.6596 6.8702 16.4627L 6.6202 16.4627C 6.6202 16.7239 6.72003 16.9805 6.9205 17.1726L 7.09349 16.9921ZM 6.8702 16.4627C 6.8702 16.2996 6.9249 16.1411 7.03075 16.0083L 6.83523 15.8525C 6.6944 16.0292 6.6202 16.2425 6.6202 16.4627L 6.8702 16.4627ZM 7.02374 16.0163L 9.39397 13.514L 9.21247 13.3421L 6.84224 15.8444L 7.02374 16.0163ZM 9.38746 13.5204C 9.52461 13.3953 9.69505 13.3304 9.87117 13.3304L 9.87117 13.0804C 9.63198 13.0804 9.40164 13.1691 9.21898 13.3357L 9.38746 13.5204ZM 9.87097 13.3304C 10.0541 13.3307 10.2311 13.3965 10.3707 13.5301L 10.5436 13.3495C 10.3553 13.1694 10.1156 13.0808 9.87138 13.0804L 9.87097 13.3304ZM 10.3706 13.53L 10.625 13.7741L 10.7981 13.5937L 10.5437 13.3496L 10.3706 13.53ZM 10.625 13.7741C 10.7728 13.9161 10.8478 14.1064 10.8483 14.3036L 11.0983 14.3029C 11.0976 14.0421 10.9979 13.7856 10.7981 13.5938L 10.625 13.7741ZM 10.8483 14.3028C 10.8477 14.4879 10.7814 14.6669 10.6491 14.8074L 10.8311 14.9788C 11.0091 14.7898 11.0975 14.5489 11.0983 14.3036L 10.8483 14.3028ZM 10.6494 14.8072L 8.37154 17.2115L 8.55303 17.3834L 10.8309 14.9791L 10.6494 14.8072ZM 12.8752 16.9474L 11.4369 18.4657L 11.6184 18.6376L 13.0567 17.1193L 12.8752 16.9474ZM 11.4369 18.4657C 11.296 18.6146 11.1075 18.6895 10.912 18.6901L 10.9127 18.9401C 11.1727 18.9393 11.4279 18.839 11.6185 18.6376L 11.4369 18.4657ZM 10.9126 18.6901C 10.7296 18.6898 10.5525 18.6237 10.4128 18.49L 10.24 18.6706C 10.4281 18.8506 10.6678 18.9397 10.9122 18.9401L 10.9126 18.6901ZM 10.413 18.4902L 10.1594 18.2463L 9.98611 18.4266L 10.2398 18.6704L 10.413 18.4902ZM 10.1593 18.2463C 10.0114 18.1043 9.93649 17.9137 9.93594 17.7165L 9.68594 17.7172C 9.68667 17.9779 9.78633 18.2348 9.98617 18.4266L 10.1593 18.2463ZM 9.93594 17.7172C 9.93649 17.5319 10.0023 17.3531 10.1349 17.2132L 9.95341 17.0412C 9.77429 17.2302 9.68667 17.4714 9.68594 17.7164L 9.93594 17.7172ZM 10.1349 17.2131L 11.5725 15.6949L 11.391 15.523L 9.95338 17.0412L 10.1349 17.2131ZM 11.5724 15.695C 11.714 15.5459 11.9027 15.4708 12.0979 15.4705L 12.0975 15.2205C 11.8373 15.2209 11.5822 15.3217 11.3911 15.5229L 11.5724 15.695ZM 12.0975 15.4705C 12.28 15.4708 12.4576 15.5367 12.5972 15.6705L 12.7703 15.4901C 12.5819 15.3095 12.3415 15.2209 12.0979 15.2205L 12.0975 15.4705ZM 12.5972 15.6706L 12.8516 15.9144L 13.0246 15.7339L 12.7702 15.4901L 12.5972 15.6706ZM 12.8515 15.9143C 12.9992 16.0561 13.0736 16.2464 13.0742 16.4438L 13.3242 16.443C 13.3234 16.1826 13.2246 15.926 13.0247 15.734L 12.8515 15.9143ZM 13.0742 16.443C 13.0735 16.6283 13.0077 16.8072 12.8751 16.9475L 13.0568 17.1192C 13.2357 16.9299 13.3233 16.6888 13.3242 16.4439L 13.0742 16.443ZM 25.3353 12.9147C 25.3351 13.0957 25.2712 13.2717 25.1421 13.4117L 25.3259 13.5812C 25.4995 13.3929 25.585 13.1558 25.5853 12.9151L 25.3353 12.9147ZM 25.1421 13.4117L 24.9038 13.6703L 25.0876 13.8397L 25.3259 13.5811L 25.1421 13.4117ZM 24.9039 13.6702C 24.7623 13.8234 24.5704 13.9011 24.3723 13.9014L 24.3727 14.1514C 24.6368 14.151 24.8963 14.0467 25.0875 13.8399L 24.9039 13.6702ZM 24.3728 13.9014C 24.1931 13.9011 24.0187 13.8376 23.8801 13.708L 23.7094 13.8906C 23.8965 14.0656 24.1327 14.151 24.3723 14.1514L 24.3728 13.9014ZM 23.8801 13.708L 19.8644 9.95162L 19.6936 10.1342L 23.7094 13.8905L 23.8801 13.708ZM 19.6872 9.95811L 18.9928 10.7101L 19.1765 10.8797L 19.8709 10.1277L 19.6872 9.95811ZM 18.9992 10.8861L 23.2975 14.9138L 23.4684 14.7314L 19.1701 10.7037L 18.9992 10.8861ZM 23.2975 14.9139C 23.4497 15.0564 23.5271 15.2504 23.5282 15.4509L 23.7782 15.4495C 23.7767 15.1852 23.6742 14.9241 23.4684 14.7314L 23.2975 14.9139ZM 23.5282 15.4494C 23.5271 15.632 23.4635 15.8077 23.3349 15.9476L 23.5189 16.1169C 23.6922 15.9284 23.7767 15.6918 23.7782 15.451L 23.5282 15.4494ZM 23.3348 15.9477L 23.0972 16.2063L 23.2813 16.3754L 23.5189 16.1168L 23.3348 15.9477ZM 23.0975 16.206C 22.956 16.3591 22.7641 16.4366 22.5658 16.4373L 22.5665 16.6873C 22.8304 16.6864 23.0899 16.5826 23.2811 16.3757L 23.0975 16.206ZM 22.5665 16.4373C 22.3867 16.4367 22.2117 16.3727 22.0745 16.2442L 21.9036 16.4266C 22.0895 16.6008 22.3263 16.6865 22.5658 16.6873L 22.5665 16.4373ZM 22.0744 16.2441L 18.0576 12.4878L 17.8868 12.6704L 21.9036 16.4267L 22.0744 16.2441ZM 17.8803 12.4943L 17.1867 13.2464L 17.3704 13.4159L 18.0641 12.6638L 17.8803 12.4943ZM 17.1931 13.4224L 20.7579 16.7567L 20.9286 16.5742L 17.3639 13.2398L 17.1931 13.4224ZM 20.7563 16.7552C 20.9029 16.8973 20.9781 17.0863 20.9781 17.2812L 21.2281 17.2812C 21.2281 17.0211 21.1272 16.7666 20.9303 16.5757L 20.7563 16.7552ZM 20.9781 17.2812C 20.9781 17.4626 20.9147 17.6384 20.7862 17.7778L 20.97 17.9473C 21.1434 17.7591 21.2281 17.5219 21.2281 17.2812L 20.9781 17.2812ZM 20.7861 17.7779L 20.5478 18.0365L 20.7317 18.2059L 20.97 17.9473L 20.7861 17.7779ZM 20.5478 18.0365C 20.4071 18.1894 20.2147 18.2673 20.0156 18.2679L 20.0163 18.5179C 20.2808 18.5171 20.541 18.413 20.7317 18.2059L 20.5478 18.0365ZM 20.0164 18.2679C 19.8359 18.2673 19.6615 18.2034 19.5235 18.0746L 19.3529 18.2574C 19.5394 18.4314 19.7754 18.5171 20.0156 18.5179L 20.0164 18.2679ZM 19.5235 18.0746L 15.9659 14.7524L 15.7953 14.9351L 19.3529 18.2574L 19.5235 18.0746ZM 15.8806 14.7188L 15.88 14.7188L 15.88 14.9688L 15.8806 14.9688L 15.8806 14.7188ZM 15.9689 14.7559L 15.9682 14.7552L 15.7904 14.931L 15.7911 14.9317L 15.9689 14.7559ZM 15.7873 14.7585L 15.0949 15.5119L 15.279 15.6811L 15.9714 14.9277L 15.7873 14.7585ZM 15.1019 15.6881L 15.1026 15.6887L 15.2728 15.5056L 15.2721 15.5049L 15.1019 15.6881ZM 15.1012 15.6874L 15.1145 15.7002L 15.2874 15.5196L 15.2741 15.5069L 15.1012 15.6874ZM 15.1157 15.7013L 16.8975 17.3646L 17.0681 17.1819L 15.2863 15.5185L 15.1157 15.7013ZM 16.8927 17.3599C 17.0279 17.5005 17.0976 17.6798 17.0981 17.8657L 17.3481 17.8649C 17.3474 17.6157 17.2534 17.3743 17.0729 17.1866L 16.8927 17.3599ZM 17.0981 17.8649C 17.0976 18.0455 17.0347 18.2204 16.9062 18.3599L 17.09 18.5293C 17.2635 18.3411 17.3474 18.105 17.3481 17.8657L 17.0981 17.8649ZM 16.9061 18.36L 16.6678 18.6189L 16.8518 18.7882L 17.0901 18.5293L 16.9061 18.36ZM 16.668 18.6187C 16.5265 18.7718 16.3353 18.849 16.1376 18.8496L 16.1384 19.0996C 16.4016 19.0988 16.6604 18.9953 16.8516 18.7884L 16.668 18.6187ZM 16.1384 18.8496C 15.9585 18.849 15.7842 18.7854 15.6463 18.6562L 15.4754 18.8386C 15.662 19.0135 15.8982 19.0988 16.1376 19.0996L 16.1384 18.8496ZM 15.6463 18.6562L 14.0949 17.2031L 13.924 17.3856L 15.4754 18.8386L 15.6463 18.6562ZM 14.1211 17.3506C 14.2639 17.0672 14.3448 16.7573 14.3448 16.4441L 14.0948 16.4441C 14.0948 16.7143 14.025 16.9858 13.8978 17.2381L 14.1211 17.3506ZM 14.3448 16.4442C 14.3455 15.917 14.1385 15.3849 13.7286 14.9916L 13.5555 15.172C 13.9138 15.5158 14.0954 15.9815 14.0948 16.4439L 14.3448 16.4442ZM 13.7286 14.9916L 13.4742 14.7475L 13.3011 14.9279L 13.5555 15.172L 13.7286 14.9916ZM 13.4742 14.7475C 13.0897 14.3783 12.5908 14.194 12.0986 14.1947L 12.099 14.4447C 12.5291 14.4441 12.9651 14.6052 13.3011 14.9278L 13.4742 14.7475ZM 12.0988 14.1947C 12.0721 14.1947 12.0471 14.1978 12.0289 14.2002C 12.0082 14.2029 11.9963 14.2046 11.9844 14.2053L 11.9992 14.4549C 12.0224 14.4535 12.0461 14.4501 12.0612 14.4481C 12.0787 14.4458 12.0897 14.4447 12.0988 14.4447L 12.0988 14.1947ZM 12.1168 14.3301C 12.1168 14.3314 12.1168 14.3325 12.1167 14.3331C 12.1167 14.3338 12.1167 14.3342 12.1167 14.3342C 12.1167 14.3343 12.1167 14.3341 12.1167 14.3335C 12.1168 14.3329 12.1169 14.3322 12.117 14.3311C 12.1172 14.3292 12.1177 14.3252 12.118 14.3211C 12.1184 14.3167 12.1188 14.3108 12.1188 14.3039L 11.8688 14.3039C 11.8688 14.3026 11.8688 14.3016 11.8689 14.3009C 11.8689 14.3002 11.8689 14.2998 11.8689 14.2998C 11.8689 14.2998 11.8689 14.2999 11.8689 14.3005C 11.8688 14.3011 11.8687 14.3018 11.8686 14.303C 11.8684 14.3049 11.8679 14.3088 11.8676 14.313C 11.8672 14.3173 11.8668 14.3233 11.8668 14.3301L 12.1168 14.3301ZM 12.1188 14.3041C 12.119 14.1591 12.0774 13.9962 12.0214 13.84C 11.9648 13.682 11.8899 13.5217 11.8161 13.3793C 11.7422 13.2367 11.6684 13.1102 11.6132 13.0193C 11.5855 12.9739 11.5624 12.9372 11.5461 12.9118C 11.538 12.8991 11.5316 12.8892 11.5271 12.8824C 11.5249 12.879 11.5232 12.8764 11.522 12.8745C 11.5214 12.8736 11.5209 12.8729 11.5206 12.8724C 11.5204 12.8722 11.5203 12.872 11.5202 12.8719C 11.5202 12.8718 11.5201 12.8717 11.5201 12.8717C 11.5201 12.8717 11.5201 12.8716 11.52 12.8716C 11.52 12.8716 11.52 12.8716 11.416 12.9409C 11.312 13.0102 11.312 13.0102 11.312 13.0102C 11.312 13.0102 11.312 13.0102 11.312 13.0102C 11.312 13.0102 11.312 13.0102 11.312 13.0103C 11.312 13.0103 11.3121 13.0105 11.3122 13.0106C 11.3125 13.011 11.3128 13.0115 11.3133 13.0123C 11.3143 13.0138 11.3159 13.0161 11.3179 13.0192C 11.3219 13.0253 11.3279 13.0346 11.3356 13.0466C 11.3509 13.0706 11.373 13.1056 11.3996 13.1493C 11.4528 13.2367 11.5235 13.3581 11.5942 13.4944C 11.6649 13.6309 11.7345 13.7805 11.7861 13.9244C 11.8384 14.0702 11.8689 14.2013 11.8688 14.3038L 12.1188 14.3041ZM 11.5025 12.8507L 11.2489 12.6073L 11.0758 12.7877L 11.3294 13.0311L 11.5025 12.8507ZM 11.2489 12.6073C 10.9611 12.3313 10.6099 12.1591 10.2448 12.0899L 10.1982 12.3355C 10.5175 12.396 10.8243 12.5465 11.0758 12.7877L 11.2489 12.6073ZM 10.3395 12.2539C 10.4141 12.0404 10.457 11.8161 10.457 11.5896L 10.207 11.5896C 10.207 11.7846 10.17 11.981 10.1035 12.1715L 10.3395 12.2539ZM 10.457 11.5896C 10.457 11.0627 10.2507 10.5301 9.84065 10.1371L 9.66767 10.3176C 10.0259 10.6609 10.207 11.127 10.207 11.5896L 10.457 11.5896ZM 9.84084 10.1373L 9.58719 9.89316L 9.41383 10.0733L 9.66748 10.3174L 9.84084 10.1373ZM 9.58702 9.893C 9.20178 9.52363 8.7031 9.33926 8.21082 9.33964L 8.21101 9.58964C 8.64124 9.58931 9.07713 9.75047 9.414 10.0735L 9.58702 9.893ZM 8.21092 9.33964C 8.17596 9.33964 8.14296 9.34321 8.11492 9.34674C 8.08444 9.35058 8.063 9.35387 8.03908 9.35604L 8.06167 9.60502C 8.0913 9.60233 8.12321 9.59767 8.14615 9.59478C 8.17153 9.59159 8.19203 9.58964 8.21092 9.58964L 8.21092 9.33964ZM 8.17531 9.47668C 8.15973 8.97137 7.95844 8.4648 7.56499 8.08672L 7.39177 8.26698C 7.73461 8.59642 7.91171 9.03941 7.92543 9.48438L 8.17531 9.47668ZM 7.60338 8.17685L 7.60338 8.17649L 7.35338 8.17649L 7.35338 8.17685L 7.60338 8.17685ZM 7.56499 8.08636L 7.31204 7.84331L 7.13882 8.02358L 7.39177 8.26663L 7.56499 8.08636ZM 7.31199 7.84326C 6.92673 7.4735 6.42803 7.28913 5.93574 7.28951L 5.93594 7.53951C 6.36616 7.53918 6.80202 7.70032 7.13888 8.02363L 7.31199 7.84326ZM 5.93593 7.28951C 5.41111 7.28913 4.88247 7.49735 4.49145 7.91025L 4.67297 8.08216C 5.01472 7.72128 5.47666 7.53918 5.93575 7.53951L 5.93593 7.28951ZM 4.49147 7.91024L 3.88877 8.5464L 4.07026 8.71834L 4.67295 8.08217L 4.49147 7.91024ZM 4.06116 8.53772L 1.39128 6.2344L 1.22798 6.42369L 3.89786 8.72702L 4.06116 8.53772ZM 1.39146 6.23455C 1.22832 6.09327 1.14683 5.89863 1.14623 5.69701L 0.896233 5.69776C 0.897038 5.96778 1.00716 6.23246 1.2278 6.42354L 1.39146 6.23455ZM 1.14623 5.69779C 1.14678 5.52888 1.20323 5.36513 1.32388 5.22846L 1.13647 5.063C 0.973536 5.24756 0.896971 5.47071 0.896233 5.69698L 1.14623 5.69779ZM 1.32389 5.22846L 4.14102 2.03727L 3.9536 1.87182L 1.13647 5.06301L 1.32389 5.22846ZM 4.1411 2.03718C 4.23821 1.92695 4.38672 1.8224 4.56569 1.74873L 4.47053 1.51755C 4.26219 1.60331 4.07999 1.72836 3.95352 1.87191L 4.1411 2.03718ZM 4.56566 1.74874C 4.74447 1.67519 4.94812 1.63477 5.13697 1.63505L 5.13733 1.38505C 4.91509 1.38472 4.67905 1.43178 4.47056 1.51754L 4.56566 1.74874ZM 5.13715 1.63505C 5.30192 1.63505 5.45243 1.66536 5.56851 1.71601L 5.66848 1.48686C 5.51585 1.42028 5.33039 1.38505 5.13715 1.38505L 5.13715 1.63505ZM 5.56896 1.7162L 7.11561 2.38372L 7.21467 2.15418L 5.66803 1.48667L 5.56896 1.7162ZM 7.11612 2.38394C 7.57198 2.57827 8.09591 2.65599 8.61563 2.65768L 8.61644 2.40769C 8.11874 2.40606 7.63029 2.33135 7.21416 2.15396L 7.11612 2.38394ZM 8.61646 2.65768C 9.13677 2.65593 9.66003 2.5782 10.1159 2.38395L 10.0179 2.15395C 9.60173 2.3313 9.1139 2.406 8.61561 2.40769L 8.61646 2.65768ZM 10.1165 2.38372L 11.6624 1.7165L 11.5633 1.48696L 10.0174 2.15418L 10.1165 2.38372ZM 11.6633 1.71609C 11.8813 1.61993 12.2224 1.55644 12.5679 1.55776L 12.5688 1.30776C 12.1991 1.30635 11.8211 1.37325 11.5624 1.48737L 11.6633 1.71609ZM 12.5691 1.55776C 12.9516 1.55541 13.326 1.6363 13.5323 1.74279L 13.647 1.52064C 13.3938 1.38996 12.976 1.30525 12.5676 1.30776L 12.5691 1.55776ZM 13.5335 1.74337C 13.6794 1.81681 13.8176 1.88643 13.9459 1.95148L 14.059 1.72849C 13.9303 1.66326 13.7917 1.59349 13.6458 1.52006L 13.5335 1.74337ZM 13.93 1.73811L 12.3534 2.85913L 12.4982 3.06288L 14.0749 1.94185L 13.93 1.73811ZM 12.3533 2.85914C 11.8125 3.24386 11.5211 3.8556 11.5219 4.4728L 11.7719 4.4725C 11.7712 3.93317 12.0259 3.39882 12.4983 3.06286L 12.3533 2.85914ZM 11.5219 4.47244C 11.5212 4.88127 11.6493 5.29713 11.9097 5.64989L 12.1108 5.50141C 11.883 5.19288 11.7713 4.8295 11.7719 4.47286L 11.5219 4.47244ZM 12.1029 5.49174L 12.1023 5.49103L 11.917 5.65885L 11.9176 5.65957L 12.1029 5.49174ZM 11.9089 5.64902L 12.1172 5.93207L 12.3185 5.78392L 12.1103 5.50087L 11.9089 5.64902ZM 12.1175 5.93259C 12.5385 6.49867 13.1937 6.78805 13.846 6.78949L 13.8466 6.53949C 13.2661 6.53821 12.6881 6.2808 12.3182 5.7834L 12.1175 5.93259ZM 13.8463 6.78949C 14.2155 6.78949 14.5928 6.69512 14.9297 6.49067L 14.8 6.27694C 14.505 6.45595 14.1732 6.53949 13.8463 6.53949L 13.8463 6.78949ZM 14.9298 6.49064L 15.8727 5.91789L 15.7429 5.70422L 14.8 6.27697L 14.9298 6.49064ZM 15.8735 5.91737C 16.0417 5.81334 16.3078 5.74204 16.5902 5.74332L 16.5913 5.49332C 16.2731 5.49188 15.9585 5.57088 15.742 5.70475L 15.8735 5.91737ZM 16.5915 5.74332C 16.924 5.74137 17.2512 5.8419 17.4383 5.98101L 17.5875 5.78038C 17.3471 5.60171 16.9633 5.49113 16.59 5.49333L 16.5915 5.74332ZM 17.4395 5.98189L 20.0481 7.87349L 20.1948 7.6711L 17.5863 5.7795L 17.4395 5.98189ZM 20.0481 7.87352C 20.6244 8.29111 21.5659 9.06807 22.0861 9.5555L 22.2571 9.37308C 21.7292 8.87847 20.7796 8.09482 20.1948 7.67108L 20.0481 7.87352ZM 22.0862 9.55559L 25.1055 12.3792L 25.2762 12.1966L 22.257 9.37299L 22.0862 9.55559ZM 25.1053 12.3791C 25.2575 12.5218 25.3347 12.7148 25.3353 12.9153L 25.5853 12.9145C 25.5845 12.6495 25.4818 12.3894 25.2764 12.1967L 25.1053 12.3791ZM 28.62 5.83596L 24.5978 10.3346L 24.7841 10.5013L 28.8063 6.00259L 28.62 5.83596ZM 24.7763 10.3266L 22.9501 8.61917L 22.7794 8.80179L 24.6056 10.5092L 24.7763 10.3266ZM 22.9501 8.61912C 22.3744 8.08155 21.4272 7.29941 20.7903 6.8367L 20.6433 7.03896C 21.2719 7.49558 22.2111 8.27119 22.7794 8.80184L 22.9501 8.61912ZM 20.7902 6.83664L 18.1824 4.94504L 18.0356 5.14741L 20.6434 7.03901L 20.7902 6.83664ZM 18.1818 4.94462C 17.7141 4.60951 17.1459 4.4675 16.5908 4.46541L 16.5898 4.71541C 17.1051 4.71735 17.6195 4.84926 18.0362 5.14783L 18.1818 4.94462ZM 16.5899 4.46541C 16.117 4.46683 15.6349 4.57103 15.2154 4.82364L 15.3444 5.0378C 15.7171 4.81331 16.1527 4.71672 16.5907 4.71541L 16.5899 4.46541ZM 15.215 4.8239L 14.2728 5.39665L 14.4026 5.61028L 15.3448 5.03753L 15.215 4.8239ZM 14.2728 5.39666C 14.1494 5.47167 14.0018 5.51126 13.8455 5.51158L 13.846 5.76158C 14.0438 5.76118 14.2369 5.71105 14.4027 5.61027L 14.2728 5.39666ZM 13.8453 5.51158C 13.5649 5.51252 13.2879 5.37907 13.1373 5.17173L 12.935 5.31863C 13.1375 5.59752 13.4938 5.76277 13.8462 5.76158L 13.8453 5.51158ZM 13.1369 5.1712L 12.9293 4.8885L 12.7278 5.03647L 12.9354 5.31917L 13.1369 5.1712ZM 12.9175 4.8746L 12.9168 4.87389L 12.739 5.04965L 12.7397 5.05037L 12.9175 4.8746ZM 12.9287 4.88787C 12.8343 4.75915 12.7909 4.61603 12.7902 4.47055L 12.5402 4.47166C 12.5411 4.66827 12.6005 4.86308 12.7271 5.03568L 12.9287 4.88787ZM 12.7902 4.47176C 12.7914 4.25118 12.8915 4.03869 13.0856 3.90011L 12.9403 3.69664C 12.6775 3.88426 12.5418 4.17376 12.5402 4.47046L 12.7902 4.47176ZM 13.0854 3.90027L 15.8732 1.91899L 15.7284 1.71521L 12.9406 3.69649L 13.0854 3.90027ZM 15.8746 1.91796C 16.0887 1.76121 16.4893 1.64195 16.8771 1.64488L 16.879 1.39489C 16.4521 1.39166 15.995 1.52001 15.727 1.71625L 15.8746 1.91796ZM 16.8786 1.64488C 17.147 1.64359 17.3969 1.69864 17.5605 1.78035L 17.6722 1.5567C 17.4656 1.4535 17.175 1.39345 16.8774 1.39488L 16.8786 1.64488ZM 17.5614 1.78077L 19.831 2.89279L 19.941 2.66829L 17.6714 1.55627L 17.5614 1.78077ZM 19.8314 2.89298C 20.2394 3.09111 20.6957 3.1703 21.1487 3.1714L 21.1493 2.9214C 20.7236 2.92037 20.3066 2.84583 19.9406 2.6681L 19.8314 2.89298ZM 21.1496 3.1714C 21.7306 3.16854 22.3255 3.04095 22.8203 2.73363L 22.6883 2.52127C 22.2427 2.79808 21.6964 2.9187 21.1484 2.92141L 21.1496 3.1714ZM 22.8209 2.73325L 25.1393 1.27441L 25.0062 1.06281L 22.6877 2.52165L 22.8209 2.73325ZM 25.1395 1.27431C 25.2657 1.19462 25.4197 1.15191 25.5834 1.15191L 25.5834 0.901907C 25.3768 0.901907 25.1757 0.955793 25.006 1.06291L 25.1395 1.27431ZM 25.5837 1.15191C 25.8621 1.15133 26.1367 1.27995 26.288 1.47933L 26.4872 1.32823C 26.2832 1.0594 25.9307 0.901183 25.5832 0.901907L 25.5837 1.15191ZM 26.2887 1.48021L 28.6657 4.5566L 28.8635 4.40375L 26.4865 1.32735L 26.2887 1.48021ZM 28.6659 4.55692C 28.7835 4.7081 28.8561 4.92858 28.8561 5.16257L 29.1061 5.16257C 29.1061 4.8813 29.0198 4.60464 28.8633 4.40343L 28.6659 4.55692ZM 28.8561 5.16274C 28.8564 5.42472 28.7642 5.67668 28.6205 5.83536L 28.8058 6.00319C 28.9975 5.79158 29.1065 5.4766 29.1061 5.16239L 28.8561 5.16274Z"/>
</defs>
</svg>
