<svg width="50" height="50" viewBox="0 0 50 50" version="1.1" xmlns="http://www.w3.org/2000/svg" xmlns:xlink="http://www.w3.org/1999/xlink">
<title>Group 2</title>
<desc>Created using Figma</desc>
<g id="Canvas" transform="translate(9531 -15673)">
<g id="Group 2">
<g id="Ellipse">
<mask id="mask0_outline_ins">
<use xlink:href="#path0_fill" fill="white" transform="translate(-9531 15673)"/>
</mask>
<g mask="url(#mask0_outline_ins)">
<use xlink:href="#path1_stroke_2x" transform="translate(-9531 15673)" fill="#FFFFFF"/>
</g>
</g>
<g id="Group">
<g id="Group">
<g id="Group">
<g id="Group">
<g id="Vector">
<use xlink:href="#path2_fill" transform="translate(-9509.21 15683)" fill="#FFFFFF"/>
</g>
</g>
</g>
<g id="Group">
<g id="Group">
<g id="Vector">
<use xlink:href="#path3_fill" transform="translate(-9509.21 15691.4)" fill="#FFFFFF"/>
</g>
</g>
</g>
<g id="Group">
<g id="Group">
<g id="Vector">
<use xlink:href="#path4_fill" transform="translate(-9509.21 15699.8)" fill="#FFFFFF"/>
</g>
</g>
</g>
<g id="Group">
<g id="Group">
<g id="Vector">
<use xlink:href="#path5_fill" transform="translate(-9509.21 15707.8)" fill="#FFFFFF"/>
</g>
</g>
</g>
<g id="Vector">
<use xlink:href="#path6_fill" transform="translate(-9501.53 15693.3)" fill="#FFFFFF"/>
</g>
<g id="Vector">
<use xlink:href="#path7_fill" transform="translate(-9517 15685.1)" fill="#FFFFFF"/>
</g>
<g id="Vector">
<use xlink:href="#path8_fill" transform="translate(-9517 15701.6)" fill="#FFFFFF"/>
</g>
</g>
</g>
</g>
</g>
<defs>
<path id="path0_fill" d="M 50 25C 50 38.8071 38.8071 50 25 50C 11.1929 50 0 38.8071 0 25C 0 11.1929 11.1929 0 25 0C 38.8071 0 50 11.1929 50 25Z"/>
<path id="path1_stroke_2x" d="M 48 25C 48 37.7025 37.7025 48 25 48L 25 52C 39.9117 52 52 39.9117 52 25L 48 25ZM 25 48C 12.2975 48 2 37.7025 2 25L -2 25C -2 39.9117 10.0883 52 25 52L 25 48ZM 2 25C 2 12.2975 12.2975 2 25 2L 25 -2C 10.0883 -2 -2 10.0883 -2 25L 2 25ZM 25 2C 37.7025 2 48 12.2975 48 25L 52 25C 52 10.0883 39.9117 -2 25 -2L 25 2Z"/>
<path id="path2_fill" d="M 4.94144 0.00464442C 3.75167 -0.00154814 2.56094 -0.00154814 1.36826 0.00464442C 0.498446 0.00940793 0.0148914 0.482901 0.00521064 1.33843C -0.0015659 1.93434 -0.00156629 2.57361 0.00424217 3.41246C 0.0110187 4.31467 0.486345 4.77625 1.41812 4.78435C 1.63933 4.78626 1.86053 4.78673 2.08125 4.78673L 3.1626 4.78435L 4.25943 4.78769C 4.54695 4.78769 4.78219 4.78531 5.00291 4.78149C 5.79432 4.76625 6.274 4.29419 6.28659 3.51821C 6.29675 2.83798 6.29772 2.11488 6.28755 1.30651C 6.27642 0.470992 5.79867 0.00845523 4.94144 0.00464442ZM 4.93563 1.24935C 4.95257 1.24935 4.98888 1.24983 5.02082 1.25126C 5.02179 1.27269 5.02227 1.29794 5.02227 1.32176C 5.03244 2.11821 5.03244 2.83036 5.02227 3.4982C 5.02227 3.51249 5.02131 3.52488 5.02131 3.53536C 5.00872 3.53584 4.99517 3.53631 4.9792 3.53631C 4.7667 3.54012 4.53824 3.54203 4.25991 3.54203L 3.16163 3.53917L 2.08319 3.54155C 1.86586 3.54155 1.64755 3.54108 1.42925 3.53917C 1.36004 3.53869 1.31018 3.53488 1.27581 3.5306C 1.27291 3.50059 1.26952 3.45914 1.26952 3.40341C 1.26371 2.57313 1.26371 1.94101 1.27049 1.35224C 1.27049 1.32557 1.27146 1.28412 1.27291 1.25126C 1.30631 1.24983 1.34793 1.24935 1.37456 1.24935C 2.5619 1.24316 3.74925 1.24316 4.93563 1.24935Z"/>
<path id="path3_fill" d="M 1.34333 4.78233C 1.57906 4.78614 1.81527 4.78757 2.05245 4.78757L 3.14638 4.78519L 4.2345 4.78757C 4.48088 4.78757 4.72822 4.78614 4.97508 4.78233C 5.79891 4.76947 6.27763 4.30217 6.28876 3.50047C 6.29893 2.75926 6.29893 2.01473 6.28779 1.28829C 6.27666 0.489927 5.78439 0.0102415 4.97121 0.00547802C 3.7645 -0.0021436 2.55827 -0.00119128 1.35156 0.00452493C 0.508851 0.00976479 0.0185196 0.485164 0.00738674 1.30973C -0.00229404 1.99758 -0.00229444 2.72592 0.00641827 3.47522C 0.0170671 4.30502 0.490941 4.76947 1.34333 4.78233ZM 4.96249 1.25018C 4.97556 1.25018 4.9988 1.25066 5.02155 1.25114C 5.02251 1.27257 5.023 1.29496 5.023 1.30639C 5.03413 2.0214 5.03413 2.75402 5.02348 3.48236C 5.02348 3.49618 5.023 3.51619 5.02203 3.53524C 5.00509 3.53619 4.98331 3.53667 4.95523 3.53762C 4.72338 3.54048 4.48959 3.54191 4.25725 3.54191L 3.14686 3.53953L 2.05245 3.54191C 1.82253 3.54191 1.59358 3.54096 1.36366 3.53762C 1.34479 3.53762 1.30606 3.53667 1.27363 3.53476C 1.27266 3.5119 1.27218 3.48475 1.27218 3.46093C 1.26347 2.72211 1.26395 2.00425 1.27315 1.32592C 1.27315 1.30639 1.27412 1.27686 1.2746 1.25161C 1.30655 1.25018 1.34382 1.24971 1.36028 1.24971C 2.55924 1.24256 3.76111 1.24161 4.96249 1.25018Z"/>
<path id="path4_fill" d="M 4.93817 0.00381141C 4.71794 0.000953298 4.49673 8.72225e-07 4.27649 8.72225e-07L 3.24065 0.00238132L 2.0683 8.72225e-07C 1.83064 8.72225e-07 1.59346 0.000953298 1.35483 0.00381141C 0.492757 0.0161965 0.0135585 0.492548 0.00581383 1.34665C -0.00241483 2.09404 -0.00144675 2.78665 0.00581383 3.46593C 0.0154946 4.30812 0.488885 4.7759 1.33886 4.78161C 1.91874 4.7859 2.52233 4.78828 3.13513 4.78828C 3.74308 4.78828 4.35055 4.7859 4.95899 4.78257C 5.79541 4.77733 6.28041 4.29669 6.28864 3.46355C 6.2959 2.78666 6.2959 2.09356 6.28864 1.34474C 6.28041 0.489689 5.80073 0.0138148 4.93817 0.00381141ZM 5.02385 3.44926C 5.02288 3.48784 5.02239 3.51595 5.02094 3.53595C 4.99916 3.53691 4.97351 3.53691 4.95027 3.53691C 3.73727 3.54501 2.49619 3.54501 1.34709 3.53691C 1.32143 3.53691 1.29481 3.53595 1.27206 3.53548C 1.27109 3.51404 1.27061 3.48594 1.26964 3.45259C 1.26238 2.78284 1.26238 2.09785 1.26964 1.35998C 1.26964 1.33617 1.27061 1.28901 1.27254 1.25185C 1.3011 1.25042 1.33741 1.25042 1.37129 1.24947C 1.60314 1.24566 1.83403 1.24518 2.06492 1.24518L 3.14626 1.24756L 4.2247 1.24518C 4.45752 1.24518 4.68938 1.24661 4.9222 1.24899C 4.96237 1.24995 4.99335 1.25138 5.01659 1.25423C 5.01949 1.27948 5.02191 1.31282 5.0224 1.35665C 5.03111 2.09642 5.03111 2.78141 5.02385 3.44926Z"/>
<path id="path5_fill" d="M 4.93866 0.00476373C 4.69277 0.00190562 4.44639 0.000953197 4.2005 0.000953197L 3.06446 0.00238147L 2.04894 -7.9954e-07C 1.81757 -7.9954e-07 1.5862 0.00142953 1.3558 0.00428764C 0.493241 0.0157201 0.0140428 0.492546 0.0058141 1.34617C -0.00241456 2.09356 -0.00144649 2.78713 0.0058141 3.46641C 0.0154949 4.30812 0.488885 4.77542 1.33886 4.78209C 1.91874 4.7859 2.52233 4.78781 3.13513 4.78781C 3.74308 4.78781 4.35055 4.78542 4.95899 4.78209C 5.79541 4.77685 6.28041 4.29669 6.28864 3.46355C 6.2959 2.78665 6.2959 2.09309 6.28864 1.34426C 6.2809 0.490166 5.80121 0.0147671 4.93866 0.00476373ZM 5.02433 3.45021C 5.02336 3.48832 5.02288 3.51595 5.02191 3.53691C 5.00013 3.53786 4.97447 3.53786 4.95076 3.53786C 3.73776 3.54596 2.49765 3.54596 1.34709 3.53691C 1.3224 3.53691 1.29529 3.53691 1.27303 3.53595C 1.27206 3.51357 1.27158 3.48641 1.27061 3.45212C 1.26335 2.78237 1.26335 2.09785 1.27061 1.35951C 1.27061 1.33569 1.27158 1.28853 1.27351 1.25138C 1.30207 1.24995 1.33837 1.24995 1.37177 1.24899C 1.60363 1.24613 1.835 1.24518 2.06637 1.24518L 3.14771 1.24661L 4.22325 1.24518C 4.45655 1.24518 4.69034 1.24613 4.92365 1.24899C 4.96383 1.24995 4.9948 1.25138 5.01804 1.25423C 5.02094 1.27948 5.02336 1.31235 5.02385 1.3557C 5.03159 2.09785 5.03159 2.78189 5.02433 3.45021Z"/>
<path id="path6_fill" d="M 6.5142 1.89016C 6.50549 0.918405 5.57032 2.68936e-07 4.59063 2.68936e-07L 4.53157 0.000952448C 4.30843 0.0100031 3.57463 0.0147672 2.40858 0.0147672L 1.30545 0.013338C 1.08425 0.013338 0.86159 0.0142905 0.6399 0.0171486C 0.298652 0.0209594 0.07793 0.214358 0.0188772 0.562095C -0.0319469 0.855051 0.195551 1.14896 0.527118 1.21755C 0.650064 1.24185 0.774463 1.24423 0.902249 1.24423L 4.46429 1.24328C 5.11291 1.24423 5.26199 1.38761 5.26199 2.01211L 5.26199 7.42155C 5.26199 7.93125 5.16518 8.02699 4.65161 8.02795L 3.63755 8.0289L 2.19754 8.02747C 2.50297 7.72689 2.93667 7.29865 3.0601 7.1729C 3.19321 7.03857 3.26146 6.87089 3.25371 6.69988C 3.24355 6.53506 3.16271 6.38358 3.02621 6.27307C 2.77838 6.06776 2.41245 6.10206 2.13461 6.36405L 0.216849 8.19324C 0.0774461 8.32471 8.12443e-07 8.49763 8.12443e-07 8.67864C 8.12443e-07 8.86632 0.0827707 9.04877 0.233307 9.1931L 2.2653 11.119C 2.44585 11.2895 2.64431 11.3796 2.83889 11.3796C 2.99233 11.3796 3.13222 11.3224 3.24306 11.2143C 3.45555 11.0075 3.53639 10.6403 3.12544 10.2282C 2.97684 10.0805 2.50442 9.59276 2.18883 9.26551L 3.53349 9.26646C 3.86602 9.26646 4.2426 9.26646 4.63516 9.26408C 5.64535 9.25884 6.50597 8.47524 6.51371 7.55207C 6.53162 5.67668 6.53162 3.77175 6.5142 1.89016Z"/>
<path id="path7_fill" d="M 4.39169 6.36357C 4.11675 6.10349 3.75227 6.06776 3.50154 6.27164C 3.36407 6.38311 3.28324 6.53506 3.27307 6.70083C 3.26484 6.86898 3.33358 7.03666 3.46669 7.17242C 3.59012 7.29865 4.02285 7.72642 4.32925 8.02795L 3.0659 8.0289L 1.87517 8.02795C 1.3616 8.02699 1.26479 7.93077 1.26479 7.42155L 1.26479 2.01211C 1.26479 1.38713 1.41388 1.24375 2.06249 1.24328L 5.62453 1.24423C 5.75232 1.24423 5.87672 1.24185 6.00063 1.21755C 6.33171 1.14944 6.55921 0.855527 6.50839 0.562571C 6.44934 0.214358 6.22861 0.0209594 5.88737 0.0171485C 5.66568 0.0147668 5.44302 0.0133378 5.22133 0.0133378L 4.11869 0.014767C 2.95264 0.014767 2.21884 0.0100033 1.99569 0.000952641L 1.93664 7.26854e-09C 0.956945 7.26854e-09 0.0217816 0.918881 0.0130689 1.88969C -0.00435652 3.77127 -0.00435652 5.6762 0.0130689 7.5516C 0.0212975 8.47476 0.881435 9.25884 1.89259 9.2636C 2.31516 9.26598 2.71933 9.26598 3.07026 9.26598L 4.33844 9.26503C 4.02285 9.59181 3.54946 10.0801 3.40086 10.2282C 2.99088 10.6398 3.07123 11.007 3.28372 11.2138C 3.39505 11.3219 3.53445 11.3791 3.68789 11.3791C 3.88296 11.3791 4.08142 11.289 4.26245 11.118L 6.29396 9.19215C 6.44401 9.04781 6.52678 8.86537 6.52678 8.67769C 6.52678 8.49715 6.4503 8.32519 6.31138 8.19324L 4.39169 6.36357Z"/>
<path id="path8_fill" d="M 5.71166 7.62067C 5.27215 7.20148 4.83313 6.78276 4.39169 6.36405C 4.1153 6.10301 3.74791 6.06919 3.50202 6.27259C 3.36407 6.38406 3.28324 6.53601 3.27307 6.70226C 3.26484 6.86994 3.33358 7.03714 3.46669 7.17385C 3.59012 7.2996 4.02285 7.72784 4.32925 8.02842L 2.88923 8.02985L 1.87614 8.02938C 1.36209 8.02795 1.26528 7.9322 1.26528 7.4225L 1.26528 2.01258C 1.26528 1.38856 1.41436 1.2447 2.06297 1.24375L 5.62502 1.24423C 5.74651 1.24423 5.87575 1.24185 6.0016 1.21708C 6.33172 1.14848 6.55921 0.855051 6.50839 0.563048C 6.44934 0.214359 6.2291 0.0204839 5.88737 0.0171494C 5.66568 0.0142913 5.44302 0.013337 5.22133 0.013337L 4.11869 0.0147671C 2.95264 0.0147671 2.21884 0.00952759 1.99569 0.000953269L 1.93664 -7.26854e-07C 0.956945 -7.26854e-07 0.0217816 0.918405 0.0130689 1.89016C -0.00435652 3.77127 -0.00435652 5.6762 0.0130689 7.55159C 0.0212975 8.47476 0.881435 9.25884 1.89259 9.2636C 2.28515 9.26598 2.66125 9.26598 2.99378 9.26598L 4.33844 9.26503C 4.02285 9.59228 3.54994 10.0801 3.40183 10.2277C 2.99088 10.6384 3.07171 11.0066 3.2842 11.2138C 3.39553 11.3219 3.53494 11.3791 3.68838 11.3791C 3.88344 11.3791 4.0819 11.289 4.26293 11.118L 6.29444 9.19215C 6.4445 9.04829 6.52727 8.86585 6.52727 8.67817C 6.52727 8.49715 6.45079 8.32471 6.31187 8.19276L 5.71166 7.62067Z"/>
</defs>
</svg>
