<svg width="145" height="147" viewBox="0 0 145 147" version="1.1" xmlns="http://www.w3.org/2000/svg" xmlns:xlink="http://www.w3.org/1999/xlink">
<g id="Canvas" fill="none">
<g id="airplane">
<g id="Vector">
<path d="M 29.7744 8.69881C 28.0566 8.69881 26.4343 9.17678 25.0028 9.84592C 23.5714 4.20603 18.5135 2.91722e-06 12.406 2.91722e-06C 8.58875 2.91722e-06 5.15327 1.72065 2.7675 4.30161C 1.5269 5.63989 0.572572 7.36053 -1.16493e-05 9.17677L 3.05378 21.7948L 40.4626 21.7948C 40.558 21.1257 40.6535 20.361 40.6535 19.5962C 40.6535 13.574 35.6911 8.69881 29.7744 8.69881Z" transform="translate(104.346 83.0488)" fill="#33D6C0"/>
</g>
<g id="Group 2">
<g id="Vector_2">
<path d="M 22.9511 0.414824C 17.9887 -0.636681 12.9309 0.319234 8.63648 3.18698C 4.43753 5.95913 1.47917 10.2607 0.429438 15.2315C -0.143146 17.8125 -0.143146 20.2978 0.429438 22.7832C 0.71573 24.2171 1.19288 25.6509 1.8609 27.0848L 22.9511 32.1512C 21.4242 33.6806 19.8973 35.2101 18.3704 36.8351L 17.2252 37.9822C 17.8933 38.0778 18.5613 38.0778 19.1339 38.0778C 20.3744 38.0778 21.615 37.9822 22.7602 37.6955L 27.7226 32.7247L 28.0089 32.4379C 28.1043 32.2468 28.2952 32.1512 28.3906 32.0556L 37.7428 22.6876C 38.1245 20.8714 38.22 18.9596 38.0291 17.1433C 37.2657 9.11364 31.349 2.13547 22.9511 0.414824Z" transform="translate(56.3923 15.7207)" fill="#FCC65D"/>
</g>
<g id="Vector_3">
<path d="M 1.55938 9.78287C 1.65481 9.78287 1.84567 9.78287 1.9411 9.78287C 2.79997 9.78287 3.65885 9.11373 3.84971 8.25341L 5.09033 2.32674C 5.28119 1.27524 4.61317 0.319327 3.56343 0.0325525C 2.51369 -0.15863 1.55939 0.510508 1.2731 1.56201L 0.0324854 7.48868C -0.158376 8.54018 0.509644 9.59169 1.55938 9.78287Z" transform="translate(79.502 0.234375)" fill="#FCC65D"/>
</g>
<g id="Vector_4">
<path d="M 5.26028 8.90162C 5.642 8.90162 6.02373 8.80603 6.31002 8.61484C 7.1689 8.0413 7.4552 6.8942 6.88261 5.93829L 3.54254 0.87194C 2.96996 0.0116182 1.82477 -0.275155 0.870464 0.298394C 0.0115884 0.871942 -0.27468 2.01904 0.297904 2.97495L 3.63798 8.04129C 4.0197 8.61484 4.6877 8.90162 5.26028 8.90162Z" transform="translate(55.7603 5.03516)" fill="#FCC65D"/>
</g>
<g id="Vector_5">
<path d="M 8.23955 1.27524L 2.32283 0.0325511C 1.2731 -0.158632 0.318795 0.51051 0.0325029 1.56202C -0.158358 2.61352 0.509662 3.56944 1.5594 3.85621L 7.47608 5.09889C 7.57151 5.09889 7.76237 5.09889 7.8578 5.09889C 8.71668 5.09889 9.57555 4.42976 9.76641 3.56943C 9.95727 2.51793 9.28928 1.46642 8.23955 1.27524Z" transform="translate(41.1389 26.1387)" fill="#FCC65D"/>
</g>
<g id="Vector_6">
<path d="M 8.60035 0.87194C 8.02776 0.0116182 6.88261 -0.275155 5.9283 0.298394L 0.870488 3.64409C 0.0116118 4.21764 -0.274686 5.36474 0.297898 6.32065C 0.67962 6.8942 1.25219 7.18097 1.9202 7.18097C 2.30192 7.18097 2.68365 7.08538 2.96994 6.8942L 8.02779 3.5485C 8.88666 2.97495 9.17293 1.73226 8.60035 0.87194Z" transform="translate(96.2234 14.5938)" fill="#FCC65D"/>
</g>
</g>
<g id="Group 2_2">
<g id="Vector_7">
<path d="M 124.864 8.5174C 125.437 6.12762 124.769 3.73783 123.051 2.01719C 121.333 0.296543 118.947 -0.372598 116.562 0.20095C 108.355 2.30396 100.72 6.3188 94.4218 11.8631C 93.5629 12.6278 92.704 13.3926 91.9406 14.2529L 82.493 23.7164L 56.9176 17.503L 17.791 8.13503C 15.6915 7.65708 13.4012 8.23062 11.7789 9.85568L 8.82053 12.819C 7.38907 14.2529 6.72103 16.2603 7.00732 18.3633C 7.29362 20.3707 8.53421 22.0914 10.3474 23.0473L 13.8783 24.8635L 13.4966 25.2459C 11.6834 27.0621 11.6834 30.0255 13.4966 31.7461L 15.0235 33.2756C 15.8824 34.1359 17.123 34.6138 18.2682 34.6138C 19.4133 34.6138 20.6539 34.1359 21.5128 33.2756L 24.4711 30.3122L 31.533 34.0403L 29.529 36.0477C 28.6701 36.908 28.1929 38.0551 28.1929 39.2978C 28.1929 40.5405 28.6701 41.6876 29.529 42.5479L 32.5828 45.6068C 33.4416 46.4672 34.5868 46.9451 35.8274 46.9451C 37.068 46.9451 38.2132 46.4672 39.072 45.6068L 44.0344 40.6361L 58.8262 48.379C 49.6648 58.3205 40.7898 68.3576 32.201 78.6815L 21.9899 91.0128L 8.72509 87.6671C 7.00734 87.2847 5.09872 87.7626 3.85812 89.0053L 1.47236 91.3951C 0.327191 92.5422 -0.149962 94.0717 0.0408989 95.6967C 0.23176 97.3218 1.18607 98.6601 2.5221 99.4248L 16.455 107.359L 17.4093 107.932L 17.9818 108.888L 25.9026 122.749C 26.6661 124.087 28.0975 125.043 29.6244 125.234C 29.8153 125.234 30.1016 125.33 30.2924 125.33C 31.6285 125.33 32.9645 124.757 33.9188 123.801L 36.3045 121.411C 37.5451 120.168 38.1177 118.256 37.6406 116.536L 34.3005 103.248L 46.611 92.9246C 56.8221 84.3214 66.9378 75.4314 76.8626 66.2546L 84.5925 81.0713L 79.6301 86.042C 78.7712 86.9023 78.294 88.0494 78.294 89.2921C 78.294 90.5348 78.7712 91.6819 79.6301 92.5422L 82.6838 95.6011C 83.5427 96.4615 84.6879 96.9394 85.9285 96.9394C 87.1691 96.9394 88.3142 96.4615 89.1731 95.6011L 91.1772 93.5937L 94.899 100.667L 91.9406 103.631C 90.1274 105.447 90.1274 108.41 91.9406 110.131L 93.4675 111.66C 94.3264 112.521 95.567 112.999 96.7121 112.999C 97.8573 112.999 99.0979 112.521 99.9568 111.66L 100.339 111.278L 102.152 114.815C 103.106 116.631 104.824 117.874 106.828 118.161C 107.114 118.256 107.496 118.256 107.782 118.256C 109.5 118.256 111.027 117.587 112.267 116.344L 115.226 113.381C 116.753 111.852 117.421 109.557 116.943 107.359L 111.218 83.6522L 107.019 66.2546L 101.293 42.4523L 110.74 32.9888C 117.707 26.393 122.574 17.8854 124.864 8.5174ZM 18.9362 30.6946C 18.6499 30.9814 18.1727 30.9814 17.791 30.6946L 16.2641 29.1651C 15.9778 28.8784 15.9778 28.4004 16.2641 28.018L 17.5047 26.7754L 21.0356 28.5916L 18.9362 30.6946ZM 36.4 42.9303C 36.2091 43.1215 36.0183 43.1215 35.9228 43.1215C 35.8274 43.1215 35.6365 43.1215 35.4457 42.9303L 32.3919 39.8714C 32.201 39.6802 32.201 39.489 32.201 39.3934C 32.201 39.2978 32.201 39.1066 32.3919 38.9155L 35.2548 36.0477L 40.5989 38.8199L 36.4 42.9303ZM 44.607 36.6213L 44.5116 36.5257L 12.1606 19.7016C 11.3972 19.3192 10.92 18.6501 10.8246 17.7898C 10.7291 17.025 10.92 16.1647 11.588 15.5912L 14.5464 12.6278C 15.0235 12.1499 15.6915 11.8631 16.3595 11.8631C 16.5504 11.8631 16.7413 11.8631 16.9321 11.9587L 58.349 21.9002L 79.4392 26.9665C 77.9123 28.496 76.3854 30.0255 74.8585 31.6505L 73.7134 32.7976L 61.4028 45.3201L 44.607 36.6213ZM 4.52615 96.0791C 4.14443 95.8879 3.95356 95.5056 3.85812 95.1232C 3.85812 94.932 3.85812 94.454 4.23984 94.0717L 6.62561 91.6819C 6.81647 91.4907 7.19819 91.2995 7.48448 91.2995C 7.57991 91.2995 7.67536 91.2995 7.77079 91.2995L 19.2225 94.1673L 23.326 95.2188L 26.4752 95.9835L 18.459 104.013L 13.6875 101.241L 4.52615 96.0791ZM 33.9188 117.587C 34.0142 118.065 33.9188 118.447 33.5371 118.83L 31.1513 121.22C 30.7696 121.602 30.2924 121.602 30.1016 121.602C 29.7198 121.506 29.3381 121.315 29.1472 120.933L 23.8986 111.66L 21.2265 106.881L 29.2427 98.8512L 30.0061 102.006L 31.0559 106.116L 33.9188 117.587ZM 86.3102 93.0202C 86.1193 93.2114 85.9285 93.2114 85.833 93.2114C 85.7376 93.2114 85.5468 93.2114 85.3559 93.0202L 82.3021 89.9613C 82.1113 89.7701 82.1113 89.5789 82.1113 89.4833C 82.1113 89.3877 82.1113 89.1965 82.3021 89.0053L 86.4056 84.8949L 89.1731 90.248L 86.3102 93.0202ZM 97.1893 109.175C 96.903 109.462 96.4259 109.462 96.0441 109.175L 94.5172 107.646C 94.2309 107.359 94.2309 106.881 94.5172 106.499L 96.6167 104.396L 98.4299 107.932L 97.1893 109.175ZM 107.4 83.939L 113.317 108.506C 113.508 109.366 113.317 110.322 112.649 110.896L 109.691 113.859C 109.118 114.433 108.259 114.719 107.496 114.624C 106.732 114.528 105.969 114.05 105.587 113.286L 88.7914 80.8801C 88.7914 80.7845 88.696 80.7845 88.696 80.6889L 80.0118 63.9604L 94.0401 50.0996C 95.2807 48.857 96.6167 47.6143 97.8573 46.276L 98.3345 45.798L 104.442 71.2253L 107.4 83.939ZM 98.4299 40.3493C 96.903 41.8788 95.4715 43.3127 93.9446 44.8421L 91.5589 47.2319C 76.3854 62.1442 60.4485 76.4829 44.2253 90.1524L 33.3462 99.3292L 32.4873 95.7923L 37.3543 90.9172C 38.1177 90.1524 38.1177 88.9098 37.3543 88.2406C 36.5908 87.4759 35.3502 87.4759 34.6822 88.2406L 29.8153 93.1158L 26.2843 92.2554L 35.4457 81.358C 48.9968 65.1075 63.3114 49.2393 78.1032 34.1359L 79.4392 32.7976L 84.4016 27.8269L 84.6879 27.5401C 84.7833 27.3489 84.9742 27.2533 85.0696 27.1577L 94.8035 17.4074C 101.102 11.0984 109.023 6.60557 117.707 4.40697C 118.757 4.1202 119.806 4.40697 120.57 5.1717C 121.333 5.93643 121.62 6.98794 121.333 8.03944C 119.138 16.7383 114.653 24.6723 108.259 30.9814L 98.4299 40.3493Z" transform="translate(0 20.9043)" fill="#276591"/>
</g>
<g id="Vector_8">
<path d="M 7.3776 2.70605C 5.94614 1.27218 4.2284 0.411856 2.22435 0.0294906C 1.17462 -0.161692 0.220292 0.603037 0.0294308 1.55895C -0.16143 2.61046 0.602021 3.56637 1.55633 3.75756C 2.79693 3.94874 3.84668 4.52228 4.70556 5.38261C 5.56443 6.24293 6.137 7.29444 6.32786 8.53712C 6.51872 9.49304 7.28217 10.1622 8.23647 10.1622C 8.3319 10.1622 8.42735 10.1622 8.52278 10.1622C 9.57252 9.97099 10.2405 9.01508 10.0496 7.96358C 9.66793 5.95616 8.80906 4.13992 7.3776 2.70605Z" transform="translate(104.317 31.6855)" fill="#276591"/>
</g>
<g id="Vector_9">
<path d="M 0.572596 19.5006C 0.954318 19.883 1.43147 20.0742 1.90862 20.0742C 2.38577 20.0742 2.86292 19.883 3.24464 19.5006L 19.4679 3.25011C 20.2313 2.48538 20.2313 1.33828 19.4679 0.573545C 18.7044 -0.191186 17.5593 -0.191186 16.7958 0.573545L 0.572596 16.8241C -0.19085 17.4932 -0.19085 18.7359 0.572596 19.5006Z" transform="translate(9.67896 65.1738)" fill="#276591"/>
</g>
<g id="Vector_10">
<path d="M 1.90862 11.9489C 2.38577 11.9489 2.86292 11.7577 3.24464 11.3754L 11.3562 3.2501C 12.1197 2.48537 12.1197 1.33828 11.3562 0.57355C 10.5928 -0.191181 9.44765 -0.191181 8.6842 0.57355L 0.572596 8.69882C -0.19085 9.46355 -0.19085 10.6106 0.572596 11.3754C 0.954318 11.7577 1.43147 11.9489 1.90862 11.9489Z" transform="translate(1.56738 54.3691)" fill="#276591"/>
</g>
<g id="Vector_11">
<path d="M 10.0202 0.573542L 0.572595 10.0371C -0.19085 10.8018 -0.19085 11.9489 0.572595 12.7137C 0.954318 13.096 1.43147 13.2872 1.90862 13.2872C 2.38577 13.2872 2.86292 13.096 3.24464 12.7137L 12.6923 3.2501C 13.4557 2.48537 13.4557 1.33827 12.6923 0.573542C 11.9288 -0.191189 10.6882 -0.191189 10.0202 0.573542Z" transform="translate(65.0288 116.506)" fill="#276591"/>
</g>
<g id="Vector_12">
<path d="M 7.06188 0.573542L 0.572578 7.07376C -0.190867 7.83849 -0.190867 8.98559 0.572578 9.75032C 0.954301 10.1327 1.43145 10.3239 1.9086 10.3239C 2.38575 10.3239 2.86293 10.1327 3.24465 9.75032L 9.73393 3.2501C 10.4974 2.48537 10.4974 1.33827 9.73393 0.573542C 9.06591 -0.191189 7.82533 -0.191189 7.06188 0.573542Z" transform="translate(81.4426 132.756)" fill="#276591"/>
</g>
<g id="Vector_13">
<path d="M 2.09949 4.20602C 3.25899 4.20602 4.19894 3.26447 4.19894 2.10301C 4.19894 0.941548 3.25899 0 2.09949 0C 0.939978 0 0 0.941548 0 2.10301C 0 3.26447 0.939978 4.20602 2.09949 4.20602Z" transform="translate(5.28955 85.5352)" fill="#276591"/>
</g>
<g id="Vector_14">
<path d="M 2.09948 4.20603C 3.25899 4.20603 4.19894 3.26447 4.19894 2.103C 4.19894 0.941544 3.25899 -2.91722e-06 2.09948 -2.91722e-06C 0.939972 -2.91722e-06 -5.82462e-06 0.941544 -5.82462e-06 2.103C -5.82462e-06 3.26447 0.939972 4.20603 2.09948 4.20603Z" transform="translate(60.0664 129.793)" fill="#276591"/>
</g>
</g>
</g>
</g>
</svg>

