<svg width="27" height="24" viewBox="0 0 27 24" version="1.1" xmlns="http://www.w3.org/2000/svg" xmlns:xlink="http://www.w3.org/1999/xlink">
<title>area</title>
<desc>Created using Figma</desc>
<g id="Canvas" transform="translate(9466 -14050)">
<g id="area">
<g id="Vector">
<use xlink:href="#path0_fill" transform="translate(-9466 14050)" fill="#00BFD9"/>
</g>
</g>
</g>
<defs>
<path id="path0_fill" d="M 0.76449 0.000942072C 0.554746 0.0210272 0.359988 0.12012 0.218516 0.278732C 0.0770452 0.437345 -0.000900561 0.643998 7.8517e-06 0.858051L 7.8517e-06 23.1429C 3.02093e-05 23.3702 0.0889125 23.5882 0.247107 23.7489C 0.405302 23.9097 0.619854 24 0.843575 24L 21.9327 24C 22.1565 24 22.371 23.9097 22.5292 23.7489C 22.6874 23.5882 22.7763 23.3702 22.7763 23.1429L 22.7763 14.1031L 26.7174 10.5005C 26.8004 10.4249 26.8681 10.3334 26.9163 10.2312C 26.9646 10.129 26.9926 10.0182 26.9987 9.90505C 27.0048 9.79188 26.989 9.6786 26.952 9.57166C 26.915 9.46473 26.8577 9.36625 26.7833 9.28183C 26.7088 9.19741 26.6188 9.12872 26.5182 9.07966C 26.4176 9.03061 26.3086 9.00216 26.1972 8.99595C 26.0858 8.98973 25.9743 9.00586 25.8691 9.04342C 25.7638 9.08099 25.6669 9.13924 25.5838 9.21487L 21.366 13.0719C 21.2778 13.1531 21.2076 13.2524 21.1599 13.3632C 21.1122 13.474 21.0881 13.5938 21.0892 13.7147L 21.0892 16.286L 17.2931 16.286C 17.2668 16.2848 17.2404 16.2848 17.214 16.286C 17.1033 16.2913 16.9946 16.3186 16.8942 16.3666C 16.7938 16.4145 16.7037 16.4821 16.629 16.5654C 16.5543 16.6487 16.4966 16.7462 16.4589 16.8522C 16.4213 16.9582 16.4047 17.0707 16.4099 17.1833C 16.415 17.2959 16.442 17.4063 16.4892 17.5083C 16.5364 17.6103 16.6029 17.7018 16.685 17.7777C 16.767 17.8535 16.8629 17.9122 16.9673 17.9504C 17.0716 17.9886 17.1823 18.0055 17.2931 18.0002L 21.0892 18.0002L 21.0892 22.2858L 11.8099 22.2858L 11.8099 18.4288C 11.8117 18.314 11.7908 18.2 11.7483 18.0935C 11.7059 17.9871 11.6429 17.8904 11.5629 17.8092C 11.483 17.7281 11.3879 17.664 11.2831 17.6209C 11.1784 17.5778 11.0662 17.5565 10.9532 17.5583C 10.8424 17.56 10.7331 17.584 10.6314 17.6287C 10.5297 17.6733 10.4377 17.738 10.3606 17.8188C 10.2835 17.8996 10.2228 17.9951 10.182 18.0998C 10.1412 18.2044 10.1211 18.3162 10.1228 18.4288L 10.1228 22.2858L 1.68714 22.2858L 1.68714 14.1432L 10.9664 14.1432C 11.1901 14.1432 11.4047 14.0529 11.5628 13.8922C 11.721 13.7314 11.8099 13.5134 11.8099 13.2861L 11.8099 10.6746L 15.751 7.07209C 15.8833 6.95908 15.9783 6.80749 16.023 6.63784C 16.0677 6.4682 16.0601 6.28868 16.0012 6.12358C 15.9422 5.95848 15.8348 5.81577 15.6934 5.71475C 15.552 5.61373 15.3834 5.55927 15.2106 5.55876C 14.9913 5.5534 14.7785 5.63507 14.6174 5.78643L 10.3996 9.64342C 10.3115 9.72467 10.2412 9.82395 10.1935 9.93474C 10.1458 10.0455 10.1217 10.1653 10.1228 10.2863L 10.1228 12.429L 1.68714 12.429L 1.68714 1.71516L 10.1228 1.71516L 10.1228 5.57215C 10.1212 5.68573 10.1419 5.79849 10.1836 5.90389C 10.2253 6.00929 10.2871 6.10521 10.3656 6.1861C 10.4441 6.26698 10.5376 6.33121 10.6408 6.37505C 10.7439 6.41889 10.8546 6.44146 10.9664 6.44146C 11.0782 6.44146 11.1889 6.41889 11.292 6.37505C 11.3951 6.33121 11.4886 6.26698 11.5671 6.1861C 11.6456 6.10521 11.7075 6.00929 11.7492 5.90389C 11.7909 5.79849 11.8115 5.68573 11.8099 5.57215L 11.8099 1.71516L 21.0892 1.71516L 21.0892 6.42926C 21.0876 6.54284 21.1083 6.6556 21.1499 6.761C 21.1916 6.86639 21.2535 6.96232 21.332 7.04321C 21.4105 7.12409 21.504 7.18832 21.6071 7.23216C 21.7103 7.276 21.821 7.29857 21.9327 7.29857C 22.0445 7.29857 22.1552 7.276 22.2584 7.23216C 22.3615 7.18832 22.455 7.12409 22.5335 7.04321C 22.612 6.96232 22.6739 6.86639 22.7156 6.761C 22.7572 6.6556 22.7779 6.54284 22.7763 6.42926L 22.7763 0.858051C 22.7763 0.630739 22.6874 0.412742 22.5292 0.252008C 22.371 0.091274 22.1565 0.000964788 21.9327 0.000942072L 0.843575 0.000942072C 0.817228 -0.000314024 0.790837 -0.000314024 0.76449 0.000942072Z"/>
</defs>
</svg>
