<svg width="34" height="35" viewBox="0 0 34 35" version="1.1" xmlns="http://www.w3.org/2000/svg" xmlns:xlink="http://www.w3.org/1999/xlink">
<title>house</title>
<desc>Created using Figma</desc>
<g id="Canvas" transform="translate(9865 -15073)">
<g id="house">
<g id="Group">
<g id="Vector">
<use xlink:href="#path0_fill" transform="translate(-9850.74 15082)" fill="#FCC65D"/>
</g>
<g id="Vector">
<use xlink:href="#path1_fill" transform="translate(-9851.84 15091.9)" fill="#FCC65D"/>
</g>
</g>
<g id="Group">
<g id="Vector">
<use xlink:href="#path2_fill" transform="translate(-9865 15073.2)" fill="#276591"/>
</g>
<g id="Vector">
<use xlink:href="#path3_fill" transform="translate(-9851.29 15081.5)" fill="#276591"/>
</g>
<g id="Vector">
<use xlink:href="#path4_fill" transform="translate(-9850.74 15101.2)" fill="#276591"/>
</g>
<g id="Vector">
<use xlink:href="#path4_fill" transform="translate(-9846.35 15101.2)" fill="#276591"/>
</g>
<g id="Vector">
<use xlink:href="#path4_fill" transform="translate(-9850.74 15095.2)" fill="#276591"/>
</g>
<g id="Vector">
<use xlink:href="#path5_fill" transform="translate(-9841.97 15090.8)" fill="#276591"/>
</g>
<g id="Vector">
<use xlink:href="#path5_fill" transform="translate(-9859.52 15090.8)" fill="#276591"/>
</g>
</g>
</g>
</g>
<defs>
<path id="path0_fill" d="M 2.74194 5.48387C 4.25626 5.48387 5.48387 4.25626 5.48387 2.74194C 5.48387 1.22761 4.25626 0 2.74194 0C 1.22761 0 0 1.22761 0 2.74194C 0 4.25626 1.22761 5.48387 2.74194 5.48387Z"/>
<path id="path1_fill" d="M 7.67742 0L 0 0L 0 6.58065L 7.67742 6.58065L 7.67742 0Z"/>
<path id="path2_fill" d="M 31.8065 16.4297C 33.0326 16.3184 34 15.2962 34 14.0415C 34 13.3176 33.6792 12.6387 33.1198 12.1791L 19.2923 0.820935C 18.6485 0.291194 17.8341 0 17 0C 16.1659 0 15.3515 0.291194 14.7077 0.820935L 9.87097 4.794L 9.87097 3.29032L 10.4194 3.29032C 11.3264 3.29032 12.0645 2.55219 12.0645 1.64516C 12.0645 0.738129 11.3264 0 10.4194 0L 2.74194 0C 1.8349 0 1.09677 0.738129 1.09677 1.64516C 1.09677 2.55219 1.8349 3.29032 2.74194 3.29032L 3.29032 3.29032L 3.29032 10.1995L 0.880161 12.1791C 0.320806 12.6392 0 13.3176 0 14.0415C 0 15.2962 0.967355 16.3178 2.19355 16.4297L 2.19355 26.3226L 0 26.3226L 0 34L 3.83871 34L 4.3871 34L 7.67742 34L 10.9677 34L 12.0645 34L 21.9355 34L 23.0323 34L 26.3226 34L 29.6129 34L 30.1613 34L 34 34L 34 26.3226L 31.8065 26.3226L 31.8065 16.4297ZM 2.19355 1.64516C 2.19355 1.34245 2.43977 1.09677 2.74194 1.09677L 10.4194 1.09677C 10.7215 1.09677 10.9677 1.34245 10.9677 1.64516C 10.9677 1.94787 10.7215 2.19355 10.4194 2.19355L 2.74194 2.19355C 2.43977 2.19355 2.19355 1.94787 2.19355 1.64516ZM 4.3871 3.29032L 8.77419 3.29032L 8.77419 5.695L 4.3871 9.29845L 4.3871 3.29032ZM 3.29032 16.3463C 3.60565 16.2542 3.90397 16.1056 4.15897 15.8928L 16.3809 5.70761C 16.728 5.41916 17.272 5.41861 17.618 5.70761L 28.6455 14.8975L 29.3475 14.0546L 18.3205 4.86474C 17.5813 4.24945 16.4215 4.2489 15.6795 4.86474L 3.45703 15.0499C 3.22177 15.2468 2.9229 15.3548 2.61635 15.3548L 2.41016 15.3548C 1.68574 15.3548 1.09677 14.7659 1.09677 14.0415C 1.09677 13.6466 1.27171 13.2765 1.57661 13.0258L 15.4042 1.66819C 16.3008 0.931161 17.6986 0.931161 18.5958 1.66819L 32.4228 13.0264C 32.7283 13.277 32.9032 13.6472 32.9032 14.0415C 32.9032 14.7659 32.3143 15.3548 31.5898 15.3548L 31.3842 15.3548C 31.0776 15.3548 30.7788 15.2468 30.5435 15.0499L 29.9666 14.569L 29.2647 15.4119L 29.8416 15.8928C 30.0971 16.1056 30.3949 16.2536 30.7102 16.3463L 30.7102 26.3226L 29.6135 26.3226L 29.6135 28.5161L 26.3231 28.5161L 26.3231 26.3226L 22.1982 26.3226C 21.3114 25.001 19.8045 24.129 18.0973 24.129L 15.9038 24.129C 14.1966 24.129 12.6891 25.001 11.8029 26.3226L 7.67742 26.3226L 7.67742 28.5161L 4.3871 28.5161L 4.3871 26.3226L 3.29032 26.3226L 3.29032 16.3463ZM 29.6129 30.7097L 26.3226 30.7097L 26.3226 29.6129L 29.6129 29.6129L 29.6129 30.7097ZM 7.67742 30.7097L 4.3871 30.7097L 4.3871 29.6129L 7.67742 29.6129L 7.67742 30.7097ZM 3.29032 32.9032L 1.09677 32.9032L 1.09677 27.4194L 3.29032 27.4194L 3.29032 28.5161L 3.29032 31.8065L 3.29032 32.9032ZM 4.3871 32.9032L 4.3871 31.8065L 7.67742 31.8065L 7.67742 32.9032L 4.3871 32.9032ZM 8.77419 32.9032L 8.77419 31.8065L 8.77419 28.5161L 8.77419 27.4194L 10.9677 27.4194L 10.9677 29.0645L 10.9677 32.9032L 8.77419 32.9032ZM 17.5484 32.9032L 17.5484 31.8065L 16.4516 31.8065L 16.4516 32.9032L 12.0645 32.9032L 12.0645 29.0645C 12.0645 26.9483 13.7865 25.2258 15.9032 25.2258L 16.4516 25.2258L 16.4516 30.7097L 17.5484 30.7097L 17.5484 25.2258L 18.0968 25.2258C 20.2135 25.2258 21.9355 26.9483 21.9355 29.0645L 21.9355 32.9032L 17.5484 32.9032ZM 23.0323 32.9032L 23.0323 29.0645L 23.0323 27.4194L 25.2258 27.4194L 25.2258 28.5161L 25.2258 31.8065L 25.2258 32.9032L 23.0323 32.9032ZM 26.3226 32.9032L 26.3226 31.8065L 29.6129 31.8065L 29.6129 32.9032L 26.3226 32.9032ZM 32.9032 32.9032L 30.7097 32.9032L 30.7097 31.8065L 30.7097 28.5161L 30.7097 27.4194L 32.9032 27.4194L 32.9032 32.9032Z"/>
<path id="path3_fill" d="M 3.29032 6.58065C 5.10494 6.58065 6.58065 5.10494 6.58065 3.29032C 6.58065 1.47571 5.10494 0 3.29032 0C 1.47571 0 0 1.47571 0 3.29032C 0 5.10494 1.47571 6.58065 3.29032 6.58065ZM 1.17465 3.83871L 2.74194 3.83871L 2.74194 5.406C 1.97474 5.20639 1.37426 4.6059 1.17465 3.83871ZM 3.83871 5.406L 3.83871 3.83871L 5.406 3.83871C 5.20639 4.6059 4.6059 5.20639 3.83871 5.406ZM 5.406 2.74194L 3.83871 2.74194L 3.83871 1.17465C 4.6059 1.37426 5.20639 1.97474 5.406 2.74194ZM 2.74194 1.17465L 2.74194 2.74194L 1.17465 2.74194C 1.37426 1.97474 1.97474 1.37426 2.74194 1.17465Z"/>
<path id="path4_fill" d="M 1.09677 0L 0 0L 0 1.09677L 1.09677 1.09677L 1.09677 0Z"/>
<path id="path5_fill" d="M 5.48387 0L 0 0L 0 5.48387L 5.48387 5.48387L 5.48387 0ZM 4.3871 2.19355L 3.29032 2.19355L 3.29032 1.09677L 4.3871 1.09677L 4.3871 2.19355ZM 2.19355 1.09677L 2.19355 2.19355L 1.09677 2.19355L 1.09677 1.09677L 2.19355 1.09677ZM 1.09677 3.29032L 2.19355 3.29032L 2.19355 4.3871L 1.09677 4.3871L 1.09677 3.29032ZM 3.29032 4.3871L 3.29032 3.29032L 4.3871 3.29032L 4.3871 4.3871L 3.29032 4.3871Z"/>
</defs>
</svg>
