<svg width="137" height="127" viewBox="0 0 137 127" version="1.1" xmlns="http://www.w3.org/2000/svg" xmlns:xlink="http://www.w3.org/1999/xlink">
<title>Group 5</title>
<desc>Created using Figma</desc>
<g id="Canvas" transform="translate(7661 -14988)">
<g id="Group 5">
<g id="Vector">
<use xlink:href="#path0_fill" transform="translate(-7550.55 15032.1)" fill="#33D6C0"/>
</g>
<g id="Vector">
<use xlink:href="#path1_fill" transform="translate(-7650.68 15032.1)" fill="#33D6C0"/>
</g>
<g id="Vector">
<use xlink:href="#path2_fill" transform="translate(-7634.82 14997.7)" fill="#FCC65D"/>
</g>
<g id="Vector">
<use xlink:href="#path3_fill" transform="translate(-7654.96 15097.9)" fill="#33D6C0"/>
</g>
<g id="Group 4">
<g id="Vector">
<use xlink:href="#path4_fill" transform="translate(-7620.02 15033)" fill="#33D6C0"/>
</g>
<g id="Vector">
<use xlink:href="#path5_fill" transform="translate(-7625.94 15027.9)" fill="#33D6C0"/>
</g>
<g id="Vector">
<use xlink:href="#path6_fill" transform="translate(-7617.72 15040.3)" fill="#33D6C0"/>
</g>
</g>
<g id="Group 3">
<g id="Vector">
<use xlink:href="#path7_fill" transform="translate(-7625.94 15062)" fill="#FCC65D"/>
</g>
<g id="Vector">
<use xlink:href="#path8_fill" transform="translate(-7617.72 15067.6)" fill="#FCC65D"/>
</g>
<g id="Vector">
<use xlink:href="#path9_fill" transform="translate(-7617.64 15070.8)" fill="#FCC65D"/>
</g>
</g>
<g id="Group 2">
<g id="Vector">
<use xlink:href="#path10_fill" transform="translate(-7643.45 15110.6)" fill="#276591"/>
</g>
<g id="Vector">
<use xlink:href="#path11_fill" transform="translate(-7545.62 15021.4)" fill="#276591"/>
</g>
<g id="Vector">
<use xlink:href="#path12_fill" transform="translate(-7635.97 15007.9)" fill="#276591"/>
</g>
<g id="Vector">
<use xlink:href="#path13_fill" transform="translate(-7552.77 15007.9)" fill="#276591"/>
</g>
<g id="Vector">
<use xlink:href="#path14_fill" transform="translate(-7594.58 14988.2)" fill="#276591"/>
</g>
<g id="Vector">
<use xlink:href="#path15_fill" transform="translate(-7636.05 14995.6)" fill="#276591"/>
</g>
<g id="Vector">
<use xlink:href="#path16_fill" transform="translate(-7653.07 15030.4)" fill="#276591"/>
</g>
<g id="Vector">
<use xlink:href="#path17_fill" transform="translate(-7551.62 15030.4)" fill="#276591"/>
</g>
<g id="Vector">
<use xlink:href="#path18_fill" transform="translate(-7645.91 15037.5)" fill="#276591"/>
</g>
<g id="Vector">
<use xlink:href="#path19_fill" transform="translate(-7551.54 15037.5)" fill="#276591"/>
</g>
<g id="Vector">
<use xlink:href="#path20_fill" transform="translate(-7656.6 15096.2)" fill="#276591"/>
</g>
<g id="Vector">
<use xlink:href="#path21_fill" transform="translate(-7541.63 15103.3)" fill="#276591"/>
</g>
<g id="Vector">
<use xlink:href="#path22_fill" transform="translate(-7661 15103.3)" fill="#276591"/>
</g>
<g id="Vector">
<use xlink:href="#path23_fill" transform="translate(-7636.54 15110.9)" fill="#276591"/>
</g>
<g id="Vector">
<use xlink:href="#path24_fill" transform="translate(-7627.91 15001.9)" fill="#276591"/>
</g>
<g id="Vector">
<use xlink:href="#path25_fill" transform="translate(-7621.42 15001.9)" fill="#276591"/>
</g>
<g id="Vector">
<use xlink:href="#path26_fill" transform="translate(-7614.92 15001.9)" fill="#276591"/>
</g>
<g id="Vector">
<use xlink:href="#path27_fill" transform="translate(-7594.83 15030.4)" fill="#276591"/>
</g>
<g id="Vector">
<use xlink:href="#path28_fill" transform="translate(-7581.96 15038.9)" fill="#276591"/>
</g>
<g id="Vector">
<use xlink:href="#path29_fill" transform="translate(-7594.08 15038.9)" fill="#276591"/>
</g>
<g id="Vector">
<use xlink:href="#path30_fill" transform="translate(-7594.17 15047.3)" fill="#276591"/>
</g>
<g id="Vector">
<use xlink:href="#path31_fill" transform="translate(-7594.17 15064.8)" fill="#276591"/>
</g>
<g id="Vector">
<use xlink:href="#path32_fill" transform="translate(-7568.84 15073.3)" fill="#276591"/>
</g>
<g id="Vector">
<use xlink:href="#path33_fill" transform="translate(-7594.17 15073.3)" fill="#276591"/>
</g>
<g id="Vector">
<use xlink:href="#path34_fill" transform="translate(-7594.17 15081.8)" fill="#276591"/>
</g>
<g id="Vector">
<use xlink:href="#path35_fill" transform="translate(-7612.91 15017.9)" fill="#276591"/>
</g>
</g>
</g>
</g>
<defs>
<path id="path0_fill" d="M 8.30301 65.8358C 8.30301 4.02741 8.54963 7.1507 7.89197 7.1507L -5.01758e-06 7.1507L -5.01758e-06 1.25415e-06L 11.0159 1.25415e-06C 13.4821 1.25415e-06 15.4551 1.97261 15.4551 4.43837L 15.4551 65.8358L 8.30301 65.8358Z"/>
<path id="path1_fill" d="M 7.1521 65.8358C 7.1521 4.02741 6.90547 7.1507 7.56314 7.1507L 15.4551 7.1507L 15.4551 1.25415e-06L 4.43923 1.25415e-06C 1.97299 1.25415e-06 3.13599e-07 1.97261 3.13599e-07 4.43837L 3.13599e-07 65.8358L 7.1521 65.8358Z"/>
<path id="path2_fill" d="M 81.9614 4.93152C 81.9614 2.21918 79.7418 0 77.0289 0L 4.93248 0C 2.21962 0 -3.13599e-07 2.21918 -3.13599e-07 4.93152L -3.13599e-07 12L 81.9614 12L 81.9614 4.93152Z"/>
<path id="path3_fill" d="M 68.2327 -5.0166e-06C 66.9173 2.21918 65.191 1.80823 59.4364 1.80823C 58.1211 1.80823 56.9702 1.06849 56.3947 -5.0166e-06L 7.83997e-08 -5.0166e-06L 7.83997e-08 0.904112C 7.83997e-08 4.35617 2.79507 7.15071 6.24781 7.15071L 117.804 7.15071C 121.257 7.15071 124.052 4.35617 124.052 0.904112L 124.052 -5.0166e-06L 68.2327 -5.0166e-06Z"/>
<path id="path4_fill" d="M 15.3729 5.91782L 7.72755 0L 1.25439e-06 5.91782L 15.3729 5.91782Z"/>
<path id="path5_fill" d="M 25.5667 25.7261L 1.64416 25.7261C 0.739873 25.7261 6.27197e-07 24.9864 6.27197e-07 24.0823L 6.27197e-07 1.64384C 6.27197e-07 0.739727 0.739873 -6.27075e-07 1.64416 -6.27075e-07L 25.5667 -6.27075e-07C 26.471 -6.27075e-07 27.2109 0.739727 27.2109 1.64384L 27.2109 24.1644C 27.2109 24.9864 26.471 25.7261 25.5667 25.7261ZM 3.28832 22.4384L 23.9225 22.4384L 23.9225 3.28768L 3.28832 3.28768L 3.28832 22.4384Z"/>
<path id="path6_fill" d="M 6.27197e-07 -6.27075e-07L 6.27197e-07 8.63016L 11.0159 8.63016L 11.0159 -6.27075e-07L 6.27197e-07 -6.27075e-07ZM 6.65885 5.17809L 4.27482 5.17809L 4.27482 2.79452L 6.65885 2.79452L 6.65885 5.17809Z"/>
<path id="path7_fill" d="M 25.5667 25.8083L 1.64416 25.8083C 0.739873 25.8083 6.27197e-07 25.0686 6.27197e-07 24.1644L 6.27197e-07 1.64384C 6.27197e-07 0.73973 0.739873 2.5083e-06 1.64416 2.5083e-06L 25.5667 2.5083e-06C 26.471 2.5083e-06 27.2109 0.73973 27.2109 1.64384L 27.2109 24.1644C 27.2109 25.0686 26.471 25.8083 25.5667 25.8083ZM 3.28832 22.5206L 24.0047 22.5206L 24.0047 3.28768L 3.28832 3.28768L 3.28832 22.5206Z"/>
<path id="path8_fill" d="M 11.0981 1.89042L 11.0981 -1.25415e-06L 6.27197e-07 -1.25415e-06L 6.27197e-07 1.89042L 11.0981 1.89042Z"/>
<path id="path9_fill" d="M -6.27197e-07 1.25415e-06L -6.27197e-07 12.2466L 11.0159 12.2466L 11.0159 1.25415e-06L -6.27197e-07 1.25415e-06ZM 3.37053 9.69865L 1.56195 9.69865L 1.56195 8.2192L 3.37053 8.2192L 3.37053 9.69865ZM 3.37053 6.82193L 1.56195 6.82193L 1.56195 5.34248L 3.37053 5.34248L 3.37053 6.82193ZM 3.37053 3.94521L 1.56195 3.94521L 1.56195 2.46576L 3.37053 2.46576L 3.37053 3.94521ZM 6.41222 9.69865L 4.60365 9.69865L 4.60365 8.2192L 6.41222 8.2192L 6.41222 9.69865ZM 6.41222 6.82193L 4.60365 6.82193L 4.60365 5.34248L 6.41222 5.34248L 6.41222 6.82193ZM 6.41222 3.94521L 4.60365 3.94521L 4.60365 2.46576L 6.41222 2.46576L 6.41222 3.94521ZM 9.45393 9.69865L 7.64535 9.69865L 7.64535 8.2192L 9.45393 8.2192L 9.45393 9.69865ZM 9.45393 6.82193L 7.64535 6.82193L 7.64535 5.34248L 9.45393 5.34248L 9.45393 6.82193ZM 9.45393 3.94521L 7.64535 3.94521L 7.64535 2.46576L 9.45393 2.46576L 9.45393 3.94521Z"/>
<path id="path10_fill" d="M -3.13599e-07 1.84932C -3.13599e-07 2.83563 0.82208 3.65755 1.80858 3.65755C 2.79507 3.65755 3.61715 2.83563 3.61715 1.84932C 3.69936 -0.616435 -3.13599e-07 -0.616435 -3.13599e-07 1.84932Z"/>
<path id="path11_fill" d="M -5.01758e-06 1.78768C -5.01758e-06 4.25344 3.69936 4.25344 3.69936 1.78768C 3.69936 -0.595892 -5.01758e-06 -0.595892 -5.01758e-06 1.78768Z"/>
<path id="path12_fill" d="M 0 88.6441L 0 1.60274C 0 -0.534248 3.28832 -0.534248 3.28832 1.60274L 3.28832 88.6441C 3.28832 90.781 0 90.781 0 88.6441Z"/>
<path id="path13_fill" d="M -2.50879e-06 88.6441L -2.50879e-06 1.60274C -2.50879e-06 -0.534248 3.28832 -0.534248 3.28832 1.60274L 3.28832 88.6441C 3.28832 90.781 -2.50879e-06 90.781 -2.50879e-06 88.6441Z"/>
<path id="path14_fill" d="M 49.2015 28.685L 49.2015 14.548C 49.2015 8.30139 44.1046 3.28768 37.939 3.28768L 1.60306 3.28768C -0.53435 3.28768 -0.53435 0 1.60306 0L 37.8568 0C 45.9132 0 52.4076 6.49317 52.4076 14.548L 52.4076 28.6028C 52.4898 30.822 49.2015 30.822 49.2015 28.685Z"/>
<path id="path15_fill" d="M 84.7565 15.5343C 84.6743 15.5343 1.72637 15.5343 1.64416 15.5343C 0.739873 15.5343 -3.13599e-07 14.7946 -3.13599e-07 13.8904L -3.13599e-07 7.1507C -3.13599e-07 3.20549 3.20611 0 7.1521 0L 79.2486 0C 83.1945 0 86.4006 3.20549 86.4006 7.1507L 86.4006 13.8904C 86.5651 14.8767 85.743 15.6165 84.7565 15.5343ZM 3.37053 12.2466L 83.2767 12.2466L 83.2767 7.1507C 83.2767 5.01371 81.5504 3.28768 79.413 3.28768L 7.23431 3.28768C 5.0969 3.28768 3.37053 5.01371 3.37053 7.1507L 3.37053 12.2466Z"/>
<path id="path16_fill" d="M -1.56799e-07 67.4796L -1.56799e-07 6.08221C -1.56799e-07 2.71234 2.71287 -6.27075e-07 6.08339 -6.27075e-07L 17.0993 -6.27075e-07C 19.2367 -6.27075e-07 19.2367 3.28768 17.0993 3.28768L 6.08339 3.28768C 4.52144 3.28768 3.28832 4.52056 3.28832 6.08221L 3.28832 67.4796C 3.28832 69.6166 -1.56799e-07 69.6988 -1.56799e-07 67.4796Z"/>
<path id="path17_fill" d="M 15.4551 67.4796L 15.4551 6.08221C 15.4551 4.52056 14.222 3.28768 12.66 3.28768L 1.64417 3.28768C 0.739877 3.28768 5.01758e-06 2.54795 5.01758e-06 1.64384C 5.01758e-06 0.739727 0.739877 -6.27075e-07 1.64417 -6.27075e-07L 12.66 -6.27075e-07C 16.0306 -6.27075e-07 18.7434 2.71234 18.7434 6.08221L 18.7434 67.4796C 18.7434 69.6166 15.4551 69.6988 15.4551 67.4796Z"/>
<path id="path18_fill" d="M -3.13599e-07 59.1782L -3.13599e-07 2.0548C -3.13599e-07 0.904112 0.904288 0 2.0552 0L 9.94717 0C 10.8515 0 11.5913 0.739728 11.5913 1.64384C 11.5913 2.54795 10.8515 3.28768 9.94717 3.28768L 3.28832 3.28768L 3.28832 59.1782C 3.28832 61.3152 -3.13599e-07 61.3152 -3.13599e-07 59.1782Z"/>
<path id="path19_fill" d="M 8.30301 58.3563L 8.30301 3.28768L 1.64416 3.28768C 0.73987 3.28768 -2.50879e-06 2.54795 -2.50879e-06 1.64384C -2.50879e-06 0.739729 0.73987 1.25415e-06 1.64416 1.25415e-06L 9.53613 1.25415e-06C 10.687 1.25415e-06 11.5913 0.904113 11.5913 2.0548L 11.5913 58.2741C 11.5913 60.4933 8.30301 60.4933 8.30301 58.3563Z"/>
<path id="path20_fill" d="M 119.448 10.4819L 7.89197 10.4819C 3.53495 10.4819 7.83997e-08 6.9476 7.83997e-08 2.59142L 7.83997e-08 1.68731C 7.83997e-08 0.783196 0.739872 0.0434684 1.64416 0.0434684C 62.3137 0.0434684 58.7787 -0.285299 59.4364 0.865388C 59.7652 1.44073 60.4229 1.8517 61.0806 1.8517C 66.9995 1.8517 67.7394 2.09827 68.3971 0.865388C 68.7259 0.372236 69.2192 0.0434684 69.7946 0.0434684L 125.614 0.0434684C 126.518 0.0434684 127.258 0.783196 127.258 1.68731L 127.258 2.59142C 127.34 6.9476 123.805 10.4819 119.448 10.4819ZM 3.37053 3.33115C 3.69936 5.46814 5.59015 7.19418 7.89197 7.19418L 119.448 7.19418C 121.75 7.19418 123.641 5.55033 123.97 3.33115L 70.6989 3.33115C 68.7259 5.55033 66.8351 5.13938 61.0806 5.13938C 59.6008 5.13938 58.1211 4.48184 57.2168 3.33115L 3.37053 3.33115Z"/>
<path id="path21_fill" d="M 15.9895 3.28768L 1.60305 3.28768C -0.534355 3.28768 -0.534355 0 1.60305 0L 15.9895 0C 16.8937 0 17.6336 0.739728 17.6336 1.64384C 17.6336 2.54795 16.8937 3.28768 15.9895 3.28768Z"/>
<path id="path22_fill" d="M 15.9895 3.28768L 1.60306 3.28768C -0.534352 3.28768 -0.534352 0 1.60306 0L 15.9895 0C 16.8938 0 17.6336 0.739728 17.6336 1.64384C 17.6336 2.54795 16.8938 3.28768 15.9895 3.28768Z"/>
<path id="path23_fill" d="M 92.8951 3.28768L 1.64416 3.28768C 0.739872 3.28768 -6.27197e-07 2.54795 -6.27197e-07 1.64384C -6.27197e-07 0.73973 0.739872 2.5083e-06 1.64416 2.5083e-06L 92.8951 2.5083e-06C 95.0325 2.5083e-06 95.0325 3.28768 92.8951 3.28768Z"/>
<path id="path24_fill" d="M -6.27197e-07 1.78767C -6.27197e-07 4.17124 3.61715 4.17124 3.61715 1.78767C 3.69936 -0.595892 -6.27197e-07 -0.595892 -6.27197e-07 1.78767Z"/>
<path id="path25_fill" d="M 6.27197e-07 1.78767C 6.27197e-07 4.17124 3.61715 4.17124 3.61715 1.78767C 3.61715 -0.595892 6.27197e-07 -0.595892 6.27197e-07 1.78767Z"/>
<path id="path26_fill" d="M -1.25439e-06 1.78767C -1.25439e-06 4.17124 3.61715 4.17124 3.61715 1.78767C 3.61715 -0.595892 -1.25439e-06 -0.595892 -1.25439e-06 1.78767Z"/>
<path id="path27_fill" d="M 32.39 3.28768L 1.64416 3.28768C 0.739875 3.28768 2.50879e-06 2.54795 2.50879e-06 1.64384C 2.50879e-06 0.739727 0.739875 -6.27075e-07 1.64416 -6.27075e-07L 32.3078 -6.27075e-07C 34.5274 -6.27075e-07 34.5274 3.28768 32.39 3.28768Z"/>
<path id="path28_fill" d="M 20.141 3.28768L 1.64416 3.28768C 0.73987 3.28768 -2.50879e-06 2.54795 -2.50879e-06 1.64384C -2.50879e-06 0.739726 0.73987 -1.25415e-06 1.64416 -1.25415e-06L 20.141 -1.25415e-06C 21.0452 -1.25415e-06 21.7851 0.739726 21.7851 1.64384C 21.7851 2.54795 21.0452 3.28768 20.141 3.28768Z"/>
<path id="path29_fill" d="M 6.1245 3.28768L 1.60306 3.28768C -0.534351 3.28768 -0.534351 -1.25415e-06 1.60306 -1.25415e-06L 6.1245 -1.25415e-06C 7.02879 -1.25415e-06 7.76866 0.739726 7.76866 1.64384C 7.76866 2.54795 7.02879 3.28768 6.1245 3.28768Z"/>
<path id="path30_fill" d="M 32.3489 3.28768L 1.60306 3.28768C -0.53435 3.28768 -0.53435 1.25415e-06 1.60306 1.25415e-06L 32.2666 1.25415e-06C 33.1709 1.25415e-06 33.9108 0.739729 33.9108 1.64384C 33.993 2.54795 33.2531 3.28768 32.3489 3.28768Z"/>
<path id="path31_fill" d="M 32.3489 3.28768L 1.60306 3.28768C -0.53435 3.28768 -0.53435 -2.5083e-06 1.60306 -2.5083e-06L 32.2667 -2.5083e-06C 34.4863 -2.5083e-06 34.4863 3.28768 32.3489 3.28768Z"/>
<path id="path32_fill" d="M 7.02878 3.28768L 1.60306 3.28768C -0.534353 3.28768 -0.534353 0 1.60306 0L 7.02878 0C 9.16619 0 9.16619 3.28768 7.02878 3.28768Z"/>
<path id="path33_fill" d="M 18.2913 3.28768L 1.60306 3.28768C -0.53435 3.28768 -0.53435 0 1.60306 0L 18.2913 0C 19.1956 0 19.9354 0.739728 19.9354 1.64384C 19.9354 2.54795 19.1956 3.28768 18.2913 3.28768Z"/>
<path id="path34_fill" d="M 15.1674 3.28768L 1.60306 3.28768C -0.53435 3.28768 -0.53435 2.5083e-06 1.60306 2.5083e-06L 15.1674 2.5083e-06C 16.0717 2.5083e-06 16.8115 0.73973 16.8115 1.64384C 16.8115 2.54795 16.0717 3.28768 15.1674 3.28768Z"/>
<path id="path35_fill" d="M 35.7194 3.28768L 33.6642 3.28768C 32.7599 3.28768 32.02 2.54795 32.02 1.64384C 32.02 0.739726 32.7599 -1.25415e-06 33.6642 -1.25415e-06L 35.7194 -1.25415e-06C 36.6237 -1.25415e-06 37.3635 0.739726 37.3635 1.64384C 37.3635 2.54795 36.6237 3.28768 35.7194 3.28768ZM 25.4434 3.28768L 22.9771 3.28768C 20.8397 3.28768 20.8397 -1.25415e-06 22.9771 -1.25415e-06L 25.4434 -1.25415e-06C 26.3477 -1.25415e-06 27.0875 0.739726 27.0875 1.64384C 27.0875 2.54795 26.3477 3.28768 25.4434 3.28768ZM 14.7563 3.28768L 12.2901 3.28768C 10.1527 3.28768 10.1527 -1.25415e-06 12.2901 -1.25415e-06L 14.7563 -1.25415e-06C 15.6606 -1.25415e-06 16.4005 0.739726 16.4005 1.64384C 16.4005 2.54795 15.6606 3.28768 14.7563 3.28768ZM 4.0693 3.28768L 1.60306 3.28768C -0.534352 3.28768 -0.534352 -1.25415e-06 1.60306 -1.25415e-06L 4.0693 -1.25415e-06C 4.97359 -1.25415e-06 5.71346 0.739726 5.71346 1.64384C 5.71346 2.54795 4.97359 3.28768 4.0693 3.28768Z"/>
</defs>
</svg>
