<svg width="27" height="24" viewBox="0 0 27 24" fill="none" xmlns="http://www.w3.org/2000/svg">
<path d="M7.92952 1.53098e-07C6.34361 1.53098e-07 4.99559 1.08361 4.55947 2.56856H0.951542C0.396476 2.56856 0 3.01003 0 3.57191C0 4.13378 0.436123 4.57525 0.991189 4.57525H4.59912C4.99559 6.0602 6.38326 7.14381 7.96916 7.14381C9.59471 7.14381 10.9427 6.0602 11.3789 4.57525H26.0088C26.5639 4.57525 27 4.13378 27 3.57191C27 3.01003 26.5639 2.56856 26.0088 2.56856H11.3789C10.9031 1.08361 9.55507 1.53098e-07 7.92952 1.53098e-07ZM7.96916 2.00669C8.80176 2.00669 9.51542 2.68896 9.51542 3.57191C9.51542 4.45485 8.80176 5.13712 7.96916 5.13712C7.13656 5.13712 6.42291 4.45485 6.42291 3.57191C6.42291 2.68896 7.13656 2.00669 7.96916 2.00669Z" fill="#276591"/>
<path d="M19.8634 -6.12393e-07C18.2775 -6.12393e-07 16.9295 1.08361 16.4934 2.56856H0.991189C0.396476 2.56856 0 3.01003 0 3.57191C0 4.13378 0.436123 4.57525 0.991189 4.57525H16.4934C16.8899 6.0602 18.2775 7.14381 19.8634 7.14381C21.489 7.14381 22.837 6.0602 23.2731 4.57525H26.0088C26.5639 4.57525 27 4.13378 27 3.57191C27 3.01003 26.5639 2.56856 26.0088 2.56856H23.2731C22.837 1.08361 21.489 -6.12393e-07 19.8634 -6.12393e-07ZM19.9031 2.00669C20.7357 2.00669 21.4493 2.68896 21.4493 3.57191C21.4493 4.45485 20.7357 5.13712 19.9031 5.13712C19.0705 5.13712 18.3568 4.45485 18.3568 3.57191C18.3568 2.68896 19.0308 2.00669 19.9031 2.00669Z" transform="translate(0 8.02734)" fill="#276591"/>
<path d="M12.6872 -6.12393e-07C11.1013 -6.12393e-07 9.7533 1.08361 9.31718 2.56856H0.991189C0.396476 2.56856 0 3.01003 0 3.57191C0 4.13378 0.436123 4.57525 0.991189 4.57525H9.35683C9.7533 6.0602 11.141 7.14381 12.7269 7.14381C14.3524 7.14381 15.7004 6.0602 16.1366 4.57525H26.0088C26.5639 4.57525 27 4.13378 27 3.57191C27 3.01003 26.5639 2.56856 26.0088 2.56856H16.0969C15.6608 1.08361 14.3128 -6.12393e-07 12.6872 -6.12393e-07ZM12.7269 2.00669C13.5595 2.00669 14.2731 2.68896 14.2731 3.57191C14.2731 4.45485 13.5595 5.13712 12.7269 5.13712C11.8943 5.13712 11.1806 4.45485 11.1806 3.57191C11.2203 2.68896 11.8943 2.00669 12.7269 2.00669Z" transform="translate(0 16.8555)" fill="#276591"/>
</svg>
