<svg width="148" height="127" viewBox="0 0 148 127" version="1.1" xmlns="http://www.w3.org/2000/svg" xmlns:xlink="http://www.w3.org/1999/xlink">
<g id="Canvas" fill="none">
<g id="home">
<g id="Group 2">
<g id="Vector">
<path d="M 52.8603 7.31046C 47.6362 1.62882 38.8704 1.27372 33.1151 6.51148C 28.0682 -3.07629 15.4951 -1.83343 11.9533 8.64209C 6.3751 6.15638 0.177081 10.1513 -5.40425e-06 16.2768L 35.5944 16.2768L 52.8603 7.31046Z" transform="translate(9.69531 2.71484)" fill="#33D6C0"/>
</g>
<g id="Vector_2">
<path d="M 0 0L 0 36.3092L 36.5683 36.3092L 36.5683 78.6553L 45.157 78.6553L 45.157 29.7398L 0 0Z" transform="translate(96.5562 36.3906)" fill="#33D6C0"/>
</g>
<g id="Vector_3">
<path d="M 4.33862 5.41844e-06L 1.08085e-05 5.41844e-06L 1.08085e-05 7.01328L 4.33862 7.01328L 4.33862 5.41844e-06Z" transform="translate(113.114 98.1797)" fill="#33D6C0"/>
</g>
<g id="Vector_4">
<path d="M 4.33863 5.41844e-06L -1.08085e-05 5.41844e-06L -1.08085e-05 7.01328L 4.33863 7.01328L 4.33863 5.41844e-06Z" transform="translate(95.9363 98.1797)" fill="#33D6C0"/>
</g>
<g id="Vector_5">
<path d="M 16.8232 5.41844e-06L 5.40425e-06 5.41844e-06L 5.40425e-06 16.8674L 16.8232 16.8674L 16.8232 5.41844e-06Z" transform="translate(72.3396 115.066) scale(-1)" fill="#33D6C0"/>
</g>
<g id="Vector_6">
<path d="M 16.8232 5.41844e-06L 0 5.41844e-06L 0 16.8674L 16.8232 16.8674L 16.8232 5.41844e-06Z" transform="translate(55.4519 115.066) scale(-1)" fill="#33D6C0"/>
</g>
<g id="Vector_7">
<path d="M 16.8232 5.41844e-06L -5.40425e-06 5.41844e-06L -5.40425e-06 16.8674L 16.8232 16.8674L 16.8232 5.41844e-06Z" transform="translate(38.5645 115.066) scale(-1)" fill="#33D6C0"/>
</g>
</g>
<g id="Vector_8">
<path d="M 0 43.4113L 0 104.489L 8.4116 104.489L 8.4116 44.7429L 75.1731 44.7429L 75.1731 104.489L 83.9389 104.489L 83.9389 -5.41844e-06L 0 43.4113Z" transform="translate(5.35645 9.67188)" fill="#FCC65D"/>
</g>
<g id="Vector_9">
<path d="M 16.8232 0L 5.40425e-06 0L 5.40425e-06 16.8674L 16.8232 16.8674L 16.8232 0Z" transform="translate(72.3396 98.0605) scale(-1)" fill="#FCC65D"/>
</g>
<g id="Group 2_2">
<g id="Vector_10">
<path d="M 9.14085 18.246C 14.1892 18.246 18.2817 14.1615 18.2817 9.12302C 18.2817 4.08452 14.1892 -5.40606e-06 9.14085 -5.40606e-06C 4.0925 -5.40606e-06 -1.08333e-05 4.08452 -1.08333e-05 9.12302C -1.08333e-05 14.1615 4.0925 18.246 9.14085 18.246Z" transform="matrix(0.356284 -0.934412 0.933787 0.357918 112.327 28.5918)" fill="#FCC65D"/>
</g>
<g id="Vector_11">
<path d="M 0.123933 3.98565L 1.18646 1.14481C 1.98335 -1.07458 5.348 0.257051 4.46257 2.38767L 3.40004 5.2285C 2.60315 7.44789 -0.672956 6.11626 0.123933 3.98565Z" transform="translate(127.423 5.95312)" fill="#FCC65D"/>
</g>
<g id="Vector_12">
<path d="M 1.41845 5.22642L 0.178852 2.47436C -0.795123 0.343749 2.48099 -1.07667 3.45496 1.05395L 4.69456 3.806C 5.13728 4.69376 4.69456 5.75907 3.80913 6.11417C 2.83515 6.55805 1.77262 6.11417 1.41845 5.22642Z" transform="translate(115.769 6.31055)" fill="#FCC65D"/>
</g>
<g id="Vector_13">
<path d="M 3.9752 4.49762L 1.14181 3.4323C -1.07177 2.63332 0.256372 -0.740137 2.38141 0.14762L 5.2148 1.21291C 6.10023 1.56801 6.54296 2.63333 6.27733 3.52108C 5.92316 4.40884 4.86063 4.85272 3.9752 4.49762Z" transform="translate(106.837 15.5625)" fill="#FCC65D"/>
</g>
<g id="Vector_14">
<path d="M 1.05121 1.42219L 3.79603 0.179338C 5.92106 -0.797194 7.33776 2.48749 5.21272 3.46402L 2.46788 4.70688C 0.342843 5.59463 -1.07383 2.39872 1.05121 1.42219Z" transform="translate(107.193 27.0703)" fill="#FCC65D"/>
</g>
<g id="Vector_15">
<path d="M 0.147228 3.98564L 1.20973 1.14481C 2.00662 -1.07458 5.37127 0.257045 4.48584 2.38766L 3.42331 5.22849C 2.62642 7.44789 -0.738204 6.20503 0.147228 3.98564Z" transform="translate(116.42 34.2734)" fill="#FCC65D"/>
</g>
<g id="Vector_16">
<path d="M 1.41846 5.22643L 0.178863 2.47438C -0.795112 0.34376 2.48097 -1.07666 3.45494 1.05396L 4.69457 3.80601C 5.13729 4.69377 4.69457 5.75908 3.80914 6.11418C 2.83516 6.55806 1.77263 6.11418 1.41846 5.22643Z" transform="translate(127.899 34.0078)" fill="#FCC65D"/>
</g>
<g id="Vector_17">
<path d="M 3.9752 4.49761L 1.1418 3.43231C -1.07178 2.63333 0.256393 -0.740153 2.38143 0.147603L 5.21482 1.21292C 6.10025 1.56802 6.54293 2.54456 6.2773 3.5211C 5.92312 4.40885 4.86063 4.85271 3.9752 4.49761Z" transform="translate(135.082 26.3926)" fill="#FCC65D"/>
</g>
<g id="Vector_18">
<path d="M 1.05122 1.42219L 3.79604 0.179338C 5.92107 -0.797194 7.33774 2.48749 5.21271 3.46402L 2.46789 4.70688C 0.342854 5.68341 -1.07382 2.39872 1.05122 1.42219Z" transform="translate(134.818 14.6426)" fill="#FCC65D"/>
</g>
</g>
<g id="Group 2_3">
<g id="Vector_19">
<path d="M 1.99222 1.08369e-05C -0.664079 1.08369e-05 -0.664079 3.99492 1.99222 3.99492C 4.55997 3.90614 4.55997 1.08369e-05 1.99222 1.08369e-05Z" transform="translate(14.3438 122.24)" fill="#276591"/>
</g>
<g id="Vector_20">
<path d="M 85.7753 116.59L 1.83636 116.59C 0.86239 116.59 0.0655013 115.791 0.0655013 114.814C 0.0655013 39.8876 -0.377236 44.3263 1.03945 43.6161C 90.8222 -2.81355 85.4211 -0.505369 86.6607 0.293612C 87.192 0.648715 87.5462 1.18135 87.5462 1.80278L 87.5462 114.814C 87.5462 115.791 86.7493 116.59 85.7753 116.59ZM 3.60723 113.039L 84.0044 113.039L 84.0044 4.7324L 3.60723 46.2794L 3.60723 113.039Z" transform="translate(3.69775 0.234375)" fill="#276591"/>
</g>
<g id="Vector_21">
<path d="M 54.1654 87.19L 1.83635 87.19C 0.862374 87.19 0.0654851 86.391 0.0654851 85.4145C 0.0654851 -4.69281 -0.377225 0.900052 1.03947 0.189847C 1.57072 -0.0764803 2.27908 -0.0764748 2.89888 0.278628C 59.3009 37.742 56.0248 35.0787 56.0248 36.4991L 56.0248 85.4145C 55.9362 86.391 55.1393 87.19 54.1654 87.19ZM 3.69576 83.639L 52.483 83.639L 52.483 37.4756L 3.69576 5.07251L 3.69576 83.639Z" transform="translate(87.5481 29.6348)" fill="#276591"/>
</g>
<g id="Vector_22">
<path d="M 18.5941 20.4184L 1.77087 20.4184C 0.796894 20.4184 5.40425e-06 19.6194 5.40425e-06 18.6429L 5.40425e-06 1.77552C 5.40425e-06 0.798987 0.796894 5.41844e-06 1.77087 5.41844e-06L 18.5941 5.41844e-06C 19.568 5.41844e-06 20.3649 0.798987 20.3649 1.77552L 20.3649 18.6429C 20.3649 19.6194 19.6566 20.4184 18.5941 20.4184ZM 3.54173 16.8674L 16.8232 16.8674L 16.8232 3.55103L 3.54173 3.55103L 3.54173 16.8674Z" transform="translate(53.7014 96.4062)" fill="#276591"/>
</g>
<g id="Vector_23">
<path d="M 18.5941 20.4184L 1.77085 20.4184C 0.796878 20.4184 -1.08085e-05 19.6194 -1.08085e-05 18.6429L -1.08085e-05 1.77552C -1.08085e-05 0.798987 0.796878 5.41844e-06 1.77085 5.41844e-06L 18.5941 5.41844e-06C 19.568 5.41844e-06 20.3649 0.798987 20.3649 1.77552L 20.3649 18.6429C 20.3649 19.6194 19.568 20.4184 18.5941 20.4184ZM 3.54172 16.8674L 16.8232 16.8674L 16.8232 3.55103L 3.54172 3.55103L 3.54172 16.8674Z" transform="translate(87.9678 96.4062)" fill="#276591"/>
</g>
<g id="Vector_24">
<path d="M 18.5941 20.4184L 1.77087 20.4184C 0.796894 20.4184 5.40425e-06 19.6194 5.40425e-06 18.6429L 5.40425e-06 1.77552C 5.40425e-06 0.798987 0.796894 5.41844e-06 1.77087 5.41844e-06L 18.5941 5.41844e-06C 19.568 5.41844e-06 20.3649 0.798987 20.3649 1.77552L 20.3649 18.6429C 20.3649 19.6194 19.6566 20.4184 18.5941 20.4184ZM 3.54173 16.8674L 16.8232 16.8674L 16.8232 3.55103L 3.54173 3.55103L 3.54173 16.8674Z" transform="translate(105.056 96.4062)" fill="#276591"/>
</g>
<g id="Vector_25">
<path d="M 18.5941 20.4184L 1.77087 20.4184C 0.796894 20.4184 5.40425e-06 19.6194 5.40425e-06 18.6429L 5.40425e-06 1.77551C 5.40425e-06 0.798981 0.796894 0 1.77087 0L 18.5941 0C 19.568 0 20.3649 0.798981 20.3649 1.77551L 20.3649 18.6429C 20.3649 19.6194 19.6566 20.4184 18.5941 20.4184ZM 3.54173 16.8674L 16.8232 16.8674L 16.8232 3.55103L 3.54173 3.55103L 3.54173 16.8674Z" transform="translate(53.7014 79.4492)" fill="#276591"/>
</g>
<g id="Vector_26">
<path d="M 18.5941 20.4184L 1.77087 20.4184C 0.796894 20.4184 5.40425e-06 19.6194 5.40425e-06 18.6429L 5.40425e-06 1.77551C 5.40425e-06 0.798976 0.796894 -5.41844e-06 1.77087 -5.41844e-06L 18.5941 -5.41844e-06C 19.568 -5.41844e-06 20.3649 0.798976 20.3649 1.77551L 20.3649 18.6429C 20.3649 19.6194 19.6566 20.4184 18.5941 20.4184ZM 3.54173 16.8674L 16.8232 16.8674L 16.8232 3.55102L 3.54173 3.55102L 3.54173 16.8674Z" transform="translate(53.7014 62.4941)" fill="#276591"/>
</g>
<g id="Vector_27">
<path d="M 18.5941 20.4184L 1.77087 20.4184C 0.796894 20.4184 5.40425e-06 19.6194 5.40425e-06 18.6429L 5.40425e-06 1.77551C 5.40425e-06 0.798981 0.796894 0 1.77087 0L 18.5941 0C 19.568 0 20.3649 0.798981 20.3649 1.77551L 20.3649 18.6429C 20.3649 19.6194 19.568 20.4184 18.5941 20.4184ZM 3.45318 16.8674L 16.7347 16.8674L 16.7347 3.55103L 3.45318 3.55103L 3.45318 16.8674Z" transform="translate(36.8782 79.4492)" fill="#276591"/>
</g>
<g id="Vector_28">
<path d="M 18.5941 20.4184L 1.77086 20.4184C 0.796889 20.4184 0 19.6194 0 18.6429L 0 1.77552C 0 0.798987 0.796889 5.41844e-06 1.77086 5.41844e-06L 18.5941 5.41844e-06C 19.568 5.41844e-06 20.3649 0.798987 20.3649 1.77552L 20.3649 18.6429C 20.3649 19.6194 19.568 20.4184 18.5941 20.4184ZM 3.45318 16.8674L 16.7347 16.8674L 16.7347 3.55103L 3.45318 3.55103L 3.45318 16.8674Z" transform="translate(19.9663 96.4062)" fill="#276591"/>
</g>
<g id="Vector_29">
<path d="M 5.40425e-06 59.8348L 5.40425e-06 1.7755C 5.40425e-06 0.79897 0.796894 -1.08369e-05 1.77087 -1.08369e-05L 68.5324 -1.08369e-05C 69.5064 -1.08369e-05 70.3033 0.79897 70.3033 1.7755L 70.3033 59.6572C 70.3033 60.6338 69.5064 61.4328 68.5324 61.4328C 67.5584 61.4328 66.7616 60.6338 66.7616 59.6572L 66.7616 3.55102L 3.54173 3.55102L 3.54173 59.8348C 3.54173 62.2318 5.40425e-06 62.2318 5.40425e-06 59.8348Z" transform="translate(12.0862 53.5273)" fill="#276591"/>
</g>
<g id="Vector_30">
<path d="M 43.6518 42.5236L 43.6518 3.55102L 1.77086 3.55102C 0.796889 3.55102 0 2.75203 0 1.7755C 0 0.79897 0.796889 -1.08369e-05 1.77086 -1.08369e-05L 45.4226 -1.08369e-05C 46.3966 -1.08369e-05 47.1935 0.79897 47.1935 1.7755L 47.1935 42.5236C 47.1935 44.9205 43.6518 44.9205 43.6518 42.5236Z" transform="translate(87.7019 70.8379)" fill="#276591"/>
</g>
<g id="Vector_31">
<path d="M 108.598 3.55104L 1.7266 3.55104C -0.575525 3.55104 -0.575525 1.08369e-05 1.7266 1.08369e-05L 108.598 1.08369e-05C 109.572 1.08369e-05 110.369 0.798992 110.369 1.77552C 110.369 2.75206 109.572 3.55104 108.598 3.55104Z" transform="translate(22.3125 122.24)" fill="#276591"/>
</g>
<g id="Vector_32">
<path d="M 6.24227 3.55103L 1.72659 3.55103C -0.57553 3.55103 -0.57553 5.41844e-06 1.72659 5.41844e-06L 6.24227 5.41844e-06C 7.21625 5.41844e-06 8.01313 0.798986 8.01313 1.77552C 8.01313 2.75205 7.21625 3.55103 6.24227 3.55103Z" transform="translate(139.987 113.273)" fill="#276591"/>
</g>
<g id="Vector_33">
<path d="M 6.24229 3.55103L 1.72659 3.55103C -0.575536 3.55103 -0.575536 5.41844e-06 1.72659 5.41844e-06L 6.24229 5.41844e-06C 7.21627 5.41844e-06 8.01316 0.798986 8.01316 1.77552C 8.01316 2.75205 7.21627 3.55103 6.24229 3.55103Z" transform="translate(0 113.273)" fill="#276591"/>
</g>
<g id="Vector_34">
<path d="M 18.5941 20.4184L 1.77087 20.4184C 0.796894 20.4184 5.40425e-06 19.6194 5.40425e-06 18.6429L 5.40425e-06 1.77552C 5.40425e-06 0.798987 0.796894 5.41844e-06 1.77087 5.41844e-06L 18.5941 5.41844e-06C 19.568 5.41844e-06 20.3649 0.798987 20.3649 1.77552L 20.3649 18.6429C 20.3649 19.6194 19.568 20.4184 18.5941 20.4184ZM 3.45318 16.8674L 16.7347 16.8674L 16.7347 3.55103L 3.45318 3.55103L 3.45318 16.8674Z" transform="translate(36.8782 96.4062)" fill="#276591"/>
</g>
</g>
</g>
</g>
</svg>

