<svg width="34" height="35" viewBox="0 0 34 35" version="1.1" xmlns="http://www.w3.org/2000/svg" xmlns:xlink="http://www.w3.org/1999/xlink">
<title>Group</title>
<desc>Created using Figma</desc>
<g id="Canvas" transform="translate(10051 -15073)">
<g id="Group">
<g id="Vector">
<use xlink:href="#path0_fill" transform="translate(-10051 15085.3)" fill="#276591"/>
</g>
<g id="Vector">
<use xlink:href="#path1_fill" transform="translate(-10035.6 15079.3)" fill="#276591"/>
</g>
<g id="Vector">
<use xlink:href="#path2_fill" transform="translate(-10033.5 15079.3)" fill="#276591"/>
</g>
<g id="Vector">
<use xlink:href="#path3_fill" transform="translate(-10035.6 15073.2)" fill="#276591"/>
</g>
<g id="Vector">
<use xlink:href="#path4_fill" transform="translate(-10041.7 15075.4)" fill="#FCC65D"/>
</g>
<g id="Vector">
<use xlink:href="#path5_fill" transform="translate(-10044.4 15081.5)" fill="#FCC65D"/>
</g>
</g>
</g>
<defs>
<path id="path0_fill" d="M 32.2603 2.74198L 18.6401 2.74198L 18.6401 -4.21732e-07L 17.5467 -4.21732e-07L 17.5467 12.6129L 18.6401 12.6129L 18.6401 11.5161L 24.5194 11.5161L 26.7063 3.83866L 29.4114 3.83866L 26.8353 13.6581L 27.347 20.8386L 24.6134 20.8386L 24.0667 13.7096L 1.84349 13.7096L 2.04246 11.516L 7.15917 11.516L 7.15917 3.83854L 9.34606 3.83854L 9.34606 11.516L 15.3599 11.516L 15.3599 12.6128L 16.4533 12.6128L 16.4533 -4.21732e-07L 15.3599 -4.21732e-07L 15.3599 2.74198L 1.73959 2.74198L 0 21.9353L 34 21.9353L 32.2603 2.74198ZM 23.6951 10.4193L 18.6401 10.4193L 18.6401 3.83866L 25.5691 3.83866L 23.6951 10.4193ZM 27.9391 13.7612L 30.5425 3.83866L 31.262 3.83866L 32.8027 20.8386L 28.4432 20.8386L 27.9391 13.7612ZM 15.3599 10.4193L 10.4395 10.4193L 10.4395 3.83866L 15.3599 3.83866L 15.3599 10.4193ZM 6.06572 3.83877L 6.06572 10.4194L 2.14142 10.4194L 2.73786 3.83877L 6.06572 3.83877ZM 1.74395 14.8064L 23.0542 14.8064L 23.5168 20.8386L 1.19735 20.8386L 1.74395 14.8064Z"/>
<path id="path1_fill" d="M 1.09344 0L 0 0L 0 2.74198L 1.09344 2.74198L 1.09344 0Z"/>
<path id="path2_fill" d="M 1.09344 0L 0 0L 0 2.74198L 1.09344 2.74198L 1.09344 0Z"/>
<path id="path3_fill" d="M 1.09345 1.64519C 1.09345 1.34301 1.33891 1.09679 1.64017 1.09679C 1.94143 1.09679 2.18689 1.34301 2.18689 1.64519L 2.18689 2.74198L 3.28033 2.74198L 3.28033 1.64519C 3.28033 0.738181 2.54441 1.04335e-09 1.64017 1.04335e-09C 0.735928 1.04335e-09 4.20445e-07 0.738181 4.20445e-07 1.64519L 4.20445e-07 2.74198L 1.09345 2.74198L 1.09345 1.64519Z"/>
<path id="path4_fill" d="M 14.9432 4.38705L -1.40148e-07 4.38705L -1.40148e-07 -6.32598e-08L 14.9432 -6.32598e-08L 18.0415 2.19358L 14.9432 4.38705Z"/>
<path id="path5_fill" d="M 18.0415 4.38717L 3.09825 4.38717L 1.40148e-07 2.19358L 3.09825 -3.79559e-07L 18.0415 -3.79559e-07L 18.0415 4.38717Z"/>
</defs>
</svg>
