<svg width="34" height="34" viewBox="0 0 34 34" version="1.1" xmlns="http://www.w3.org/2000/svg" xmlns:xlink="http://www.w3.org/1999/xlink">
<g id="Canvas" fill="none">
<g id="vk">
<g id="XMLID 11">
<path d="M 17 34C 26.3888 34 34 26.3888 34 17C 34 7.61116 26.3888 0 17 0C 7.61116 0 0 7.61116 0 17C 0 26.3888 7.61116 34 17 34Z" fill="#4D76A1"/>
</g>
<g id="Vector">
<path fill-rule="evenodd" clip-rule="evenodd" d="M 9.29595 10.9539L 10.4317 10.9539C 10.4317 10.9539 10.7747 10.9157 10.9499 10.7241C 11.1111 10.5482 11.1059 10.2179 11.1059 10.2179C 11.1059 10.2179 11.0837 8.67136 11.791 8.44362C 12.4882 8.21929 13.3835 9.9383 14.3325 10.5993C 15.05 11.0995 15.5953 10.9898 15.5953 10.9898L 18.1327 10.9539C 18.1327 10.9539 19.46 10.871 18.8306 9.81187C 18.7791 9.72522 18.4641 9.02841 16.9441 7.59655C 15.3531 6.09795 15.5662 6.34034 17.4827 3.74809C 18.6498 2.16939 19.1164 1.20557 18.9707 0.792767C 18.8317 0.399597 17.9733 0.503517 17.9733 0.503517L 15.1163 0.521579C 15.1163 0.521579 14.9046 0.492261 14.7475 0.587544C 14.594 0.680994 14.4952 0.898783 14.4952 0.898783C 14.4952 0.898783 14.043 2.12044 13.44 3.15938C 12.1678 5.35166 11.6592 5.46736 11.4513 5.33124C 10.9677 5.01398 11.0884 4.05671 11.0884 3.37665C 11.0884 1.25216 11.4059 0.366353 10.4701 0.137048C 10.1595 0.0608741 9.931 0.0106153 9.13681 0.0025006C 8.11743 -0.00823175 7.25463 0.00564143 6.7661 0.248559C 6.44109 0.410068 6.19038 0.769994 6.34308 0.790673C 6.53189 0.816326 6.95955 0.907682 7.18628 1.22101C 7.47904 1.62518 7.46872 2.53298 7.46872 2.53298C 7.46872 2.53298 7.6369 5.03388 7.07588 5.34459C 6.69078 5.55767 6.16252 5.12262 5.02837 3.13373C 4.44723 2.11494 4.00848 0.988829 4.00848 0.988829C 4.00848 0.988829 3.92388 0.77837 3.77298 0.665811C 3.58985 0.529432 3.33397 0.48598 3.33397 0.48598L 0.619172 0.504041C 0.619172 0.504041 0.21163 0.515559 0.0620259 0.695391C -0.0710702 0.85533 0.0514503 1.1862 0.0514503 1.1862C 0.0514503 1.1862 2.17686 6.2325 4.58342 8.77554C 6.79008 11.1071 9.29595 10.9539 9.29595 10.9539Z" transform="translate(7 12)" fill="white"/>
</g>
</g>
</g>
</svg>

