<svg width="36" height="8" viewBox="0 0 36 8" version="1.1" xmlns="http://www.w3.org/2000/svg" xmlns:xlink="http://www.w3.org/1999/xlink">
<g id="Canvas" transform="translate(4638 -16257)">
  <path transform="matrix(1 -2.44929e-16 2.44929e-16 1 -4638 16261.2)" d="M 35.3536 0.353553C 35.5488 0.158291 35.5488 -0.158291 35.3536 -0.353553L 32.1716 -3.53553C 31.9763 -3.7308 31.6597 -3.7308 31.4645 -3.53553C 31.2692 -3.34027 31.2692 -3.02369 31.4645 -2.82843L 34.2929 0L 31.4645 2.82843C 31.2692 3.02369 31.2692 3.34027 31.4645 3.53553C 31.6597 3.7308 31.9763 3.7308 32.1716 3.53553L 35.3536 0.353553ZM 0 0.5L 35 0.5L 35 -0.5L 0 -0.5L 0 0.5Z"/>
</g>
</svg>
