<svg width="22" height="20" viewBox="0 0 22 20" version="1.1" xmlns="http://www.w3.org/2000/svg" xmlns:xlink="http://www.w3.org/1999/xlink">
<g transform="translate(10146 -13714)">
  <g>
    <g>
      <path id="path1_fill" d="M 7.79167 0L 0.740385 0C 0.317308 0 -2.68985e-07 0.350876 -2.68985e-07 0.73684L -2.68985e-07 7.78945C -2.68985e-07 8.2105 0.352564 8.52629 0.740385 8.52629L 7.82692 8.52629C 8.25 8.52629 8.56731 8.17541 8.56731 7.78945L 8.56731 0.73684C 8.56731 0.315789 8.21474 0 7.79167 0ZM 7.05128 7.01752L 1.48077 7.01752L 1.48077 1.47368L 7.05128 1.47368L 7.05128 7.01752Z" transform="translate(-10146 13714)"/>
    </g>
    <g>
      <path transform="translate(-10146 13725.5)" id="path2_fill" d="M 7.79167 8.52629C 8.21474 8.52629 8.53205 8.17541 8.53205 7.78945L 8.53205 0.736839C 8.53205 0.315788 8.17949 2.67697e-07 7.79167 2.67697e-07L 0.740384 2.67697e-07C 0.317308 2.67697e-07 -2.68985e-07 0.350876 -2.68985e-07 0.736839L -2.68985e-07 7.78945C -2.68985e-07 8.2105 0.352564 8.52629 0.740384 8.52629L 7.79167 8.52629ZM 1.48077 1.50877L 7.05128 1.50877L 7.05128 7.05261L 1.48077 7.05261L 1.48077 1.50877Z"/>
    </g>
    <g>
      <path id="path3_fill" transform="translate(-10135.5 13715.5)" d="M 2.68985e-07 0.739262C 2.68985e-07 1.16031 0.352564 1.4761 0.740384 1.4761L 10.7179 1.4761C 11.141 1.4761 11.4583 1.12523 11.4583 0.739262C 11.4583 0.353299 11.1058 0.00242258 10.7179 0.00242258L 0.740384 0.00242258C 0.317307 -0.032665 2.68985e-07 0.318211 2.68985e-07 0.739262Z"/>
    </g>
    <g>
      <path id="path4_fill" transform="translate(-10135.5 13719.5)" d="M 10.7179 2.67697e-07L 0.740384 2.67697e-07C 0.317307 2.67697e-07 2.68985e-07 0.350876 2.68985e-07 0.736839C 2.68985e-07 1.15789 0.352564 1.47368 0.740384 1.47368L 10.7179 1.47368C 11.141 1.47368 11.4583 1.1228 11.4583 0.736839C 11.4583 0.350876 11.141 2.67697e-07 10.7179 2.67697e-07Z"/>
    </g>
    <g>
      <path id="path5_fill" transform="translate(-10135.5 13727)" d="M 10.7179 0L 0.740384 0C 0.317307 0 2.68985e-07 0.350875 2.68985e-07 0.736839C 2.68985e-07 1.15789 0.352564 1.47368 0.740384 1.47368L 10.7179 1.47368C 11.141 1.47368 11.4583 1.1228 11.4583 0.736839C 11.4583 0.315788 11.141 0 10.7179 0Z"/>
    </g>
    <g>

      <path id="path6_fill" transform="translate(-10135.5 13731)" d="M 11.4583 0.736839C 11.4583 0.315788 11.1058 0 10.7179 0L 0.740384 0C 0.317307 0 2.68985e-07 0.350875 2.68985e-07 0.736839C 2.68985e-07 1.15789 0.352564 1.47368 0.740384 1.47368L 10.7179 1.47368C 11.141 1.50877 11.4583 1.15789 11.4583 0.736839Z"/>
    </g>
  </g>
</g>
</svg>
