<svg width="30" height="30" viewBox="0 0 30 30" version="1.1" xmlns="http://www.w3.org/2000/svg" xmlns:xlink="http://www.w3.org/1999/xlink">
<g id="Canvas" transform="translate(-1873 -15284)">
<g id="down">
<g id="Vector">
<use xlink:href="#path0_fill" transform="translate(1873 15284)"/>
</g>
<g id="Vector">
<use xlink:href="#path1_fill" transform="translate(1878.63 15295.4)"/>
</g>
</g>
</g>
<defs>
<path id="path0_fill" fill-rule="evenodd" d="M 26.745 1.3292e-07C 26.883 0.0542461 27.0182 0.119579 27.1602 0.161154C 28.8802 0.665602 29.923 1.99324 29.9956 3.7798C 30.0031 3.9552 29.9987 4.13101 29.9987 4.30681C 29.9991 11.4621 30.0023 18.6179 29.9924 25.7736C 29.9912 26.2741 29.9623 26.792 29.8342 27.2715C 29.4131 28.849 28.0364 29.8975 26.3402 29.9941C 26.1653 30.0036 25.9889 29.9988 25.8132 29.9988C 18.6036 29.9996 11.3935 30.0028 4.18428 29.9925C 3.68389 29.9913 3.16605 29.9501 2.68827 29.8167C 1.13238 29.3819 0.11693 28.0412 0.00749476 26.3604C -0.00122835 26.2293 0.000357805 26.0975 0.000357805 25.9656C 0.000357805 18.6784 -0.00241787 11.3909 0.00749476 4.10329C 0.00828777 3.64794 0.0526963 3.17478 0.179578 2.74002C 0.543173 1.49751 1.36949 0.667978 2.59747 0.243117C 2.82109 0.166301 3.04195 0.0815671 3.26399 1.3292e-07C 11.0906 1.3292e-07 18.918 1.3292e-07 26.745 1.3292e-07ZM 28.1078 15.0855C 28.1078 11.4851 28.1082 7.88586 28.1066 4.28662C 28.1066 4.02331 28.1114 3.75762 28.0773 3.49787C 27.9833 2.76852 27.4108 2.13697 26.6986 1.99007C 26.4437 1.93741 26.1749 1.93741 25.912 1.93741C 18.6369 1.93464 11.3618 1.93504 4.08674 1.93543C 3.91109 1.93543 3.73425 1.93504 3.55978 1.95167C 2.68232 2.03759 2.01659 2.68735 1.91667 3.56796C 1.88733 3.8285 1.8901 4.09379 1.8901 4.3567C 1.88891 11.4685 1.88891 18.5794 1.8897 25.6908C 1.8897 25.9102 1.88614 26.1303 1.90319 26.3489C 1.98249 27.3637 2.66963 28.0353 3.69578 28.1042C 3.87104 28.1153 4.04709 28.1125 4.22314 28.1125C 11.4106 28.1125 18.5976 28.1129 25.7851 28.1113C 26.048 28.1113 26.314 28.1121 26.5733 28.0733C 27.3564 27.9573 27.9774 27.3233 28.0781 26.5405C 28.1122 26.2816 28.1066 26.0155 28.1066 25.7526C 28.1082 22.1965 28.1078 18.6408 28.1078 15.0855Z"/>
<path id="path1_fill" fill-rule="evenodd" d="M 9.49225 8.02659C 9.64094 7.83653 9.77099 7.62786 9.9403 7.45721C 12.2004 5.18481 14.4656 2.91717 16.7305 0.649534C 16.8859 0.49432 17.0342 0.328414 17.2071 0.196165C 17.5774 -0.086152 18.0928 -0.0560585 18.4168 0.246848C 18.776 0.58341 18.8224 1.08231 18.5223 1.49807C 18.433 1.62161 18.3177 1.72693 18.2098 1.83622C 15.5742 4.47764 12.924 7.10718 10.311 9.77117C 9.73174 10.3619 9.00296 10.3865 8.38243 9.75296C 5.78691 7.10203 3.15213 4.48912 0.532425 1.86195C 0.408716 1.73802 0.276679 1.61685 0.17676 1.47471C -0.0940535 1.09182 -0.0472659 0.592121 0.27311 0.270209C 0.586349 -0.0449724 1.10339 -0.0952588 1.48007 0.176763C 1.65612 0.303865 1.8056 0.469375 1.96064 0.624589C 4.24133 2.90767 6.52243 5.18996 8.79638 7.47977C 8.96411 7.64924 9.07473 7.87415 9.21232 8.07331C 9.3055 8.05787 9.39867 8.04243 9.49225 8.02659Z"/>
</defs>
</svg>
