<svg width="34" height="34" viewBox="0 0 34 34" version="1.1" xmlns="http://www.w3.org/2000/svg" xmlns:xlink="http://www.w3.org/1999/xlink">
<g id="Canvas" fill="none">
<g id="fb">
<g id="Vector">
<path d="M 17 34C 26.3888 34 34 26.3888 34 17C 34 7.61116 26.3888 0 17 0C 7.61116 0 0 7.61116 0 17C 0 26.3888 7.61116 34 17 34Z" fill="#3B5998"/>
</g>
<g id="Vector_2">
<path d="M 6.71812 7.48555L 4.64185 7.48555L 4.64185 15L 1.49612 15L 1.49612 7.48555L 5.69695e-08 7.48555L 5.69695e-08 4.84468L 1.49612 4.84468L 1.49612 3.13573C 1.49612 1.91365 2.08374 1.00054e-07 4.66985 1.00054e-07L 7 0.00963064L 7 2.57305L 5.30932 2.57305C 5.032 2.57305 4.64205 2.70993 4.64205 3.2929L 4.64205 4.84714L 6.99295 4.84714L 6.71812 7.48555Z" transform="translate(13 9)" fill="white"/>
</g>
</g>
</g>
</svg>

