<svg width="17" height="12" viewBox="0 0 17 12" fill="none" xmlns="http://www.w3.org/2000/svg">
<path d="M14.4558 2.81398e-08C13.9926 2.81398e-08 3.00763 2.81398e-08 2.54399 2.81398e-08C1.13887 2.81398e-08 -5.0032e-08 1.20101 -5.0032e-08 2.6828C-5.0032e-08 3.17174 -5.0032e-08 8.82849 -5.0032e-08 9.31697C-5.0032e-08 10.7988 1.13887 12 2.54399 12C3.00763 12 13.9926 12 14.4558 12C15.8609 12 17 10.7988 17 9.31697C17 8.82849 17 3.17174 17 2.6828C17 1.20101 15.8609 2.81398e-08 14.4558 2.81398e-08ZM5.39423 7.60604L2.58377 10.5694C2.4924 10.6657 2.37239 10.7139 2.2526 10.7139C2.13281 10.7139 2.01281 10.6657 1.92144 10.5694C1.73869 10.3762 1.73869 10.0639 1.92144 9.87114L4.73145 6.90733C4.91463 6.71462 5.21105 6.71462 5.39401 6.90733C5.57697 7.10028 5.57697 7.41332 5.39423 7.60604ZM15.0786 10.5694C14.9872 10.6657 14.8672 10.7139 14.7472 10.7139C14.6272 10.7139 14.5076 10.6657 14.4158 10.5694L11.606 7.60604C11.4232 7.41332 11.4232 7.10051 11.606 6.90733C11.7887 6.71462 12.0854 6.71462 12.2685 6.90733L15.0786 9.87114C15.2613 10.0639 15.2613 10.3767 15.0786 10.5694ZM15.0786 2.12909L10.6302 6.81996C10.0426 7.4396 9.2712 7.74919 8.49978 7.74919C7.72858 7.74919 6.95695 7.43937 6.36959 6.81996L1.92122 2.12909C1.73847 1.93615 1.73847 1.62356 1.92122 1.43061C2.10396 1.23767 2.40059 1.23767 2.58334 1.43061L7.03215 6.12172C7.84138 6.97533 9.1584 6.97533 9.96742 6.12172L14.4158 1.43061C14.599 1.23767 14.8956 1.23767 15.0783 1.43061C15.2611 1.62356 15.2613 1.93615 15.0786 2.12909Z" fill="#C4C4C4"/>
</svg>
