<svg width="13" height="16" viewBox="0 0 13 16" fill="none" xmlns="http://www.w3.org/2000/svg">
<path d="M11.6693 6.08834C11.7217 4.03506 11.1678 2.34493 10.0714 1.29546C9.17402 0.435988 7.96979 1.49311e-07 6.49162 1.49311e-07C5.0165 1.49311e-07 3.81288 0.438163 2.91489 1.30253C1.50803 2.6567 1.27218 4.68008 1.30783 6.09432C0.545438 6.34982 -3.25469e-08 7.00109 -3.25469e-08 7.77032V14.2047C-3.25469e-08 15.1962 0.901343 16 2.01294 16H10.9874C12.099 16 13 15.1962 13 14.2047V7.77059C13 6.99402 12.4439 6.33841 11.6693 6.08834ZM4.66212 2.74694C5.09695 2.32808 5.6954 2.12476 6.49192 2.12476C7.29302 2.12476 7.89391 2.32726 8.32874 2.74368C8.98113 3.36831 9.32272 4.52976 9.29499 5.97554H3.68673C3.66114 4.5564 4.01156 3.37293 4.66212 2.74694ZM7.28601 10.9399V12.3493C7.28601 12.7401 6.93041 13.0574 6.49223 13.0574C6.05375 13.0574 5.69845 12.7401 5.69845 12.3493V10.9399C5.31025 10.7097 5.05368 10.3172 5.05368 9.87035C5.05368 9.16173 5.69784 8.58657 6.49254 8.58657C7.28723 8.58657 7.93139 9.16119 7.93139 9.87035C7.93078 10.3172 7.67391 10.7097 7.28601 10.9399Z" fill="#00BFD9"/>
</svg>
