<svg width="30" height="30" viewBox="0 0 30 30" version="1.1" xmlns="http://www.w3.org/2000/svg" xmlns:xlink="http://www.w3.org/1999/xlink">
<g id="Canvas" fill="none">
<g id="Vector">
<path d="M 18.1676 0L 18.1676 1.57765C 23.8405 1.57765 28.4223 6.1595 28.4223 11.8324L 30 11.8324C 30 5.30688 24.6931 0 18.1676 0ZM 5.94084 2.03369L 5.3862 2.58833L 0.258833 7.71569L 0 7.97453L 0.0246508 8.34429C 0.387881 12.9124 2.96849 18.252 7.35826 22.6417C 11.748 27.0315 17.0876 29.5998 21.6557 29.963L 22.0131 30L 22.272 29.7412L 27.3993 24.6138L 27.9663 24.0592L 27.3993 23.4922L 22.272 18.3648L 21.7173 17.8102L 21.1627 18.3648L 18.0567 21.4708C 16.1524 20.3852 14.381 19.1262 12.6212 17.3665C 10.8612 15.6064 9.60256 13.8479 8.51684 11.9433L 11.6228 8.83731L 12.1898 8.28266L 11.6228 7.71569L 6.49548 2.58833L 5.94084 2.03369ZM 18.1676 3.1553L 18.1676 4.73295C 22.0979 4.73295 25.267 7.90213 25.267 11.8324L 26.8447 11.8324C 26.8447 7.0495 22.9505 3.1553 18.1676 3.1553ZM 5.94084 4.26459L 9.95892 8.28266L 6.96385 11.2654L 6.54478 11.6845L 6.82827 12.2021C 8.03279 14.4136 9.48877 16.4649 11.5119 18.4881C 13.5351 20.5112 15.574 21.9672 17.7855 23.1717L 18.3032 23.4552L 18.7223 23.0362L 21.7173 20.0411L 25.7354 24.0592L 21.4462 28.3361C 17.4326 27.9169 12.5124 25.565 8.46754 21.5201C 4.4192 17.4718 2.08009 12.5569 1.66393 8.5415L 5.94084 4.26459ZM 18.1676 6.3106L 18.1676 7.88825C 20.3552 7.88825 22.1117 9.64475 22.1117 11.8324L 23.6894 11.8324C 23.6894 8.79212 21.2079 6.3106 18.1676 6.3106Z" fill="#276591"/>
</g>
</g>
</svg>

