<svg width="14" height="19" viewBox="0 0 14 19" version="1.1" xmlns="http://www.w3.org/2000/svg" xmlns:xlink="http://www.w3.org/1999/xlink">
<title>point</title>
<desc>Created using Figma</desc>
<g id="Canvas" transform="translate(4739 -16148)">
<g id="point">
<use xlink:href="#path0_fill" transform="translate(-4739 16148.2)" fill="#4D4D4D"/>
</g>
</g>
<defs>
<path id="path0_fill" fill-rule="evenodd" d="M 0 7.25977C 0 3.26953 3.1499 0 7 0C 10.8501 0 14 3.26953 14 7.25977C 14 8.73047 13.6499 10.2002 12.8623 11.6396C 12.3081 12.7803 11.521 13.9199 10.5293 15C 8.8667 16.8301 7.2041 17.9102 7.146 17.9404L 7.13916 17.9434C 7.08301 17.9717 7.02686 18 6.9707 18C 6.9126 18 6.854 17.9697 6.7959 17.9404C 6.7373 17.9102 5.0752 16.8301 3.4126 15C 2.4209 13.9199 1.6333 12.7803 1.0791 11.6396C 0.350098 10.1699 0 8.7002 0 7.25977ZM 7 9.76465C 8.65674 9.76465 10 8.42188 10 6.76465C 10 5.10742 8.65674 3.76465 7 3.76465C 5.34326 3.76465 4 5.10742 4 6.76465C 4 8.42188 5.34326 9.76465 7 9.76465Z"/>
</defs>
</svg>
