<svg width="26" height="26" viewBox="0 0 26 26" version="1.1" xmlns="http://www.w3.org/2000/svg" xmlns:xlink="http://www.w3.org/1999/xlink">
<title>price</title>
<desc>Created using Figma</desc>
<g id="Canvas" transform="translate(4624 -16191)">
<g id="price">
<g id="Vector">
<use xlink:href="#path0_fill" transform="translate(-4623 16192.2)" fill="#4D4D4D"/>
<use xlink:href="#path1_stroke" transform="translate(-4623 16192.2)" fill="#4D4D4D"/>
</g>
</g>
</g>
<defs>
<path id="path0_fill" d="M 12 0C 5.37882 0 0 5.37882 0 12C 0 18.6212 5.37882 24 12 24C 18.6212 24 24 18.6212 24 12C 24 5.37882 18.6212 0 12 0ZM 12 1.04348C 18.0573 1.04348 22.9565 5.94271 22.9565 12C 22.9565 18.0573 18.0573 22.9565 12 22.9565C 5.94271 22.9565 1.04348 18.0573 1.04348 12C 1.04348 5.94271 5.94271 1.04348 12 1.04348ZM 6.72826 5.21739C 6.45508 5.24295 6.30268 5.46469 6.30435 5.73913C 6.30957 6.16174 6.5529 6.28648 6.82609 6.26087L 8.3913 6.26087L 8.3913 12.5217L 6.82609 12.5217C 6.55045 12.5165 6.30435 12.7678 6.30435 13.0435C 6.30435 13.3191 6.55045 13.5691 6.82609 13.5652L 8.3913 13.5652L 8.3913 15.6522L 6.82609 15.6522C 6.53793 15.6522 6.30435 15.8857 6.30435 16.1739C 6.30435 16.4621 6.53793 16.6956 6.82609 16.6956L 8.3913 16.6956L 8.3913 19.3043C 8.38609 19.58 8.63736 19.8261 8.91304 19.8261C 9.18873 19.8261 9.4387 19.58 9.43478 19.3043L 9.43478 16.6956L 14.1304 16.6956C 14.4186 16.6956 14.6522 16.4621 14.6522 16.1739C 14.6522 15.8857 14.4186 15.6522 14.1304 15.6522L 9.43478 15.6522L 9.43478 13.5652L 13.6087 13.5652C 15.8363 13.5652 17.7826 11.7099 17.7826 9.3913C 17.7826 7.07274 15.8363 5.21739 13.6087 5.21739L 6.72826 5.21739ZM 9.43478 6.26087L 13.6087 6.26087C 15.2506 6.26087 16.7391 7.6632 16.7391 9.3913C 16.7391 11.1194 15.2506 12.5217 13.6087 12.5217L 9.43478 12.5217L 9.43478 6.26087Z"/>
<path id="path1_stroke" d="M 6.72826 5.21739L 6.72826 4.96739L 6.71659 4.96739L 6.70497 4.96848L 6.72826 5.21739ZM 6.30435 5.73913L 6.05435 5.74065L 6.05437 5.74221L 6.30435 5.73913ZM 6.82609 6.26087L 6.82609 6.01087L 6.81439 6.01087L 6.80275 6.01196L 6.82609 6.26087ZM 8.3913 6.26087L 8.6413 6.26087L 8.6413 6.01087L 8.3913 6.01087L 8.3913 6.26087ZM 8.3913 12.5217L 8.3913 12.7717L 8.6413 12.7717L 8.6413 12.5217L 8.3913 12.5217ZM 6.82609 12.5217L 6.82135 12.7717L 6.82609 12.7717L 6.82609 12.5217ZM 6.82609 13.5652L 6.82609 13.3152L 6.82254 13.3152L 6.82609 13.5652ZM 8.3913 13.5652L 8.6413 13.5652L 8.6413 13.3152L 8.3913 13.3152L 8.3913 13.5652ZM 8.3913 15.6522L 8.3913 15.9022L 8.6413 15.9022L 8.6413 15.6522L 8.3913 15.6522ZM 8.3913 16.6956L 8.6413 16.6956L 8.6413 16.4456L 8.3913 16.4456L 8.3913 16.6956ZM 8.3913 19.3043L 8.6413 19.3091L 8.6413 19.3043L 8.3913 19.3043ZM 9.43478 19.3043L 9.18476 19.3043L 9.18481 19.3079L 9.43478 19.3043ZM 9.43478 16.6956L 9.43478 16.4456L 9.18478 16.4456L 9.18478 16.6956L 9.43478 16.6956ZM 9.43478 15.6522L 9.18478 15.6522L 9.18478 15.9022L 9.43478 15.9022L 9.43478 15.6522ZM 9.43478 13.5652L 9.43478 13.3152L 9.18478 13.3152L 9.18478 13.5652L 9.43478 13.5652ZM 9.43478 6.26087L 9.43478 6.01087L 9.18478 6.01087L 9.18478 6.26087L 9.43478 6.26087ZM 9.43478 12.5217L 9.18478 12.5217L 9.18478 12.7717L 9.43478 12.7717L 9.43478 12.5217ZM 12 -0.25C 5.24075 -0.25 -0.25 5.24074 -0.25 12L 0.25 12C 0.25 5.51689 5.51689 0.25 12 0.25L 12 -0.25ZM -0.25 12C -0.25 18.7592 5.24075 24.25 12 24.25L 12 23.75C 5.51689 23.75 0.25 18.4831 0.25 12L -0.25 12ZM 12 24.25C 18.7593 24.25 24.25 18.7592 24.25 12L 23.75 12C 23.75 18.4831 18.4831 23.75 12 23.75L 12 24.25ZM 24.25 12C 24.25 5.24074 18.7593 -0.25 12 -0.25L 12 0.25C 18.4831 0.25 23.75 5.51689 23.75 12L 24.25 12ZM 12 1.29348C 17.9192 1.29348 22.7065 6.08078 22.7065 12L 23.2065 12C 23.2065 5.80464 18.1954 0.793478 12 0.793478L 12 1.29348ZM 22.7065 12C 22.7065 17.9192 17.9192 22.7065 12 22.7065L 12 23.2065C 18.1954 23.2065 23.2065 18.1954 23.2065 12L 22.7065 12ZM 12 22.7065C 6.08078 22.7065 1.29348 17.9192 1.29348 12L 0.793478 12C 0.793478 18.1954 5.80464 23.2065 12 23.2065L 12 22.7065ZM 1.29348 12C 1.29348 6.08078 6.08078 1.29348 12 1.29348L 12 0.793478C 5.80464 0.793478 0.793478 5.80464 0.793478 12L 1.29348 12ZM 6.70497 4.96848C 6.50096 4.98757 6.33091 5.08307 6.21565 5.23177C 6.10326 5.37676 6.05324 5.55822 6.05435 5.74065L 6.55434 5.73761C 6.55378 5.6456 6.57913 5.57898 6.61082 5.53809C 6.63964 5.50092 6.68238 5.47277 6.75155 5.4663L 6.70497 4.96848ZM 6.05437 5.74221C 6.05755 6.00009 6.13521 6.21694 6.30337 6.35904C 6.46772 6.49791 6.67275 6.52634 6.84943 6.50978L 6.80275 6.01196C 6.70624 6.02101 6.65301 5.99988 6.62609 5.97713C 6.60299 5.95761 6.55636 5.90078 6.55433 5.73604L 6.05437 5.74221ZM 6.82609 6.51087L 8.3913 6.51087L 8.3913 6.01087L 6.82609 6.01087L 6.82609 6.51087ZM 8.1413 6.26087L 8.1413 12.5217L 8.6413 12.5217L 8.6413 6.26087L 8.1413 6.26087ZM 8.3913 12.2717L 6.82609 12.2717L 6.82609 12.7717L 8.3913 12.7717L 8.3913 12.2717ZM 6.83082 12.2718C 6.40923 12.2638 6.05435 12.634 6.05435 13.0435L 6.55435 13.0435C 6.55435 12.9016 6.69168 12.7692 6.82136 12.7717L 6.83082 12.2718ZM 6.05435 13.0435C 6.05435 13.454 6.41 13.8211 6.82964 13.8152L 6.82254 13.3152C 6.6909 13.3171 6.55435 13.1842 6.55435 13.0435L 6.05435 13.0435ZM 6.82609 13.8152L 8.3913 13.8152L 8.3913 13.3152L 6.82609 13.3152L 6.82609 13.8152ZM 8.1413 13.5652L 8.1413 15.6522L 8.6413 15.6522L 8.6413 13.5652L 8.1413 13.5652ZM 8.3913 15.4022L 6.82609 15.4022L 6.82609 15.9022L 8.3913 15.9022L 8.3913 15.4022ZM 6.82609 15.4022C 6.39986 15.4022 6.05435 15.7477 6.05435 16.1739L 6.55435 16.1739C 6.55435 16.0238 6.676 15.9022 6.82609 15.9022L 6.82609 15.4022ZM 6.05435 16.1739C 6.05435 16.6001 6.39986 16.9456 6.82609 16.9456L 6.82609 16.4456C 6.676 16.4456 6.55435 16.324 6.55435 16.1739L 6.05435 16.1739ZM 6.82609 16.9456L 8.3913 16.9456L 8.3913 16.4456L 6.82609 16.4456L 6.82609 16.9456ZM 8.1413 16.6956L 8.1413 19.3043L 8.6413 19.3043L 8.6413 16.6956L 8.1413 16.6956ZM 8.14135 19.2996C 8.13337 19.7212 8.50357 20.0761 8.91304 20.0761L 8.91304 19.5761C 8.77114 19.5761 8.6388 19.4387 8.64126 19.3091L 8.14135 19.2996ZM 8.91304 20.0761C 9.32361 20.0761 9.69071 19.7204 9.68476 19.3008L 9.18481 19.3079C 9.18668 19.4395 9.05385 19.5761 8.91304 19.5761L 8.91304 20.0761ZM 9.68478 19.3043L 9.68478 16.6956L 9.18478 16.6956L 9.18478 19.3043L 9.68478 19.3043ZM 9.43478 16.9456L 14.1304 16.9456L 14.1304 16.4456L 9.43478 16.4456L 9.43478 16.9456ZM 14.1304 16.9456C 14.5567 16.9456 14.9022 16.6001 14.9022 16.1739L 14.4022 16.1739C 14.4022 16.324 14.2805 16.4456 14.1304 16.4456L 14.1304 16.9456ZM 14.9022 16.1739C 14.9022 15.7477 14.5567 15.4022 14.1304 15.4022L 14.1304 15.9022C 14.2805 15.9022 14.4022 16.0238 14.4022 16.1739L 14.9022 16.1739ZM 14.1304 15.4022L 9.43478 15.4022L 9.43478 15.9022L 14.1304 15.9022L 14.1304 15.4022ZM 9.68478 15.6522L 9.68478 13.5652L 9.18478 13.5652L 9.18478 15.6522L 9.68478 15.6522ZM 9.43478 13.8152L 13.6087 13.8152L 13.6087 13.3152L 9.43478 13.3152L 9.43478 13.8152ZM 13.6087 13.8152C 15.9708 13.8152 18.0326 11.8514 18.0326 9.3913L 17.5326 9.3913C 17.5326 11.5683 15.7017 13.3152 13.6087 13.3152L 13.6087 13.8152ZM 18.0326 9.3913C 18.0326 6.93116 15.9708 4.96739 13.6087 4.96739L 13.6087 5.46739C 15.7017 5.46739 17.5326 7.21433 17.5326 9.3913L 18.0326 9.3913ZM 13.6087 4.96739L 6.72826 4.96739L 6.72826 5.46739L 13.6087 5.46739L 13.6087 4.96739ZM 9.43478 6.51087L 13.6087 6.51087L 13.6087 6.01087L 9.43478 6.01087L 9.43478 6.51087ZM 13.6087 6.51087C 15.1169 6.51087 16.4891 7.80569 16.4891 9.3913L 16.9891 9.3913C 16.9891 7.5207 15.3842 6.01087 13.6087 6.01087L 13.6087 6.51087ZM 16.4891 9.3913C 16.4891 10.9769 15.1169 12.2717 13.6087 12.2717L 13.6087 12.7717C 15.3842 12.7717 16.9891 11.2618 16.9891 9.3913L 16.4891 9.3913ZM 13.6087 12.2717L 9.43478 12.2717L 9.43478 12.7717L 13.6087 12.7717L 13.6087 12.2717ZM 9.68478 12.5217L 9.68478 6.26087L 9.18478 6.26087L 9.18478 12.5217L 9.68478 12.5217Z"/>
</defs>
</svg>
